<?xml version="1.0" encoding="utf-8" standalone="no"?>
<!DOCTYPE svg PUBLIC "-//W3C//DTD SVG 1.1//EN"
  "http://www.w3.org/Graphics/SVG/1.1/DTD/svg11.dtd">
<svg xmlns:xlink="http://www.w3.org/1999/xlink" width="1144.8pt" height="1000.037344pt" viewBox="0 0 1144.8 1000.037344" xmlns="http://www.w3.org/2000/svg" version="1.1">
 <metadata>
  <rdf:RDF xmlns:dc="http://purl.org/dc/elements/1.1/" xmlns:cc="http://creativecommons.org/ns#" xmlns:rdf="http://www.w3.org/1999/02/22-rdf-syntax-ns#">
   <cc:Work>
    <dc:type rdf:resource="http://purl.org/dc/dcmitype/StillImage"/>
    <dc:date>2025-09-10T10:04:19.650685</dc:date>
    <dc:format>image/svg+xml</dc:format>
    <dc:creator>
     <cc:Agent>
      <dc:title>Matplotlib v3.10.1, https://matplotlib.org/</dc:title>
     </cc:Agent>
    </dc:creator>
   </cc:Work>
  </rdf:RDF>
 </metadata>
 <defs>
  <style type="text/css">*{stroke-linejoin: round; stroke-linecap: butt}</style>
 </defs>
 <g id="figure_1">
  <g id="patch_1">
   <path d="M 0 1000.037344 
L 1144.8 1000.037344 
L 1144.8 0 
L 0 0 
z
" style="fill: #ffffff"/>
  </g>
  <g id="axes_1">
   <g id="patch_2">
    <path d="M 550.566918 912.313096 
Q 498.963197 832.608132 448.787386 755.108661 
" clip-path="url(#p6d3b38b535)" style="fill: none; opacity: 0.7; stroke: #3690c0; stroke-width: 2.35; stroke-linecap: round"/>
    <path d="M 450.272508 768.442618 
L 448.787386 755.108661 
L 460.345625 761.920937 
z
" clip-path="url(#p6d3b38b535)" style="fill: #3690c0; opacity: 0.7; stroke: #3690c0; stroke-width: 2.35; stroke-linecap: round"/>
   </g>
   <g id="patch_3">
    <path d="M 673.654627 260.629059 
Q 712.339751 348.592498 749.967158 434.150867 
" clip-path="url(#p6d3b38b535)" style="fill: none; opacity: 0.7; stroke: #3690c0; stroke-width: 2.35; stroke-linecap: round"/>
    <path d="M 750.628583 420.750773 
L 749.967158 434.150867 
L 739.643938 425.581671 
z
" clip-path="url(#p6d3b38b535)" style="fill: #3690c0; opacity: 0.7; stroke: #3690c0; stroke-width: 2.35; stroke-linecap: round"/>
   </g>
   <g id="patch_4">
    <path d="M 613.809428 237.341843 
Q 531.789568 238.04272 473.865111 292.341569 
" clip-path="url(#p6d3b38b535)" style="fill: none; opacity: 0.7; stroke: #3690c0; stroke-width: 2.35; stroke-linecap: round"/>
    <path d="M 486.723391 288.512129 
L 473.865111 292.341569 
L 478.516527 279.75728 
z
" clip-path="url(#p6d3b38b535)" style="fill: #3690c0; opacity: 0.7; stroke: #3690c0; stroke-width: 2.35; stroke-linecap: round"/>
   </g>
   <g id="patch_5">
    <path d="M 661.381395 263.507297 
Q 681.895194 434.018806 702.095162 601.921746 
" clip-path="url(#p6d3b38b535)" style="fill: none; opacity: 0.7; stroke: #3690c0; stroke-width: 2.35; stroke-linecap: round"/>
    <path d="M 706.618853 589.290982 
L 702.095162 601.921746 
L 694.704764 590.724335 
z
" clip-path="url(#p6d3b38b535)" style="fill: #3690c0; opacity: 0.7; stroke: #3690c0; stroke-width: 2.35; stroke-linecap: round"/>
   </g>
   <g id="patch_6">
    <path d="M 822.665239 96.855857 
Q 757.412901 145.593614 694.265583 192.759106 
" clip-path="url(#p6d3b38b535)" style="fill: none; opacity: 0.7; stroke: #3690c0; stroke-width: 2.35; stroke-linecap: round"/>
    <path d="M 707.470307 190.385237 
L 694.265583 192.759106 
L 700.289322 180.771005 
z
" clip-path="url(#p6d3b38b535)" style="fill: #3690c0; opacity: 0.7; stroke: #3690c0; stroke-width: 2.35; stroke-linecap: round"/>
   </g>
   <g id="patch_7">
    <path d="M 124.546455 720.298465 
Q 96.183895 592.06899 68.388761 466.40489 
" clip-path="url(#p6d3b38b535)" style="fill: none; opacity: 0.7; stroke: #3690c0; stroke-width: 2.35; stroke-linecap: round"/>
    <path d="M 65.12195 479.417497 
L 68.388761 466.40489 
L 76.83876 476.825904 
z
" clip-path="url(#p6d3b38b535)" style="fill: #3690c0; opacity: 0.7; stroke: #3690c0; stroke-width: 2.35; stroke-linecap: round"/>
   </g>
   <g id="patch_8">
    <path d="M 679.475593 613.046983 
Q 568.763547 479.312642 459.726951 347.602156 
" clip-path="url(#p6d3b38b535)" style="fill: none; opacity: 0.7; stroke: #3690c0; stroke-width: 2.35; stroke-linecap: round"/>
    <path d="M 462.757447 360.671819 
L 459.726951 347.602156 
L 472.000979 353.019556 
z
" clip-path="url(#p6d3b38b535)" style="fill: #3690c0; opacity: 0.7; stroke: #3690c0; stroke-width: 2.35; stroke-linecap: round"/>
   </g>
   <g id="patch_9">
    <path d="M 661.572941 642.942817 
Q 532.104896 631.76723 405.254497 620.817596 
" clip-path="url(#p6d3b38b535)" style="fill: none; opacity: 0.7; stroke: #3690c0; stroke-width: 2.35; stroke-linecap: round"/>
    <path d="M 416.694042 627.827361 
L 405.254497 620.817596 
L 417.726036 615.871819 
z
" clip-path="url(#p6d3b38b535)" style="fill: #3690c0; opacity: 0.7; stroke: #3690c0; stroke-width: 2.35; stroke-linecap: round"/>
   </g>
   <g id="patch_10">
    <path d="M 753.545943 644.128538 
Q 896.86523 635.476507 1037.561911 626.9828 
" clip-path="url(#p6d3b38b535)" style="fill: none; opacity: 0.7; stroke: #3690c0; stroke-width: 2.35; stroke-linecap: round"/>
    <path d="M 1025.222162 621.716814 
L 1037.561911 626.9828 
L 1025.945273 633.695008 
z
" clip-path="url(#p6d3b38b535)" style="fill: #3690c0; opacity: 0.7; stroke: #3690c0; stroke-width: 2.35; stroke-linecap: round"/>
   </g>
   <g id="patch_11">
    <path d="M 319.018033 641.213552 
Q 245.243514 689.348355 173.669429 736.047466 
" clip-path="url(#p6d3b38b535)" style="fill: none; opacity: 0.7; stroke: #3690c0; stroke-width: 2.35; stroke-linecap: round"/>
    <path d="M 186.998058 734.515257 
L 173.669429 736.047466 
L 180.440839 724.465238 
z
" clip-path="url(#p6d3b38b535)" style="fill: #3690c0; opacity: 0.7; stroke: #3690c0; stroke-width: 2.35; stroke-linecap: round"/>
   </g>
   <g id="patch_12">
    <path d="M 386.102394 324.765368 
Q 244.303358 366.891767 105.022906 408.269931 
" clip-path="url(#p6d3b38b535)" style="fill: none; opacity: 0.7; stroke: #3690c0; stroke-width: 2.35; stroke-linecap: round"/>
    <path d="M 118.234709 410.604081 
L 105.022906 408.269931 
L 114.817307 399.100978 
z
" clip-path="url(#p6d3b38b535)" style="fill: #3690c0; opacity: 0.7; stroke: #3690c0; stroke-width: 2.35; stroke-linecap: round"/>
   </g>
   <g id="patch_13">
    <path d="M 470.855827 331.550279 
Q 599.206195 393.885081 725.193164 455.072071 
" clip-path="url(#p6d3b38b535)" style="fill: none; opacity: 0.7; stroke: #3690c0; stroke-width: 2.35; stroke-linecap: round"/>
    <path d="M 717.020034 444.432525 
L 725.193164 455.072071 
L 711.777649 455.226848 
z
" clip-path="url(#p6d3b38b535)" style="fill: #3690c0; opacity: 0.7; stroke: #3690c0; stroke-width: 2.35; stroke-linecap: round"/>
   </g>
   <g id="patch_14">
    <path d="M 423.230115 353.892329 
Q 406.712615 456.484405 390.612749 556.482506 
" clip-path="url(#p6d3b38b535)" style="fill: none; opacity: 0.7; stroke: #3690c0; stroke-width: 2.35; stroke-linecap: round"/>
    <path d="M 398.443921 545.588804 
L 390.612749 556.482506 
L 386.59649 543.681347 
z
" clip-path="url(#p6d3b38b535)" style="fill: #3690c0; opacity: 0.7; stroke: #3690c0; stroke-width: 2.35; stroke-linecap: round"/>
   </g>
   <g id="patch_15">
    <path d="M 420.011808 353.339932 
Q 393.360583 464.173844 367.323631 572.453194 
" clip-path="url(#p6d3b38b535)" style="fill: none; opacity: 0.7; stroke: #3690c0; stroke-width: 2.35; stroke-linecap: round"/>
    <path d="M 375.962904 562.188548 
L 367.323631 572.453194 
L 364.295478 559.382988 
z
" clip-path="url(#p6d3b38b535)" style="fill: #3690c0; opacity: 0.7; stroke: #3690c0; stroke-width: 2.35; stroke-linecap: round"/>
   </g>
   <g id="patch_16">
    <path d="M 472.49377 295.504972 
Q 554.513629 294.804095 612.438087 240.505246 
" clip-path="url(#p6d3b38b535)" style="fill: none; opacity: 0.7; stroke: #3690c0; stroke-width: 2.35; stroke-linecap: round"/>
    <path d="M 599.579807 244.334687 
L 612.438087 240.505246 
L 607.786671 253.089535 
z
" clip-path="url(#p6d3b38b535)" style="fill: #3690c0; opacity: 0.7; stroke: #3690c0; stroke-width: 2.35; stroke-linecap: round"/>
   </g>
   <g id="patch_17">
    <path d="M 483.934864 771.408644 
Q 434.26997 710.990166 386.273489 652.60135 
" clip-path="url(#p6d3b38b535)" style="fill: none; opacity: 0.7; stroke: #3690c0; stroke-width: 2.35; stroke-linecap: round"/>
    <path d="M 389.258583 665.681458 
L 386.273489 652.60135 
L 398.528631 658.061339 
z
" clip-path="url(#p6d3b38b535)" style="fill: #3690c0; opacity: 0.7; stroke: #3690c0; stroke-width: 2.35; stroke-linecap: round"/>
   </g>
   <g id="patch_18">
    <path d="M 466.056033 800.115576 
Q 322.811376 783.713763 182.177043 767.610837 
" clip-path="url(#p6d3b38b535)" style="fill: none; opacity: 0.7; stroke: #3690c0; stroke-width: 2.35; stroke-linecap: round"/>
    <path d="M 193.416591 774.936993 
L 182.177043 767.610837 
L 194.781697 763.014892 
z
" clip-path="url(#p6d3b38b535)" style="fill: #3690c0; opacity: 0.7; stroke: #3690c0; stroke-width: 2.35; stroke-linecap: round"/>
   </g>
   <g id="patch_19">
    <path d="M 724.879601 490.204946 
Q 575.898788 538.65289 429.41656 586.288305 
" clip-path="url(#p6d3b38b535)" style="fill: none; opacity: 0.7; stroke: #3690c0; stroke-width: 2.35; stroke-linecap: round"/>
    <path d="M 442.683839 588.283127 
L 429.41656 586.288305 
L 438.972784 576.871375 
z
" clip-path="url(#p6d3b38b535)" style="fill: #3690c0; opacity: 0.7; stroke: #3690c0; stroke-width: 2.35; stroke-linecap: round"/>
   </g>
   <g id="patch_20">
    <path d="M 753.963899 516.549231 
Q 737.951638 561.480136 722.821376 603.936126 
" clip-path="url(#p6d3b38b535)" style="fill: none; opacity: 0.7; stroke: #3690c0; stroke-width: 2.35; stroke-linecap: round"/>
    <path d="M 732.50154 594.646647 
L 722.821376 603.936126 
L 721.197892 590.618307 
z
" clip-path="url(#p6d3b38b535)" style="fill: #3690c0; opacity: 0.7; stroke: #3690c0; stroke-width: 2.35; stroke-linecap: round"/>
   </g>
   <g id="patch_21">
    <path d="M 809.14993 495.843479 
Q 905.353926 597.191565 1042.215949 605.433437 
" clip-path="url(#p6d3b38b535)" style="fill: none; opacity: 0.7; stroke: #3690c0; stroke-width: 2.35; stroke-linecap: round"/>
    <path d="M 1030.598317 598.72295 
L 1042.215949 605.433437 
L 1029.876981 610.70125 
z
" clip-path="url(#p6d3b38b535)" style="fill: #3690c0; opacity: 0.7; stroke: #3690c0; stroke-width: 2.35; stroke-linecap: round"/>
   </g>
   <g id="patch_22">
    <path d="M 1045.463733 604.255757 
Q 949.259737 502.907671 812.397713 494.665799 
" clip-path="url(#p6d3b38b535)" style="fill: none; opacity: 0.7; stroke: #3690c0; stroke-width: 2.35; stroke-linecap: round"/>
    <path d="M 824.015345 501.376286 
L 812.397713 494.665799 
L 824.736682 489.397986 
z
" clip-path="url(#p6d3b38b535)" style="fill: #3690c0; opacity: 0.7; stroke: #3690c0; stroke-width: 2.35; stroke-linecap: round"/>
   </g>
   <g id="patch_23">
    <path d="M 690.086754 686.386808 
Q 640.879248 797.902206 591.671741 909.417604 
" clip-path="url(#p6d3b38b535)" style="fill: none; opacity: 0.8; stroke: #d7301f; stroke-width: 2.35; stroke-linecap: round"/>
    <path d="M 690.086754 686.386808 
L 690.086754 686.386808 
L 690.086754 686.386808 
L 690.086754 686.386808 
" clip-path="url(#p6d3b38b535)" style="fill: none; opacity: 0.8; stroke: #d7301f; stroke-width: 2.35; stroke-linecap: round"/>
    <path d="M 580.693075 904.573135 
L 580.693075 904.573135 
L 602.650408 914.262072 
L 602.650408 914.262072 
" clip-path="url(#p6d3b38b535)" style="fill: none; opacity: 0.8; stroke: #d7301f; stroke-width: 2.35; stroke-linecap: round"/>
   </g>
   <g id="patch_24">
    <path d="M 672.813104 675.003292 
Q 609.675018 726.132652 546.536931 777.262011 
" clip-path="url(#p6d3b38b535)" style="fill: none; opacity: 0.8; stroke: #d7301f; stroke-width: 2.35; stroke-linecap: round"/>
    <path d="M 672.813104 675.003292 
L 672.813104 675.003292 
L 672.813104 675.003292 
L 672.813104 675.003292 
" clip-path="url(#p6d3b38b535)" style="fill: none; opacity: 0.8; stroke: #d7301f; stroke-width: 2.35; stroke-linecap: round"/>
    <path d="M 538.984984 767.936343 
L 538.984984 767.936343 
L 554.088878 786.58768 
L 554.088878 786.58768 
" clip-path="url(#p6d3b38b535)" style="fill: none; opacity: 0.8; stroke: #d7301f; stroke-width: 2.35; stroke-linecap: round"/>
   </g>
   <g id="patch_25">
    <path d="M 469.399797 289.51047 
Q 644.282688 190.887677 819.165578 92.264884 
" clip-path="url(#p6d3b38b535)" style="fill: none; opacity: 0.8; stroke: #d7301f; stroke-width: 2.35; stroke-linecap: round"/>
    <path d="M 469.399797 289.51047 
L 469.399797 289.51047 
L 469.399797 289.51047 
L 469.399797 289.51047 
" clip-path="url(#p6d3b38b535)" style="fill: none; opacity: 0.8; stroke: #d7301f; stroke-width: 2.35; stroke-linecap: round"/>
    <path d="M 825.060113 102.71737 
L 825.060113 102.71737 
L 813.271043 81.812398 
L 813.271043 81.812398 
" clip-path="url(#p6d3b38b535)" style="fill: none; opacity: 0.8; stroke: #d7301f; stroke-width: 2.35; stroke-linecap: round"/>
   </g>
   <g id="patch_26">
    <path d="M 731.567313 501.722263 
Q 596.03569 596.185113 460.504067 690.647963 
" clip-path="url(#p6d3b38b535)" style="fill: none; opacity: 0.8; stroke: #d7301f; stroke-width: 2.35; stroke-linecap: round"/>
    <path d="M 731.567313 501.722263 
L 731.567313 501.722263 
L 731.567313 501.722263 
L 731.567313 501.722263 
" clip-path="url(#p6d3b38b535)" style="fill: none; opacity: 0.8; stroke: #d7301f; stroke-width: 2.35; stroke-linecap: round"/>
    <path d="M 453.642485 680.803234 
L 453.642485 680.803234 
L 467.365648 700.492693 
L 467.365648 700.492693 
" clip-path="url(#p6d3b38b535)" style="fill: none; opacity: 0.8; stroke: #d7301f; stroke-width: 2.35; stroke-linecap: round"/>
   </g>
   <g id="patch_27">
    <path d="M 777.669875 434.28444 
Q 813.468881 273.055559 849.267887 111.826678 
" clip-path="url(#p6d3b38b535)" style="fill: none; opacity: 0.8; stroke: #d7301f; stroke-width: 2.35; stroke-linecap: round"/>
    <path d="M 777.669875 434.28444 
L 777.669875 434.28444 
L 777.669875 434.28444 
L 777.669875 434.28444 
" clip-path="url(#p6d3b38b535)" style="fill: none; opacity: 0.8; stroke: #d7301f; stroke-width: 2.35; stroke-linecap: round"/>
    <path d="M 860.982588 114.427792 
L 860.982588 114.427792 
L 837.553187 109.225564 
L 837.553187 109.225564 
" clip-path="url(#p6d3b38b535)" style="fill: none; opacity: 0.8; stroke: #d7301f; stroke-width: 2.35; stroke-linecap: round"/>
   </g>
   <g id="patch_28">
    <path d="M 741.441723 510.650782 
Q 640.119661 640.704688 538.797599 770.758594 
" clip-path="url(#p6d3b38b535)" style="fill: none; opacity: 0.8; stroke: #d7301f; stroke-width: 2.35; stroke-linecap: round"/>
    <path d="M 741.441723 510.650782 
L 741.441723 510.650782 
L 741.441723 510.650782 
L 741.441723 510.650782 
" clip-path="url(#p6d3b38b535)" style="fill: none; opacity: 0.8; stroke: #d7301f; stroke-width: 2.35; stroke-linecap: round"/>
    <path d="M 529.331338 763.383643 
L 529.331338 763.383643 
L 548.263861 778.133544 
L 548.263861 778.133544 
" clip-path="url(#p6d3b38b535)" style="fill: none; opacity: 0.8; stroke: #d7301f; stroke-width: 2.35; stroke-linecap: round"/>
   </g>
   <g id="patch_29">
    <path d="M 425.137863 278.705481 
Q 400.622478 235.909724 408.845416 281.873471 
" clip-path="url(#p6d3b38b535)" style="fill: none; opacity: 0.8; stroke: #3690c0; stroke-width: 2.35; stroke-linecap: round"/>
    <path d="M 412.63839 269.004386 
L 408.845416 281.873471 
L 400.825932 271.11764 
z
" clip-path="url(#p6d3b38b535)" style="fill: #3690c0; opacity: 0.8; stroke: #3690c0; stroke-width: 2.35; stroke-linecap: round"/>
   </g>
   <g id="PathCollection_1">
    <defs>
     <path id="m2904eca546" d="M 0 27.386128 
C 7.262886 27.386128 14.229281 24.500553 19.364917 19.364917 
C 24.500553 14.229281 27.386128 7.262886 27.386128 0 
C 27.386128 -7.262886 24.500553 -14.229281 19.364917 -19.364917 
C 14.229281 -24.500553 7.262886 -27.386128 0 -27.386128 
C -7.262886 -27.386128 -14.229281 -24.500553 -19.364917 -19.364917 
C -24.500553 -14.229281 -27.386128 -7.262886 -27.386128 0 
C -27.386128 7.262886 -24.500553 14.229281 -19.364917 19.364917 
C -14.229281 24.500553 -7.262886 27.386128 0 27.386128 
z
" style="stroke: #000000; stroke-opacity: 0.8; stroke-width: 1.5"/>
    </defs>
    <g clip-path="url(#p6d3b38b535)">
     <use xlink:href="#m2904eca546" x="574.251635" y="948.895526" style="fill: #add8e6; fill-opacity: 0.8; stroke: #000000; stroke-opacity: 0.8; stroke-width: 1.5"/>
     <use xlink:href="#m2904eca546" x="656.282947" y="221.128794" style="fill: #add8e6; fill-opacity: 0.8; stroke: #000000; stroke-opacity: 0.8; stroke-width: 1.5"/>
     <use xlink:href="#m2904eca546" x="858.541881" y="70.059162" style="fill: #add8e6; fill-opacity: 0.8; stroke: #000000; stroke-opacity: 0.8; stroke-width: 1.5"/>
     <use xlink:href="#m2904eca546" x="133.785716" y="762.069929" style="fill: #add8e6; fill-opacity: 0.8; stroke: #000000; stroke-opacity: 0.8; stroke-width: 1.5"/>
     <use xlink:href="#m2904eca546" x="707.507322" y="646.90784" style="fill: #add8e6; fill-opacity: 0.8; stroke: #000000; stroke-opacity: 0.8; stroke-width: 1.5"/>
     <use xlink:href="#m2904eca546" x="356.701665" y="616.626551" style="fill: #add8e6; fill-opacity: 0.8; stroke: #000000; stroke-opacity: 0.8; stroke-width: 1.5"/>
     <use xlink:href="#m2904eca546" x="430.020251" y="311.718021" style="fill: #add8e6; fill-opacity: 0.8; stroke: #000000; stroke-opacity: 0.8; stroke-width: 1.5"/>
     <use xlink:href="#m2904eca546" x="511.841866" y="805.35815" style="fill: #add8e6; fill-opacity: 0.8; stroke: #000000; stroke-opacity: 0.8; stroke-width: 1.5"/>
     <use xlink:href="#m2904eca546" x="58.581818" y="422.066892" style="fill: #add8e6; fill-opacity: 0.8; stroke: #000000; stroke-opacity: 0.8; stroke-width: 1.5"/>
     <use xlink:href="#m2904eca546" x="768.395481" y="476.053762" style="fill: #add8e6; fill-opacity: 0.8; stroke: #000000; stroke-opacity: 0.8; stroke-width: 1.5"/>
     <use xlink:href="#m2904eca546" x="423.673206" y="716.318342" style="fill: #add8e6; fill-opacity: 0.8; stroke: #000000; stroke-opacity: 0.8; stroke-width: 1.5"/>
     <use xlink:href="#m2904eca546" x="383.404929" y="601.251097" style="fill: #add8e6; fill-opacity: 0.8; stroke: #000000; stroke-opacity: 0.8; stroke-width: 1.5"/>
     <use xlink:href="#m2904eca546" x="1086.218182" y="624.045474" style="fill: #add8e6; fill-opacity: 0.8; stroke: #000000; stroke-opacity: 0.8; stroke-width: 1.5"/>
    </g>
   </g>
   <g id="text_1">
    <g clip-path="url(#p6d3b38b535)">
     <!-- ABA4 -->
     <g transform="translate(556.216947 952.206776) scale(0.12 -0.12)">
      <defs>
       <path id="DejaVuSans-Bold-41" d="M 3419 850 
L 1538 850 
L 1241 0 
L 31 0 
L 1759 4666 
L 3194 4666 
L 4922 0 
L 3713 0 
L 3419 850 
z
M 1838 1716 
L 3116 1716 
L 2478 3572 
L 1838 1716 
z
" transform="scale(0.015625)"/>
       <path id="DejaVuSans-Bold-42" d="M 2456 2859 
Q 2741 2859 2887 2984 
Q 3034 3109 3034 3353 
Q 3034 3594 2887 3720 
Q 2741 3847 2456 3847 
L 1791 3847 
L 1791 2859 
L 2456 2859 
z
M 2497 819 
Q 2859 819 3042 972 
Q 3225 1125 3225 1434 
Q 3225 1738 3044 1889 
Q 2863 2041 2497 2041 
L 1791 2041 
L 1791 819 
L 2497 819 
z
M 3616 2497 
Q 4003 2384 4215 2081 
Q 4428 1778 4428 1338 
Q 4428 663 3972 331 
Q 3516 0 2584 0 
L 588 0 
L 588 4666 
L 2394 4666 
Q 3366 4666 3802 4372 
Q 4238 4078 4238 3431 
Q 4238 3091 4078 2852 
Q 3919 2613 3616 2497 
z
" transform="scale(0.015625)"/>
       <path id="DejaVuSans-Bold-34" d="M 2356 3675 
L 1038 1722 
L 2356 1722 
L 2356 3675 
z
M 2156 4666 
L 3494 4666 
L 3494 1722 
L 4159 1722 
L 4159 850 
L 3494 850 
L 3494 0 
L 2356 0 
L 2356 850 
L 288 850 
L 288 1881 
L 2156 4666 
z
" transform="scale(0.015625)"/>
      </defs>
      <use xlink:href="#DejaVuSans-Bold-41"/>
      <use xlink:href="#DejaVuSans-Bold-42" transform="translate(77.392578 0)"/>
      <use xlink:href="#DejaVuSans-Bold-41" transform="translate(153.613281 0)"/>
      <use xlink:href="#DejaVuSans-Bold-34" transform="translate(231.005859 0)"/>
     </g>
    </g>
   </g>
   <g id="text_2">
    <g clip-path="url(#p6d3b38b535)">
     <!-- HB6 -->
     <g transform="translate(642.513885 224.440044) scale(0.12 -0.12)">
      <defs>
       <path id="DejaVuSans-Bold-48" d="M 588 4666 
L 1791 4666 
L 1791 2888 
L 3566 2888 
L 3566 4666 
L 4769 4666 
L 4769 0 
L 3566 0 
L 3566 1978 
L 1791 1978 
L 1791 0 
L 588 0 
L 588 4666 
z
" transform="scale(0.015625)"/>
       <path id="DejaVuSans-Bold-36" d="M 2316 2303 
Q 2000 2303 1842 2098 
Q 1684 1894 1684 1484 
Q 1684 1075 1842 870 
Q 2000 666 2316 666 
Q 2634 666 2792 870 
Q 2950 1075 2950 1484 
Q 2950 1894 2792 2098 
Q 2634 2303 2316 2303 
z
M 3803 4544 
L 3803 3681 
Q 3506 3822 3243 3889 
Q 2981 3956 2731 3956 
Q 2194 3956 1894 3657 
Q 1594 3359 1544 2772 
Q 1750 2925 1990 3001 
Q 2231 3078 2516 3078 
Q 3231 3078 3670 2659 
Q 4109 2241 4109 1563 
Q 4109 813 3618 361 
Q 3128 -91 2303 -91 
Q 1394 -91 895 523 
Q 397 1138 397 2266 
Q 397 3422 980 4083 
Q 1563 4744 2578 4744 
Q 2900 4744 3203 4694 
Q 3506 4644 3803 4544 
z
" transform="scale(0.015625)"/>
      </defs>
      <use xlink:href="#DejaVuSans-Bold-48"/>
      <use xlink:href="#DejaVuSans-Bold-42" transform="translate(83.691406 0)"/>
      <use xlink:href="#DejaVuSans-Bold-36" transform="translate(159.912109 0)"/>
     </g>
    </g>
   </g>
   <g id="text_3">
    <g clip-path="url(#p6d3b38b535)">
     <!-- HB5 -->
     <g transform="translate(844.772818 73.370412) scale(0.12 -0.12)">
      <defs>
       <path id="DejaVuSans-Bold-35" d="M 678 4666 
L 3669 4666 
L 3669 3781 
L 1638 3781 
L 1638 3059 
Q 1775 3097 1914 3117 
Q 2053 3138 2203 3138 
Q 3056 3138 3531 2711 
Q 4006 2284 4006 1522 
Q 4006 766 3489 337 
Q 2972 -91 2053 -91 
Q 1656 -91 1267 -14 
Q 878 63 494 219 
L 494 1166 
Q 875 947 1217 837 
Q 1559 728 1863 728 
Q 2300 728 2551 942 
Q 2803 1156 2803 1522 
Q 2803 1891 2551 2103 
Q 2300 2316 1863 2316 
Q 1603 2316 1309 2248 
Q 1016 2181 678 2041 
L 678 4666 
z
" transform="scale(0.015625)"/>
      </defs>
      <use xlink:href="#DejaVuSans-Bold-48"/>
      <use xlink:href="#DejaVuSans-Bold-42" transform="translate(83.691406 0)"/>
      <use xlink:href="#DejaVuSans-Bold-35" transform="translate(159.912109 0)"/>
     </g>
    </g>
   </g>
   <g id="text_4">
    <g clip-path="url(#p6d3b38b535)">
     <!-- PP2C5 -->
     <g transform="translate(112.237279 765.381179) scale(0.12 -0.12)">
      <defs>
       <path id="DejaVuSans-Bold-50" d="M 588 4666 
L 2584 4666 
Q 3475 4666 3951 4270 
Q 4428 3875 4428 3144 
Q 4428 2409 3951 2014 
Q 3475 1619 2584 1619 
L 1791 1619 
L 1791 0 
L 588 0 
L 588 4666 
z
M 1791 3794 
L 1791 2491 
L 2456 2491 
Q 2806 2491 2997 2661 
Q 3188 2831 3188 3144 
Q 3188 3456 2997 3625 
Q 2806 3794 2456 3794 
L 1791 3794 
z
" transform="scale(0.015625)"/>
       <path id="DejaVuSans-Bold-32" d="M 1844 884 
L 3897 884 
L 3897 0 
L 506 0 
L 506 884 
L 2209 2388 
Q 2438 2594 2547 2791 
Q 2656 2988 2656 3200 
Q 2656 3528 2436 3728 
Q 2216 3928 1850 3928 
Q 1569 3928 1234 3808 
Q 900 3688 519 3450 
L 519 4475 
Q 925 4609 1322 4679 
Q 1719 4750 2100 4750 
Q 2938 4750 3402 4381 
Q 3866 4013 3866 3353 
Q 3866 2972 3669 2642 
Q 3472 2313 2841 1759 
L 1844 884 
z
" transform="scale(0.015625)"/>
       <path id="DejaVuSans-Bold-43" d="M 4288 256 
Q 3956 84 3597 -3 
Q 3238 -91 2847 -91 
Q 1681 -91 1000 561 
Q 319 1213 319 2328 
Q 319 3447 1000 4098 
Q 1681 4750 2847 4750 
Q 3238 4750 3597 4662 
Q 3956 4575 4288 4403 
L 4288 3438 
Q 3953 3666 3628 3772 
Q 3303 3878 2944 3878 
Q 2300 3878 1931 3465 
Q 1563 3053 1563 2328 
Q 1563 1606 1931 1193 
Q 2300 781 2944 781 
Q 3303 781 3628 887 
Q 3953 994 4288 1222 
L 4288 256 
z
" transform="scale(0.015625)"/>
      </defs>
      <use xlink:href="#DejaVuSans-Bold-50"/>
      <use xlink:href="#DejaVuSans-Bold-50" transform="translate(73.291016 0)"/>
      <use xlink:href="#DejaVuSans-Bold-32" transform="translate(146.582031 0)"/>
      <use xlink:href="#DejaVuSans-Bold-43" transform="translate(216.162109 0)"/>
      <use xlink:href="#DejaVuSans-Bold-35" transform="translate(289.550781 0)"/>
     </g>
    </g>
   </g>
   <g id="text_5">
    <g clip-path="url(#p6d3b38b535)">
     <!-- MYB44 -->
     <g transform="translate(684.26951 650.21909) scale(0.12 -0.12)">
      <defs>
       <path id="DejaVuSans-Bold-4d" d="M 588 4666 
L 2119 4666 
L 3181 2169 
L 4250 4666 
L 5778 4666 
L 5778 0 
L 4641 0 
L 4641 3413 
L 3566 897 
L 2803 897 
L 1728 3413 
L 1728 0 
L 588 0 
L 588 4666 
z
" transform="scale(0.015625)"/>
       <path id="DejaVuSans-Bold-59" d="M -63 4666 
L 1253 4666 
L 2316 3003 
L 3378 4666 
L 4697 4666 
L 2919 1966 
L 2919 0 
L 1716 0 
L 1716 1966 
L -63 4666 
z
" transform="scale(0.015625)"/>
      </defs>
      <use xlink:href="#DejaVuSans-Bold-4d"/>
      <use xlink:href="#DejaVuSans-Bold-59" transform="translate(99.511719 0)"/>
      <use xlink:href="#DejaVuSans-Bold-42" transform="translate(171.923828 0)"/>
      <use xlink:href="#DejaVuSans-Bold-34" transform="translate(248.144531 0)"/>
      <use xlink:href="#DejaVuSans-Bold-34" transform="translate(317.724609 0)"/>
     </g>
    </g>
   </g>
   <g id="text_6">
    <g clip-path="url(#p6d3b38b535)">
     <!-- FBH3 -->
     <g transform="translate(338.833853 619.937801) scale(0.12 -0.12)">
      <defs>
       <path id="DejaVuSans-Bold-46" d="M 588 4666 
L 3834 4666 
L 3834 3756 
L 1791 3756 
L 1791 2888 
L 3713 2888 
L 3713 1978 
L 1791 1978 
L 1791 0 
L 588 0 
L 588 4666 
z
" transform="scale(0.015625)"/>
       <path id="DejaVuSans-Bold-33" d="M 2981 2516 
Q 3453 2394 3698 2092 
Q 3944 1791 3944 1325 
Q 3944 631 3412 270 
Q 2881 -91 1863 -91 
Q 1503 -91 1142 -33 
Q 781 25 428 141 
L 428 1069 
Q 766 900 1098 814 
Q 1431 728 1753 728 
Q 2231 728 2486 893 
Q 2741 1059 2741 1369 
Q 2741 1688 2480 1852 
Q 2219 2016 1709 2016 
L 1228 2016 
L 1228 2791 
L 1734 2791 
Q 2188 2791 2409 2933 
Q 2631 3075 2631 3366 
Q 2631 3634 2415 3781 
Q 2200 3928 1806 3928 
Q 1516 3928 1219 3862 
Q 922 3797 628 3669 
L 628 4550 
Q 984 4650 1334 4700 
Q 1684 4750 2022 4750 
Q 2931 4750 3382 4451 
Q 3834 4153 3834 3553 
Q 3834 3144 3618 2883 
Q 3403 2622 2981 2516 
z
" transform="scale(0.015625)"/>
      </defs>
      <use xlink:href="#DejaVuSans-Bold-46"/>
      <use xlink:href="#DejaVuSans-Bold-42" transform="translate(68.310547 0)"/>
      <use xlink:href="#DejaVuSans-Bold-48" transform="translate(144.53125 0)"/>
      <use xlink:href="#DejaVuSans-Bold-33" transform="translate(228.222656 0)"/>
     </g>
    </g>
   </g>
   <g id="text_7">
    <g clip-path="url(#p6d3b38b535)">
     <!-- ABF4 -->
     <g transform="translate(412.530251 315.029271) scale(0.12 -0.12)">
      <use xlink:href="#DejaVuSans-Bold-41"/>
      <use xlink:href="#DejaVuSans-Bold-42" transform="translate(77.392578 0)"/>
      <use xlink:href="#DejaVuSans-Bold-46" transform="translate(153.613281 0)"/>
      <use xlink:href="#DejaVuSans-Bold-34" transform="translate(221.923828 0)"/>
     </g>
    </g>
   </g>
   <g id="text_8">
    <g clip-path="url(#p6d3b38b535)">
     <!-- HB7 -->
     <g transform="translate(498.072804 808.6694) scale(0.12 -0.12)">
      <defs>
       <path id="DejaVuSans-Bold-37" d="M 428 4666 
L 3944 4666 
L 3944 3988 
L 2125 0 
L 953 0 
L 2675 3781 
L 428 3781 
L 428 4666 
z
" transform="scale(0.015625)"/>
      </defs>
      <use xlink:href="#DejaVuSans-Bold-48"/>
      <use xlink:href="#DejaVuSans-Bold-42" transform="translate(83.691406 0)"/>
      <use xlink:href="#DejaVuSans-Bold-37" transform="translate(159.912109 0)"/>
     </g>
    </g>
   </g>
   <g id="text_9">
    <g clip-path="url(#p6d3b38b535)">
     <!-- ABCG31 -->
     <g transform="translate(31.687756 425.378142) scale(0.12 -0.12)">
      <defs>
       <path id="DejaVuSans-Bold-47" d="M 4781 347 
Q 4331 128 3847 18 
Q 3363 -91 2847 -91 
Q 1681 -91 1000 561 
Q 319 1213 319 2328 
Q 319 3456 1012 4103 
Q 1706 4750 2913 4750 
Q 3378 4750 3804 4662 
Q 4231 4575 4609 4403 
L 4609 3438 
Q 4219 3659 3833 3768 
Q 3447 3878 3059 3878 
Q 2341 3878 1952 3476 
Q 1563 3075 1563 2328 
Q 1563 1588 1938 1184 
Q 2313 781 3003 781 
Q 3191 781 3352 804 
Q 3513 828 3641 878 
L 3641 1784 
L 2906 1784 
L 2906 2591 
L 4781 2591 
L 4781 347 
z
" transform="scale(0.015625)"/>
       <path id="DejaVuSans-Bold-31" d="M 750 831 
L 1813 831 
L 1813 3847 
L 722 3622 
L 722 4441 
L 1806 4666 
L 2950 4666 
L 2950 831 
L 4013 831 
L 4013 0 
L 750 0 
L 750 831 
z
" transform="scale(0.015625)"/>
      </defs>
      <use xlink:href="#DejaVuSans-Bold-41"/>
      <use xlink:href="#DejaVuSans-Bold-42" transform="translate(77.392578 0)"/>
      <use xlink:href="#DejaVuSans-Bold-43" transform="translate(153.613281 0)"/>
      <use xlink:href="#DejaVuSans-Bold-47" transform="translate(227.001953 0)"/>
      <use xlink:href="#DejaVuSans-Bold-33" transform="translate(309.082031 0)"/>
      <use xlink:href="#DejaVuSans-Bold-31" transform="translate(378.662109 0)"/>
     </g>
    </g>
   </g>
   <g id="text_10">
    <g clip-path="url(#p6d3b38b535)">
     <!-- ABF3 -->
     <g transform="translate(750.905481 479.365012) scale(0.12 -0.12)">
      <use xlink:href="#DejaVuSans-Bold-41"/>
      <use xlink:href="#DejaVuSans-Bold-42" transform="translate(77.392578 0)"/>
      <use xlink:href="#DejaVuSans-Bold-46" transform="translate(153.613281 0)"/>
      <use xlink:href="#DejaVuSans-Bold-33" transform="translate(221.923828 0)"/>
     </g>
    </g>
   </g>
   <g id="text_11">
    <g clip-path="url(#p6d3b38b535)">
     <!-- CYP707A3 -->
     <g transform="translate(389.185393 719.629592) scale(0.12 -0.12)">
      <defs>
       <path id="DejaVuSans-Bold-30" d="M 2944 2338 
Q 2944 3213 2780 3570 
Q 2616 3928 2228 3928 
Q 1841 3928 1675 3570 
Q 1509 3213 1509 2338 
Q 1509 1453 1675 1090 
Q 1841 728 2228 728 
Q 2613 728 2778 1090 
Q 2944 1453 2944 2338 
z
M 4147 2328 
Q 4147 1169 3647 539 
Q 3147 -91 2228 -91 
Q 1306 -91 806 539 
Q 306 1169 306 2328 
Q 306 3491 806 4120 
Q 1306 4750 2228 4750 
Q 3147 4750 3647 4120 
Q 4147 3491 4147 2328 
z
" transform="scale(0.015625)"/>
      </defs>
      <use xlink:href="#DejaVuSans-Bold-43"/>
      <use xlink:href="#DejaVuSans-Bold-59" transform="translate(73.388672 0)"/>
      <use xlink:href="#DejaVuSans-Bold-50" transform="translate(145.800781 0)"/>
      <use xlink:href="#DejaVuSans-Bold-37" transform="translate(219.091797 0)"/>
      <use xlink:href="#DejaVuSans-Bold-30" transform="translate(288.671875 0)"/>
      <use xlink:href="#DejaVuSans-Bold-37" transform="translate(358.251953 0)"/>
      <use xlink:href="#DejaVuSans-Bold-41" transform="translate(427.832031 0)"/>
      <use xlink:href="#DejaVuSans-Bold-33" transform="translate(505.224609 0)"/>
     </g>
    </g>
   </g>
   <g id="text_12">
    <g clip-path="url(#p6d3b38b535)">
     <!-- DREB2A -->
     <g transform="translate(356.313991 604.562347) scale(0.12 -0.12)">
      <defs>
       <path id="DejaVuSans-Bold-44" d="M 1791 3756 
L 1791 909 
L 2222 909 
Q 2959 909 3348 1275 
Q 3738 1641 3738 2338 
Q 3738 3031 3350 3393 
Q 2963 3756 2222 3756 
L 1791 3756 
z
M 588 4666 
L 1856 4666 
Q 2919 4666 3439 4514 
Q 3959 4363 4331 4000 
Q 4659 3684 4818 3271 
Q 4978 2859 4978 2338 
Q 4978 1809 4818 1395 
Q 4659 981 4331 666 
Q 3956 303 3431 151 
Q 2906 0 1856 0 
L 588 0 
L 588 4666 
z
" transform="scale(0.015625)"/>
       <path id="DejaVuSans-Bold-52" d="M 2297 2597 
Q 2675 2597 2839 2737 
Q 3003 2878 3003 3200 
Q 3003 3519 2839 3656 
Q 2675 3794 2297 3794 
L 1791 3794 
L 1791 2597 
L 2297 2597 
z
M 1791 1766 
L 1791 0 
L 588 0 
L 588 4666 
L 2425 4666 
Q 3347 4666 3776 4356 
Q 4206 4047 4206 3378 
Q 4206 2916 3982 2619 
Q 3759 2322 3309 2181 
Q 3556 2125 3751 1926 
Q 3947 1728 4147 1325 
L 4800 0 
L 3519 0 
L 2950 1159 
Q 2778 1509 2601 1637 
Q 2425 1766 2131 1766 
L 1791 1766 
z
" transform="scale(0.015625)"/>
       <path id="DejaVuSans-Bold-45" d="M 588 4666 
L 3834 4666 
L 3834 3756 
L 1791 3756 
L 1791 2888 
L 3713 2888 
L 3713 1978 
L 1791 1978 
L 1791 909 
L 3903 909 
L 3903 0 
L 588 0 
L 588 4666 
z
" transform="scale(0.015625)"/>
      </defs>
      <use xlink:href="#DejaVuSans-Bold-44"/>
      <use xlink:href="#DejaVuSans-Bold-52" transform="translate(83.007812 0)"/>
      <use xlink:href="#DejaVuSans-Bold-45" transform="translate(160.009766 0)"/>
      <use xlink:href="#DejaVuSans-Bold-42" transform="translate(228.320312 0)"/>
      <use xlink:href="#DejaVuSans-Bold-32" transform="translate(304.541016 0)"/>
      <use xlink:href="#DejaVuSans-Bold-41" transform="translate(374.121094 0)"/>
     </g>
    </g>
   </g>
   <g id="text_13">
    <g clip-path="url(#p6d3b38b535)">
     <!-- ZAT6 -->
     <g transform="translate(1069.420994 627.356724) scale(0.12 -0.12)">
      <defs>
       <path id="DejaVuSans-Bold-5a" d="M 359 4666 
L 4281 4666 
L 4281 3938 
L 1778 909 
L 4353 909 
L 4353 0 
L 288 0 
L 288 728 
L 2791 3756 
L 359 3756 
L 359 4666 
z
" transform="scale(0.015625)"/>
       <path id="DejaVuSans-Bold-54" d="M 31 4666 
L 4331 4666 
L 4331 3756 
L 2784 3756 
L 2784 0 
L 1581 0 
L 1581 3756 
L 31 3756 
L 31 4666 
z
" transform="scale(0.015625)"/>
      </defs>
      <use xlink:href="#DejaVuSans-Bold-5a"/>
      <use xlink:href="#DejaVuSans-Bold-41" transform="translate(72.509766 0)"/>
      <use xlink:href="#DejaVuSans-Bold-54" transform="translate(142.152344 0)"/>
      <use xlink:href="#DejaVuSans-Bold-36" transform="translate(210.365234 0)"/>
     </g>
    </g>
   </g>
   <g id="text_14">
    <!-- Boolean Gene Regulatory Network -->
    <g transform="translate(407.130781 20.117344) scale(0.17 -0.17)">
     <defs>
      <path id="DejaVuSans-Bold-6f" d="M 2203 2784 
Q 1831 2784 1636 2517 
Q 1441 2250 1441 1747 
Q 1441 1244 1636 976 
Q 1831 709 2203 709 
Q 2569 709 2762 976 
Q 2956 1244 2956 1747 
Q 2956 2250 2762 2517 
Q 2569 2784 2203 2784 
z
M 2203 3584 
Q 3106 3584 3614 3096 
Q 4122 2609 4122 1747 
Q 4122 884 3614 396 
Q 3106 -91 2203 -91 
Q 1297 -91 786 396 
Q 275 884 275 1747 
Q 275 2609 786 3096 
Q 1297 3584 2203 3584 
z
" transform="scale(0.015625)"/>
      <path id="DejaVuSans-Bold-6c" d="M 538 4863 
L 1656 4863 
L 1656 0 
L 538 0 
L 538 4863 
z
" transform="scale(0.015625)"/>
      <path id="DejaVuSans-Bold-65" d="M 4031 1759 
L 4031 1441 
L 1416 1441 
Q 1456 1047 1700 850 
Q 1944 653 2381 653 
Q 2734 653 3104 758 
Q 3475 863 3866 1075 
L 3866 213 
Q 3469 63 3072 -14 
Q 2675 -91 2278 -91 
Q 1328 -91 801 392 
Q 275 875 275 1747 
Q 275 2603 792 3093 
Q 1309 3584 2216 3584 
Q 3041 3584 3536 3087 
Q 4031 2591 4031 1759 
z
M 2881 2131 
Q 2881 2450 2695 2645 
Q 2509 2841 2209 2841 
Q 1884 2841 1681 2658 
Q 1478 2475 1428 2131 
L 2881 2131 
z
" transform="scale(0.015625)"/>
      <path id="DejaVuSans-Bold-61" d="M 2106 1575 
Q 1756 1575 1579 1456 
Q 1403 1338 1403 1106 
Q 1403 894 1545 773 
Q 1688 653 1941 653 
Q 2256 653 2472 879 
Q 2688 1106 2688 1447 
L 2688 1575 
L 2106 1575 
z
M 3816 1997 
L 3816 0 
L 2688 0 
L 2688 519 
Q 2463 200 2181 54 
Q 1900 -91 1497 -91 
Q 953 -91 614 226 
Q 275 544 275 1050 
Q 275 1666 698 1953 
Q 1122 2241 2028 2241 
L 2688 2241 
L 2688 2328 
Q 2688 2594 2478 2717 
Q 2269 2841 1825 2841 
Q 1466 2841 1156 2769 
Q 847 2697 581 2553 
L 581 3406 
Q 941 3494 1303 3539 
Q 1666 3584 2028 3584 
Q 2975 3584 3395 3211 
Q 3816 2838 3816 1997 
z
" transform="scale(0.015625)"/>
      <path id="DejaVuSans-Bold-6e" d="M 4056 2131 
L 4056 0 
L 2931 0 
L 2931 347 
L 2931 1631 
Q 2931 2084 2911 2256 
Q 2891 2428 2841 2509 
Q 2775 2619 2662 2680 
Q 2550 2741 2406 2741 
Q 2056 2741 1856 2470 
Q 1656 2200 1656 1722 
L 1656 0 
L 538 0 
L 538 3500 
L 1656 3500 
L 1656 2988 
Q 1909 3294 2193 3439 
Q 2478 3584 2822 3584 
Q 3428 3584 3742 3212 
Q 4056 2841 4056 2131 
z
" transform="scale(0.015625)"/>
      <path id="DejaVuSans-Bold-20" transform="scale(0.015625)"/>
      <path id="DejaVuSans-Bold-67" d="M 2919 594 
Q 2688 288 2409 144 
Q 2131 0 1766 0 
Q 1125 0 706 504 
Q 288 1009 288 1791 
Q 288 2575 706 3076 
Q 1125 3578 1766 3578 
Q 2131 3578 2409 3434 
Q 2688 3291 2919 2981 
L 2919 3500 
L 4044 3500 
L 4044 353 
Q 4044 -491 3511 -936 
Q 2978 -1381 1966 -1381 
Q 1638 -1381 1331 -1331 
Q 1025 -1281 716 -1178 
L 716 -306 
Q 1009 -475 1290 -558 
Q 1572 -641 1856 -641 
Q 2406 -641 2662 -400 
Q 2919 -159 2919 353 
L 2919 594 
z
M 2181 2772 
Q 1834 2772 1640 2515 
Q 1447 2259 1447 1791 
Q 1447 1309 1634 1061 
Q 1822 813 2181 813 
Q 2531 813 2725 1069 
Q 2919 1325 2919 1791 
Q 2919 2259 2725 2515 
Q 2531 2772 2181 2772 
z
" transform="scale(0.015625)"/>
      <path id="DejaVuSans-Bold-75" d="M 500 1363 
L 500 3500 
L 1625 3500 
L 1625 3150 
Q 1625 2866 1622 2436 
Q 1619 2006 1619 1863 
Q 1619 1441 1641 1255 
Q 1663 1069 1716 984 
Q 1784 875 1895 815 
Q 2006 756 2150 756 
Q 2500 756 2700 1025 
Q 2900 1294 2900 1772 
L 2900 3500 
L 4019 3500 
L 4019 0 
L 2900 0 
L 2900 506 
Q 2647 200 2364 54 
Q 2081 -91 1741 -91 
Q 1134 -91 817 281 
Q 500 653 500 1363 
z
" transform="scale(0.015625)"/>
      <path id="DejaVuSans-Bold-74" d="M 1759 4494 
L 1759 3500 
L 2913 3500 
L 2913 2700 
L 1759 2700 
L 1759 1216 
Q 1759 972 1856 886 
Q 1953 800 2241 800 
L 2816 800 
L 2816 0 
L 1856 0 
Q 1194 0 917 276 
Q 641 553 641 1216 
L 641 2700 
L 84 2700 
L 84 3500 
L 641 3500 
L 641 4494 
L 1759 4494 
z
" transform="scale(0.015625)"/>
      <path id="DejaVuSans-Bold-72" d="M 3138 2547 
Q 2991 2616 2845 2648 
Q 2700 2681 2553 2681 
Q 2122 2681 1889 2404 
Q 1656 2128 1656 1613 
L 1656 0 
L 538 0 
L 538 3500 
L 1656 3500 
L 1656 2925 
Q 1872 3269 2151 3426 
Q 2431 3584 2822 3584 
Q 2878 3584 2943 3579 
Q 3009 3575 3134 3559 
L 3138 2547 
z
" transform="scale(0.015625)"/>
      <path id="DejaVuSans-Bold-79" d="M 78 3500 
L 1197 3500 
L 2138 1125 
L 2938 3500 
L 4056 3500 
L 2584 -331 
Q 2363 -916 2067 -1148 
Q 1772 -1381 1288 -1381 
L 641 -1381 
L 641 -647 
L 991 -647 
Q 1275 -647 1404 -556 
Q 1534 -466 1606 -231 
L 1638 -134 
L 78 3500 
z
" transform="scale(0.015625)"/>
      <path id="DejaVuSans-Bold-4e" d="M 588 4666 
L 1931 4666 
L 3628 1466 
L 3628 4666 
L 4769 4666 
L 4769 0 
L 3425 0 
L 1728 3200 
L 1728 0 
L 588 0 
L 588 4666 
z
" transform="scale(0.015625)"/>
      <path id="DejaVuSans-Bold-77" d="M 225 3500 
L 1313 3500 
L 1900 1088 
L 2491 3500 
L 3425 3500 
L 4013 1113 
L 4603 3500 
L 5691 3500 
L 4769 0 
L 3547 0 
L 2956 2406 
L 2369 0 
L 1147 0 
L 225 3500 
z
" transform="scale(0.015625)"/>
      <path id="DejaVuSans-Bold-6b" d="M 538 4863 
L 1656 4863 
L 1656 2216 
L 2944 3500 
L 4244 3500 
L 2534 1894 
L 4378 0 
L 3022 0 
L 1656 1459 
L 1656 0 
L 538 0 
L 538 4863 
z
" transform="scale(0.015625)"/>
     </defs>
     <use xlink:href="#DejaVuSans-Bold-42"/>
     <use xlink:href="#DejaVuSans-Bold-6f" transform="translate(76.220703 0)"/>
     <use xlink:href="#DejaVuSans-Bold-6f" transform="translate(144.921875 0)"/>
     <use xlink:href="#DejaVuSans-Bold-6c" transform="translate(213.623047 0)"/>
     <use xlink:href="#DejaVuSans-Bold-65" transform="translate(247.900391 0)"/>
     <use xlink:href="#DejaVuSans-Bold-61" transform="translate(315.722656 0)"/>
     <use xlink:href="#DejaVuSans-Bold-6e" transform="translate(383.203125 0)"/>
     <use xlink:href="#DejaVuSans-Bold-20" transform="translate(454.394531 0)"/>
     <use xlink:href="#DejaVuSans-Bold-47" transform="translate(489.208984 0)"/>
     <use xlink:href="#DejaVuSans-Bold-65" transform="translate(571.289062 0)"/>
     <use xlink:href="#DejaVuSans-Bold-6e" transform="translate(639.111328 0)"/>
     <use xlink:href="#DejaVuSans-Bold-65" transform="translate(710.302734 0)"/>
     <use xlink:href="#DejaVuSans-Bold-20" transform="translate(778.125 0)"/>
     <use xlink:href="#DejaVuSans-Bold-52" transform="translate(812.939453 0)"/>
     <use xlink:href="#DejaVuSans-Bold-65" transform="translate(889.941406 0)"/>
     <use xlink:href="#DejaVuSans-Bold-67" transform="translate(957.763672 0)"/>
     <use xlink:href="#DejaVuSans-Bold-75" transform="translate(1029.345703 0)"/>
     <use xlink:href="#DejaVuSans-Bold-6c" transform="translate(1100.537109 0)"/>
     <use xlink:href="#DejaVuSans-Bold-61" transform="translate(1134.814453 0)"/>
     <use xlink:href="#DejaVuSans-Bold-74" transform="translate(1202.294922 0)"/>
     <use xlink:href="#DejaVuSans-Bold-6f" transform="translate(1250.097656 0)"/>
     <use xlink:href="#DejaVuSans-Bold-72" transform="translate(1318.798828 0)"/>
     <use xlink:href="#DejaVuSans-Bold-79" transform="translate(1368.115234 0)"/>
     <use xlink:href="#DejaVuSans-Bold-20" transform="translate(1433.300781 0)"/>
     <use xlink:href="#DejaVuSans-Bold-4e" transform="translate(1468.115234 0)"/>
     <use xlink:href="#DejaVuSans-Bold-65" transform="translate(1551.806641 0)"/>
     <use xlink:href="#DejaVuSans-Bold-74" transform="translate(1619.628906 0)"/>
     <use xlink:href="#DejaVuSans-Bold-77" transform="translate(1667.431641 0)"/>
     <use xlink:href="#DejaVuSans-Bold-6f" transform="translate(1759.814453 0)"/>
     <use xlink:href="#DejaVuSans-Bold-72" transform="translate(1828.515625 0)"/>
     <use xlink:href="#DejaVuSans-Bold-6b" transform="translate(1877.832031 0)"/>
    </g>
   </g>
   <g id="legend_1">
    <g id="patch_30">
     <path d="M 963.990781 67.209219 
L 1129.9 67.209219 
Q 1132.1 67.209219 1132.1 65.009219 
L 1132.1 33.817344 
Q 1132.1 31.617344 1129.9 31.617344 
L 963.990781 31.617344 
Q 961.790781 31.617344 961.790781 33.817344 
L 961.790781 65.009219 
Q 961.790781 67.209219 963.990781 67.209219 
z
" style="fill: #ffffff; opacity: 0.8; stroke: #cccccc; stroke-linejoin: miter"/>
    </g>
    <g id="line2d_1">
     <path d="M 966.190781 40.525625 
L 977.190781 40.525625 
L 988.190781 40.525625 
" style="fill: none; stroke: #3690c0; stroke-width: 3; stroke-linecap: square"/>
    </g>
    <g id="text_15">
     <!-- Positive Regulation (22) -->
     <g transform="translate(996.990781 44.375625) scale(0.11 -0.11)">
      <defs>
       <path id="DejaVuSans-50" d="M 1259 4147 
L 1259 2394 
L 2053 2394 
Q 2494 2394 2734 2622 
Q 2975 2850 2975 3272 
Q 2975 3691 2734 3919 
Q 2494 4147 2053 4147 
L 1259 4147 
z
M 628 4666 
L 2053 4666 
Q 2838 4666 3239 4311 
Q 3641 3956 3641 3272 
Q 3641 2581 3239 2228 
Q 2838 1875 2053 1875 
L 1259 1875 
L 1259 0 
L 628 0 
L 628 4666 
z
" transform="scale(0.015625)"/>
       <path id="DejaVuSans-6f" d="M 1959 3097 
Q 1497 3097 1228 2736 
Q 959 2375 959 1747 
Q 959 1119 1226 758 
Q 1494 397 1959 397 
Q 2419 397 2687 759 
Q 2956 1122 2956 1747 
Q 2956 2369 2687 2733 
Q 2419 3097 1959 3097 
z
M 1959 3584 
Q 2709 3584 3137 3096 
Q 3566 2609 3566 1747 
Q 3566 888 3137 398 
Q 2709 -91 1959 -91 
Q 1206 -91 779 398 
Q 353 888 353 1747 
Q 353 2609 779 3096 
Q 1206 3584 1959 3584 
z
" transform="scale(0.015625)"/>
       <path id="DejaVuSans-73" d="M 2834 3397 
L 2834 2853 
Q 2591 2978 2328 3040 
Q 2066 3103 1784 3103 
Q 1356 3103 1142 2972 
Q 928 2841 928 2578 
Q 928 2378 1081 2264 
Q 1234 2150 1697 2047 
L 1894 2003 
Q 2506 1872 2764 1633 
Q 3022 1394 3022 966 
Q 3022 478 2636 193 
Q 2250 -91 1575 -91 
Q 1294 -91 989 -36 
Q 684 19 347 128 
L 347 722 
Q 666 556 975 473 
Q 1284 391 1588 391 
Q 1994 391 2212 530 
Q 2431 669 2431 922 
Q 2431 1156 2273 1281 
Q 2116 1406 1581 1522 
L 1381 1569 
Q 847 1681 609 1914 
Q 372 2147 372 2553 
Q 372 3047 722 3315 
Q 1072 3584 1716 3584 
Q 2034 3584 2315 3537 
Q 2597 3491 2834 3397 
z
" transform="scale(0.015625)"/>
       <path id="DejaVuSans-69" d="M 603 3500 
L 1178 3500 
L 1178 0 
L 603 0 
L 603 3500 
z
M 603 4863 
L 1178 4863 
L 1178 4134 
L 603 4134 
L 603 4863 
z
" transform="scale(0.015625)"/>
       <path id="DejaVuSans-74" d="M 1172 4494 
L 1172 3500 
L 2356 3500 
L 2356 3053 
L 1172 3053 
L 1172 1153 
Q 1172 725 1289 603 
Q 1406 481 1766 481 
L 2356 481 
L 2356 0 
L 1766 0 
Q 1100 0 847 248 
Q 594 497 594 1153 
L 594 3053 
L 172 3053 
L 172 3500 
L 594 3500 
L 594 4494 
L 1172 4494 
z
" transform="scale(0.015625)"/>
       <path id="DejaVuSans-76" d="M 191 3500 
L 800 3500 
L 1894 563 
L 2988 3500 
L 3597 3500 
L 2284 0 
L 1503 0 
L 191 3500 
z
" transform="scale(0.015625)"/>
       <path id="DejaVuSans-65" d="M 3597 1894 
L 3597 1613 
L 953 1613 
Q 991 1019 1311 708 
Q 1631 397 2203 397 
Q 2534 397 2845 478 
Q 3156 559 3463 722 
L 3463 178 
Q 3153 47 2828 -22 
Q 2503 -91 2169 -91 
Q 1331 -91 842 396 
Q 353 884 353 1716 
Q 353 2575 817 3079 
Q 1281 3584 2069 3584 
Q 2775 3584 3186 3129 
Q 3597 2675 3597 1894 
z
M 3022 2063 
Q 3016 2534 2758 2815 
Q 2500 3097 2075 3097 
Q 1594 3097 1305 2825 
Q 1016 2553 972 2059 
L 3022 2063 
z
" transform="scale(0.015625)"/>
       <path id="DejaVuSans-20" transform="scale(0.015625)"/>
       <path id="DejaVuSans-52" d="M 2841 2188 
Q 3044 2119 3236 1894 
Q 3428 1669 3622 1275 
L 4263 0 
L 3584 0 
L 2988 1197 
Q 2756 1666 2539 1819 
Q 2322 1972 1947 1972 
L 1259 1972 
L 1259 0 
L 628 0 
L 628 4666 
L 2053 4666 
Q 2853 4666 3247 4331 
Q 3641 3997 3641 3322 
Q 3641 2881 3436 2590 
Q 3231 2300 2841 2188 
z
M 1259 4147 
L 1259 2491 
L 2053 2491 
Q 2509 2491 2742 2702 
Q 2975 2913 2975 3322 
Q 2975 3731 2742 3939 
Q 2509 4147 2053 4147 
L 1259 4147 
z
" transform="scale(0.015625)"/>
       <path id="DejaVuSans-67" d="M 2906 1791 
Q 2906 2416 2648 2759 
Q 2391 3103 1925 3103 
Q 1463 3103 1205 2759 
Q 947 2416 947 1791 
Q 947 1169 1205 825 
Q 1463 481 1925 481 
Q 2391 481 2648 825 
Q 2906 1169 2906 1791 
z
M 3481 434 
Q 3481 -459 3084 -895 
Q 2688 -1331 1869 -1331 
Q 1566 -1331 1297 -1286 
Q 1028 -1241 775 -1147 
L 775 -588 
Q 1028 -725 1275 -790 
Q 1522 -856 1778 -856 
Q 2344 -856 2625 -561 
Q 2906 -266 2906 331 
L 2906 616 
Q 2728 306 2450 153 
Q 2172 0 1784 0 
Q 1141 0 747 490 
Q 353 981 353 1791 
Q 353 2603 747 3093 
Q 1141 3584 1784 3584 
Q 2172 3584 2450 3431 
Q 2728 3278 2906 2969 
L 2906 3500 
L 3481 3500 
L 3481 434 
z
" transform="scale(0.015625)"/>
       <path id="DejaVuSans-75" d="M 544 1381 
L 544 3500 
L 1119 3500 
L 1119 1403 
Q 1119 906 1312 657 
Q 1506 409 1894 409 
Q 2359 409 2629 706 
Q 2900 1003 2900 1516 
L 2900 3500 
L 3475 3500 
L 3475 0 
L 2900 0 
L 2900 538 
Q 2691 219 2414 64 
Q 2138 -91 1772 -91 
Q 1169 -91 856 284 
Q 544 659 544 1381 
z
M 1991 3584 
L 1991 3584 
z
" transform="scale(0.015625)"/>
       <path id="DejaVuSans-6c" d="M 603 4863 
L 1178 4863 
L 1178 0 
L 603 0 
L 603 4863 
z
" transform="scale(0.015625)"/>
       <path id="DejaVuSans-61" d="M 2194 1759 
Q 1497 1759 1228 1600 
Q 959 1441 959 1056 
Q 959 750 1161 570 
Q 1363 391 1709 391 
Q 2188 391 2477 730 
Q 2766 1069 2766 1631 
L 2766 1759 
L 2194 1759 
z
M 3341 1997 
L 3341 0 
L 2766 0 
L 2766 531 
Q 2569 213 2275 61 
Q 1981 -91 1556 -91 
Q 1019 -91 701 211 
Q 384 513 384 1019 
Q 384 1609 779 1909 
Q 1175 2209 1959 2209 
L 2766 2209 
L 2766 2266 
Q 2766 2663 2505 2880 
Q 2244 3097 1772 3097 
Q 1472 3097 1187 3025 
Q 903 2953 641 2809 
L 641 3341 
Q 956 3463 1253 3523 
Q 1550 3584 1831 3584 
Q 2591 3584 2966 3190 
Q 3341 2797 3341 1997 
z
" transform="scale(0.015625)"/>
       <path id="DejaVuSans-6e" d="M 3513 2113 
L 3513 0 
L 2938 0 
L 2938 2094 
Q 2938 2591 2744 2837 
Q 2550 3084 2163 3084 
Q 1697 3084 1428 2787 
Q 1159 2491 1159 1978 
L 1159 0 
L 581 0 
L 581 3500 
L 1159 3500 
L 1159 2956 
Q 1366 3272 1645 3428 
Q 1925 3584 2291 3584 
Q 2894 3584 3203 3211 
Q 3513 2838 3513 2113 
z
" transform="scale(0.015625)"/>
       <path id="DejaVuSans-28" d="M 1984 4856 
Q 1566 4138 1362 3434 
Q 1159 2731 1159 2009 
Q 1159 1288 1364 580 
Q 1569 -128 1984 -844 
L 1484 -844 
Q 1016 -109 783 600 
Q 550 1309 550 2009 
Q 550 2706 781 3412 
Q 1013 4119 1484 4856 
L 1984 4856 
z
" transform="scale(0.015625)"/>
       <path id="DejaVuSans-32" d="M 1228 531 
L 3431 531 
L 3431 0 
L 469 0 
L 469 531 
Q 828 903 1448 1529 
Q 2069 2156 2228 2338 
Q 2531 2678 2651 2914 
Q 2772 3150 2772 3378 
Q 2772 3750 2511 3984 
Q 2250 4219 1831 4219 
Q 1534 4219 1204 4116 
Q 875 4013 500 3803 
L 500 4441 
Q 881 4594 1212 4672 
Q 1544 4750 1819 4750 
Q 2544 4750 2975 4387 
Q 3406 4025 3406 3419 
Q 3406 3131 3298 2873 
Q 3191 2616 2906 2266 
Q 2828 2175 2409 1742 
Q 1991 1309 1228 531 
z
" transform="scale(0.015625)"/>
       <path id="DejaVuSans-29" d="M 513 4856 
L 1013 4856 
Q 1481 4119 1714 3412 
Q 1947 2706 1947 2009 
Q 1947 1309 1714 600 
Q 1481 -109 1013 -844 
L 513 -844 
Q 928 -128 1133 580 
Q 1338 1288 1338 2009 
Q 1338 2731 1133 3434 
Q 928 4138 513 4856 
z
" transform="scale(0.015625)"/>
      </defs>
      <use xlink:href="#DejaVuSans-50"/>
      <use xlink:href="#DejaVuSans-6f" transform="translate(56.677734 0)"/>
      <use xlink:href="#DejaVuSans-73" transform="translate(117.859375 0)"/>
      <use xlink:href="#DejaVuSans-69" transform="translate(169.958984 0)"/>
      <use xlink:href="#DejaVuSans-74" transform="translate(197.742188 0)"/>
      <use xlink:href="#DejaVuSans-69" transform="translate(236.951172 0)"/>
      <use xlink:href="#DejaVuSans-76" transform="translate(264.734375 0)"/>
      <use xlink:href="#DejaVuSans-65" transform="translate(323.914062 0)"/>
      <use xlink:href="#DejaVuSans-20" transform="translate(385.4375 0)"/>
      <use xlink:href="#DejaVuSans-52" transform="translate(417.224609 0)"/>
      <use xlink:href="#DejaVuSans-65" transform="translate(482.207031 0)"/>
      <use xlink:href="#DejaVuSans-67" transform="translate(543.730469 0)"/>
      <use xlink:href="#DejaVuSans-75" transform="translate(607.207031 0)"/>
      <use xlink:href="#DejaVuSans-6c" transform="translate(670.585938 0)"/>
      <use xlink:href="#DejaVuSans-61" transform="translate(698.369141 0)"/>
      <use xlink:href="#DejaVuSans-74" transform="translate(759.648438 0)"/>
      <use xlink:href="#DejaVuSans-69" transform="translate(798.857422 0)"/>
      <use xlink:href="#DejaVuSans-6f" transform="translate(826.640625 0)"/>
      <use xlink:href="#DejaVuSans-6e" transform="translate(887.822266 0)"/>
      <use xlink:href="#DejaVuSans-20" transform="translate(951.201172 0)"/>
      <use xlink:href="#DejaVuSans-28" transform="translate(982.988281 0)"/>
      <use xlink:href="#DejaVuSans-32" transform="translate(1022.001953 0)"/>
      <use xlink:href="#DejaVuSans-32" transform="translate(1085.625 0)"/>
      <use xlink:href="#DejaVuSans-29" transform="translate(1149.248047 0)"/>
     </g>
    </g>
    <g id="line2d_2">
     <path d="M 966.190781 56.671562 
L 977.190781 56.671562 
L 988.190781 56.671562 
" style="fill: none; stroke: #d7301f; stroke-width: 3; stroke-linecap: square"/>
    </g>
    <g id="text_16">
     <!-- Negative Regulation (6) -->
     <g transform="translate(996.990781 60.521562) scale(0.11 -0.11)">
      <defs>
       <path id="DejaVuSans-4e" d="M 628 4666 
L 1478 4666 
L 3547 763 
L 3547 4666 
L 4159 4666 
L 4159 0 
L 3309 0 
L 1241 3903 
L 1241 0 
L 628 0 
L 628 4666 
z
" transform="scale(0.015625)"/>
       <path id="DejaVuSans-36" d="M 2113 2584 
Q 1688 2584 1439 2293 
Q 1191 2003 1191 1497 
Q 1191 994 1439 701 
Q 1688 409 2113 409 
Q 2538 409 2786 701 
Q 3034 994 3034 1497 
Q 3034 2003 2786 2293 
Q 2538 2584 2113 2584 
z
M 3366 4563 
L 3366 3988 
Q 3128 4100 2886 4159 
Q 2644 4219 2406 4219 
Q 1781 4219 1451 3797 
Q 1122 3375 1075 2522 
Q 1259 2794 1537 2939 
Q 1816 3084 2150 3084 
Q 2853 3084 3261 2657 
Q 3669 2231 3669 1497 
Q 3669 778 3244 343 
Q 2819 -91 2113 -91 
Q 1303 -91 875 529 
Q 447 1150 447 2328 
Q 447 3434 972 4092 
Q 1497 4750 2381 4750 
Q 2619 4750 2861 4703 
Q 3103 4656 3366 4563 
z
" transform="scale(0.015625)"/>
      </defs>
      <use xlink:href="#DejaVuSans-4e"/>
      <use xlink:href="#DejaVuSans-65" transform="translate(74.804688 0)"/>
      <use xlink:href="#DejaVuSans-67" transform="translate(136.328125 0)"/>
      <use xlink:href="#DejaVuSans-61" transform="translate(199.804688 0)"/>
      <use xlink:href="#DejaVuSans-74" transform="translate(261.083984 0)"/>
      <use xlink:href="#DejaVuSans-69" transform="translate(300.292969 0)"/>
      <use xlink:href="#DejaVuSans-76" transform="translate(328.076172 0)"/>
      <use xlink:href="#DejaVuSans-65" transform="translate(387.255859 0)"/>
      <use xlink:href="#DejaVuSans-20" transform="translate(448.779297 0)"/>
      <use xlink:href="#DejaVuSans-52" transform="translate(480.566406 0)"/>
      <use xlink:href="#DejaVuSans-65" transform="translate(545.548828 0)"/>
      <use xlink:href="#DejaVuSans-67" transform="translate(607.072266 0)"/>
      <use xlink:href="#DejaVuSans-75" transform="translate(670.548828 0)"/>
      <use xlink:href="#DejaVuSans-6c" transform="translate(733.927734 0)"/>
      <use xlink:href="#DejaVuSans-61" transform="translate(761.710938 0)"/>
      <use xlink:href="#DejaVuSans-74" transform="translate(822.990234 0)"/>
      <use xlink:href="#DejaVuSans-69" transform="translate(862.199219 0)"/>
      <use xlink:href="#DejaVuSans-6f" transform="translate(889.982422 0)"/>
      <use xlink:href="#DejaVuSans-6e" transform="translate(951.164062 0)"/>
      <use xlink:href="#DejaVuSans-20" transform="translate(1014.542969 0)"/>
      <use xlink:href="#DejaVuSans-28" transform="translate(1046.330078 0)"/>
      <use xlink:href="#DejaVuSans-36" transform="translate(1085.34375 0)"/>
      <use xlink:href="#DejaVuSans-29" transform="translate(1148.966797 0)"/>
     </g>
    </g>
   </g>
  </g>
 </g>
 <defs>
  <clipPath id="p6d3b38b535">
   <rect x="7.2" y="26.117344" width="1130.4" height="966.72"/>
  </clipPath>
 </defs>
</svg>
