<?xml version="1.0" encoding="utf-8" standalone="no"?>
<!DOCTYPE svg PUBLIC "-//W3C//DTD SVG 1.1//EN"
  "http://www.w3.org/Graphics/SVG/1.1/DTD/svg11.dtd">
<svg xmlns:xlink="http://www.w3.org/1999/xlink" width="998.689219pt" height="423.456379pt" viewBox="0 0 998.689219 423.456379" xmlns="http://www.w3.org/2000/svg" version="1.1">
 <metadata>
  <rdf:RDF xmlns:dc="http://purl.org/dc/elements/1.1/" xmlns:cc="http://creativecommons.org/ns#" xmlns:rdf="http://www.w3.org/1999/02/22-rdf-syntax-ns#">
   <cc:Work>
    <dc:type rdf:resource="http://purl.org/dc/dcmitype/StillImage"/>
    <dc:date>2026-01-07T15:47:45.137528</dc:date>
    <dc:format>image/svg+xml</dc:format>
    <dc:creator>
     <cc:Agent>
      <dc:title>Matplotlib v3.10.1, https://matplotlib.org/</dc:title>
     </cc:Agent>
    </dc:creator>
   </cc:Work>
  </rdf:RDF>
 </metadata>
 <defs>
  <style type="text/css">*{stroke-linejoin: round; stroke-linecap: butt}</style>
 </defs>
 <g id="figure_1">
  <g id="patch_1">
   <path d="M 0 423.456379 
L 998.689219 423.456379 
L 998.689219 0 
L 0 0 
z
" style="fill: #ffffff"/>
  </g>
  <g id="axes_1">
   <g id="patch_2">
    <path d="M 49.299219 398.610442 
L 493.429219 398.610442 
L 493.429219 32.938442 
L 49.299219 32.938442 
z
" style="fill: #ffffff"/>
   </g>
   <g id="matplotlib.axis_1">
    <g id="xtick_1">
     <g id="text_1">
      <!-- BoolNet -->
      <g style="fill: #262626" transform="translate(112.182339 413.968723) scale(0.11 -0.11)">
       <defs>
        <path id="DejaVuSans-Bold-42" d="M 2456 2859 
Q 2741 2859 2887 2984 
Q 3034 3109 3034 3353 
Q 3034 3594 2887 3720 
Q 2741 3847 2456 3847 
L 1791 3847 
L 1791 2859 
L 2456 2859 
z
M 2497 819 
Q 2859 819 3042 972 
Q 3225 1125 3225 1434 
Q 3225 1738 3044 1889 
Q 2863 2041 2497 2041 
L 1791 2041 
L 1791 819 
L 2497 819 
z
M 3616 2497 
Q 4003 2384 4215 2081 
Q 4428 1778 4428 1338 
Q 4428 663 3972 331 
Q 3516 0 2584 0 
L 588 0 
L 588 4666 
L 2394 4666 
Q 3366 4666 3802 4372 
Q 4238 4078 4238 3431 
Q 4238 3091 4078 2852 
Q 3919 2613 3616 2497 
z
" transform="scale(0.015625)"/>
        <path id="DejaVuSans-Bold-6f" d="M 2203 2784 
Q 1831 2784 1636 2517 
Q 1441 2250 1441 1747 
Q 1441 1244 1636 976 
Q 1831 709 2203 709 
Q 2569 709 2762 976 
Q 2956 1244 2956 1747 
Q 2956 2250 2762 2517 
Q 2569 2784 2203 2784 
z
M 2203 3584 
Q 3106 3584 3614 3096 
Q 4122 2609 4122 1747 
Q 4122 884 3614 396 
Q 3106 -91 2203 -91 
Q 1297 -91 786 396 
Q 275 884 275 1747 
Q 275 2609 786 3096 
Q 1297 3584 2203 3584 
z
" transform="scale(0.015625)"/>
        <path id="DejaVuSans-Bold-6c" d="M 538 4863 
L 1656 4863 
L 1656 0 
L 538 0 
L 538 4863 
z
" transform="scale(0.015625)"/>
        <path id="DejaVuSans-Bold-4e" d="M 588 4666 
L 1931 4666 
L 3628 1466 
L 3628 4666 
L 4769 4666 
L 4769 0 
L 3425 0 
L 1728 3200 
L 1728 0 
L 588 0 
L 588 4666 
z
" transform="scale(0.015625)"/>
        <path id="DejaVuSans-Bold-65" d="M 4031 1759 
L 4031 1441 
L 1416 1441 
Q 1456 1047 1700 850 
Q 1944 653 2381 653 
Q 2734 653 3104 758 
Q 3475 863 3866 1075 
L 3866 213 
Q 3469 63 3072 -14 
Q 2675 -91 2278 -91 
Q 1328 -91 801 392 
Q 275 875 275 1747 
Q 275 2603 792 3093 
Q 1309 3584 2216 3584 
Q 3041 3584 3536 3087 
Q 4031 2591 4031 1759 
z
M 2881 2131 
Q 2881 2450 2695 2645 
Q 2509 2841 2209 2841 
Q 1884 2841 1681 2658 
Q 1478 2475 1428 2131 
L 2881 2131 
z
" transform="scale(0.015625)"/>
        <path id="DejaVuSans-Bold-74" d="M 1759 4494 
L 1759 3500 
L 2913 3500 
L 2913 2700 
L 1759 2700 
L 1759 1216 
Q 1759 972 1856 886 
Q 1953 800 2241 800 
L 2816 800 
L 2816 0 
L 1856 0 
Q 1194 0 917 276 
Q 641 553 641 1216 
L 641 2700 
L 84 2700 
L 84 3500 
L 641 3500 
L 641 4494 
L 1759 4494 
z
" transform="scale(0.015625)"/>
       </defs>
       <use xlink:href="#DejaVuSans-Bold-42"/>
       <use xlink:href="#DejaVuSans-Bold-6f" transform="translate(76.220703 0)"/>
       <use xlink:href="#DejaVuSans-Bold-6f" transform="translate(144.921875 0)"/>
       <use xlink:href="#DejaVuSans-Bold-6c" transform="translate(213.623047 0)"/>
       <use xlink:href="#DejaVuSans-Bold-4e" transform="translate(247.900391 0)"/>
       <use xlink:href="#DejaVuSans-Bold-65" transform="translate(331.591797 0)"/>
       <use xlink:href="#DejaVuSans-Bold-74" transform="translate(399.414062 0)"/>
      </g>
     </g>
    </g>
    <g id="xtick_2">
     <g id="text_2">
      <!-- BNI3 -->
      <g style="fill: #262626" transform="translate(391.281255 413.968723) scale(0.11 -0.11)">
       <defs>
        <path id="DejaVuSans-Bold-49" d="M 588 4666 
L 1791 4666 
L 1791 0 
L 588 0 
L 588 4666 
z
" transform="scale(0.015625)"/>
        <path id="DejaVuSans-Bold-33" d="M 2981 2516 
Q 3453 2394 3698 2092 
Q 3944 1791 3944 1325 
Q 3944 631 3412 270 
Q 2881 -91 1863 -91 
Q 1503 -91 1142 -33 
Q 781 25 428 141 
L 428 1069 
Q 766 900 1098 814 
Q 1431 728 1753 728 
Q 2231 728 2486 893 
Q 2741 1059 2741 1369 
Q 2741 1688 2480 1852 
Q 2219 2016 1709 2016 
L 1228 2016 
L 1228 2791 
L 1734 2791 
Q 2188 2791 2409 2933 
Q 2631 3075 2631 3366 
Q 2631 3634 2415 3781 
Q 2200 3928 1806 3928 
Q 1516 3928 1219 3862 
Q 922 3797 628 3669 
L 628 4550 
Q 984 4650 1334 4700 
Q 1684 4750 2022 4750 
Q 2931 4750 3382 4451 
Q 3834 4153 3834 3553 
Q 3834 3144 3618 2883 
Q 3403 2622 2981 2516 
z
" transform="scale(0.015625)"/>
       </defs>
       <use xlink:href="#DejaVuSans-Bold-42"/>
       <use xlink:href="#DejaVuSans-Bold-4e" transform="translate(76.220703 0)"/>
       <use xlink:href="#DejaVuSans-Bold-49" transform="translate(159.912109 0)"/>
       <use xlink:href="#DejaVuSans-Bold-33" transform="translate(197.119141 0)"/>
      </g>
     </g>
    </g>
   </g>
   <g id="matplotlib.axis_2">
    <g id="ytick_1">
     <g id="line2d_1">
      <path d="M 49.299219 368.137775 
L 493.429219 368.137775 
" clip-path="url(#p19db0e32cb)" style="fill: none; stroke: #cccccc; stroke-width: 0.8; stroke-linecap: round"/>
     </g>
     <g id="text_3">
      <!-- 0.5 -->
      <g style="fill: #262626" transform="translate(22.81375 372.316916) scale(0.11 -0.11)">
       <defs>
        <path id="DejaVuSans-Bold-30" d="M 2944 2338 
Q 2944 3213 2780 3570 
Q 2616 3928 2228 3928 
Q 1841 3928 1675 3570 
Q 1509 3213 1509 2338 
Q 1509 1453 1675 1090 
Q 1841 728 2228 728 
Q 2613 728 2778 1090 
Q 2944 1453 2944 2338 
z
M 4147 2328 
Q 4147 1169 3647 539 
Q 3147 -91 2228 -91 
Q 1306 -91 806 539 
Q 306 1169 306 2328 
Q 306 3491 806 4120 
Q 1306 4750 2228 4750 
Q 3147 4750 3647 4120 
Q 4147 3491 4147 2328 
z
" transform="scale(0.015625)"/>
        <path id="DejaVuSans-Bold-2e" d="M 653 1209 
L 1778 1209 
L 1778 0 
L 653 0 
L 653 1209 
z
" transform="scale(0.015625)"/>
        <path id="DejaVuSans-Bold-35" d="M 678 4666 
L 3669 4666 
L 3669 3781 
L 1638 3781 
L 1638 3059 
Q 1775 3097 1914 3117 
Q 2053 3138 2203 3138 
Q 3056 3138 3531 2711 
Q 4006 2284 4006 1522 
Q 4006 766 3489 337 
Q 2972 -91 2053 -91 
Q 1656 -91 1267 -14 
Q 878 63 494 219 
L 494 1166 
Q 875 947 1217 837 
Q 1559 728 1863 728 
Q 2300 728 2551 942 
Q 2803 1156 2803 1522 
Q 2803 1891 2551 2103 
Q 2300 2316 1863 2316 
Q 1603 2316 1309 2248 
Q 1016 2181 678 2041 
L 678 4666 
z
" transform="scale(0.015625)"/>
       </defs>
       <use xlink:href="#DejaVuSans-Bold-30"/>
       <use xlink:href="#DejaVuSans-Bold-2e" transform="translate(69.580078 0)"/>
       <use xlink:href="#DejaVuSans-Bold-35" transform="translate(107.568359 0)"/>
      </g>
     </g>
    </g>
    <g id="ytick_2">
     <g id="line2d_2">
      <path d="M 49.299219 307.192442 
L 493.429219 307.192442 
" clip-path="url(#p19db0e32cb)" style="fill: none; stroke: #cccccc; stroke-width: 0.8; stroke-linecap: round"/>
     </g>
     <g id="text_4">
      <!-- 0.6 -->
      <g style="fill: #262626" transform="translate(22.81375 311.371582) scale(0.11 -0.11)">
       <defs>
        <path id="DejaVuSans-Bold-36" d="M 2316 2303 
Q 2000 2303 1842 2098 
Q 1684 1894 1684 1484 
Q 1684 1075 1842 870 
Q 2000 666 2316 666 
Q 2634 666 2792 870 
Q 2950 1075 2950 1484 
Q 2950 1894 2792 2098 
Q 2634 2303 2316 2303 
z
M 3803 4544 
L 3803 3681 
Q 3506 3822 3243 3889 
Q 2981 3956 2731 3956 
Q 2194 3956 1894 3657 
Q 1594 3359 1544 2772 
Q 1750 2925 1990 3001 
Q 2231 3078 2516 3078 
Q 3231 3078 3670 2659 
Q 4109 2241 4109 1563 
Q 4109 813 3618 361 
Q 3128 -91 2303 -91 
Q 1394 -91 895 523 
Q 397 1138 397 2266 
Q 397 3422 980 4083 
Q 1563 4744 2578 4744 
Q 2900 4744 3203 4694 
Q 3506 4644 3803 4544 
z
" transform="scale(0.015625)"/>
       </defs>
       <use xlink:href="#DejaVuSans-Bold-30"/>
       <use xlink:href="#DejaVuSans-Bold-2e" transform="translate(69.580078 0)"/>
       <use xlink:href="#DejaVuSans-Bold-36" transform="translate(107.568359 0)"/>
      </g>
     </g>
    </g>
    <g id="ytick_3">
     <g id="line2d_3">
      <path d="M 49.299219 246.247108 
L 493.429219 246.247108 
" clip-path="url(#p19db0e32cb)" style="fill: none; stroke: #cccccc; stroke-width: 0.8; stroke-linecap: round"/>
     </g>
     <g id="text_5">
      <!-- 0.7 -->
      <g style="fill: #262626" transform="translate(22.81375 250.426249) scale(0.11 -0.11)">
       <defs>
        <path id="DejaVuSans-Bold-37" d="M 428 4666 
L 3944 4666 
L 3944 3988 
L 2125 0 
L 953 0 
L 2675 3781 
L 428 3781 
L 428 4666 
z
" transform="scale(0.015625)"/>
       </defs>
       <use xlink:href="#DejaVuSans-Bold-30"/>
       <use xlink:href="#DejaVuSans-Bold-2e" transform="translate(69.580078 0)"/>
       <use xlink:href="#DejaVuSans-Bold-37" transform="translate(107.568359 0)"/>
      </g>
     </g>
    </g>
    <g id="ytick_4">
     <g id="line2d_4">
      <path d="M 49.299219 185.301775 
L 493.429219 185.301775 
" clip-path="url(#p19db0e32cb)" style="fill: none; stroke: #cccccc; stroke-width: 0.8; stroke-linecap: round"/>
     </g>
     <g id="text_6">
      <!-- 0.8 -->
      <g style="fill: #262626" transform="translate(22.81375 189.480916) scale(0.11 -0.11)">
       <defs>
        <path id="DejaVuSans-Bold-38" d="M 2228 2088 
Q 1891 2088 1709 1903 
Q 1528 1719 1528 1375 
Q 1528 1031 1709 848 
Q 1891 666 2228 666 
Q 2563 666 2741 848 
Q 2919 1031 2919 1375 
Q 2919 1722 2741 1905 
Q 2563 2088 2228 2088 
z
M 1350 2484 
Q 925 2613 709 2878 
Q 494 3144 494 3541 
Q 494 4131 934 4440 
Q 1375 4750 2228 4750 
Q 3075 4750 3515 4442 
Q 3956 4134 3956 3541 
Q 3956 3144 3739 2878 
Q 3522 2613 3097 2484 
Q 3572 2353 3814 2058 
Q 4056 1763 4056 1313 
Q 4056 619 3595 264 
Q 3134 -91 2228 -91 
Q 1319 -91 855 264 
Q 391 619 391 1313 
Q 391 1763 633 2058 
Q 875 2353 1350 2484 
z
M 1631 3419 
Q 1631 3141 1786 2991 
Q 1941 2841 2228 2841 
Q 2509 2841 2662 2991 
Q 2816 3141 2816 3419 
Q 2816 3697 2662 3845 
Q 2509 3994 2228 3994 
Q 1941 3994 1786 3844 
Q 1631 3694 1631 3419 
z
" transform="scale(0.015625)"/>
       </defs>
       <use xlink:href="#DejaVuSans-Bold-30"/>
       <use xlink:href="#DejaVuSans-Bold-2e" transform="translate(69.580078 0)"/>
       <use xlink:href="#DejaVuSans-Bold-38" transform="translate(107.568359 0)"/>
      </g>
     </g>
    </g>
    <g id="ytick_5">
     <g id="line2d_5">
      <path d="M 49.299219 124.356442 
L 493.429219 124.356442 
" clip-path="url(#p19db0e32cb)" style="fill: none; stroke: #cccccc; stroke-width: 0.8; stroke-linecap: round"/>
     </g>
     <g id="text_7">
      <!-- 0.9 -->
      <g style="fill: #262626" transform="translate(22.81375 128.535582) scale(0.11 -0.11)">
       <defs>
        <path id="DejaVuSans-Bold-39" d="M 641 103 
L 641 966 
Q 928 831 1190 764 
Q 1453 697 1709 697 
Q 2247 697 2547 995 
Q 2847 1294 2900 1881 
Q 2688 1725 2447 1647 
Q 2206 1569 1925 1569 
Q 1209 1569 770 1986 
Q 331 2403 331 3084 
Q 331 3838 820 4291 
Q 1309 4744 2131 4744 
Q 3044 4744 3544 4128 
Q 4044 3513 4044 2388 
Q 4044 1231 3459 570 
Q 2875 -91 1856 -91 
Q 1528 -91 1228 -42 
Q 928 6 641 103 
z
M 2125 2350 
Q 2441 2350 2600 2554 
Q 2759 2759 2759 3169 
Q 2759 3575 2600 3781 
Q 2441 3988 2125 3988 
Q 1809 3988 1650 3781 
Q 1491 3575 1491 3169 
Q 1491 2759 1650 2554 
Q 1809 2350 2125 2350 
z
" transform="scale(0.015625)"/>
       </defs>
       <use xlink:href="#DejaVuSans-Bold-30"/>
       <use xlink:href="#DejaVuSans-Bold-2e" transform="translate(69.580078 0)"/>
       <use xlink:href="#DejaVuSans-Bold-39" transform="translate(107.568359 0)"/>
      </g>
     </g>
    </g>
    <g id="ytick_6">
     <g id="line2d_6">
      <path d="M 49.299219 63.411108 
L 493.429219 63.411108 
" clip-path="url(#p19db0e32cb)" style="fill: none; stroke: #cccccc; stroke-width: 0.8; stroke-linecap: round"/>
     </g>
     <g id="text_8">
      <!-- 1.0 -->
      <g style="fill: #262626" transform="translate(22.81375 67.590249) scale(0.11 -0.11)">
       <defs>
        <path id="DejaVuSans-Bold-31" d="M 750 831 
L 1813 831 
L 1813 3847 
L 722 3622 
L 722 4441 
L 1806 4666 
L 2950 4666 
L 2950 831 
L 4013 831 
L 4013 0 
L 750 0 
L 750 831 
z
" transform="scale(0.015625)"/>
       </defs>
       <use xlink:href="#DejaVuSans-Bold-31"/>
       <use xlink:href="#DejaVuSans-Bold-2e" transform="translate(69.580078 0)"/>
       <use xlink:href="#DejaVuSans-Bold-30" transform="translate(107.568359 0)"/>
      </g>
     </g>
    </g>
    <g id="text_9">
     <!-- StrAcc -->
     <g style="fill: #262626" transform="translate(16.318125 237.679129) rotate(-90) scale(0.12 -0.12)">
      <defs>
       <path id="DejaVuSans-Bold-53" d="M 3834 4519 
L 3834 3531 
Q 3450 3703 3084 3790 
Q 2719 3878 2394 3878 
Q 1963 3878 1756 3759 
Q 1550 3641 1550 3391 
Q 1550 3203 1689 3098 
Q 1828 2994 2194 2919 
L 2706 2816 
Q 3484 2659 3812 2340 
Q 4141 2022 4141 1434 
Q 4141 663 3683 286 
Q 3225 -91 2284 -91 
Q 1841 -91 1394 -6 
Q 947 78 500 244 
L 500 1259 
Q 947 1022 1364 901 
Q 1781 781 2169 781 
Q 2563 781 2772 912 
Q 2981 1044 2981 1288 
Q 2981 1506 2839 1625 
Q 2697 1744 2272 1838 
L 1806 1941 
Q 1106 2091 782 2419 
Q 459 2747 459 3303 
Q 459 4000 909 4375 
Q 1359 4750 2203 4750 
Q 2588 4750 2994 4692 
Q 3400 4634 3834 4519 
z
" transform="scale(0.015625)"/>
       <path id="DejaVuSans-Bold-72" d="M 3138 2547 
Q 2991 2616 2845 2648 
Q 2700 2681 2553 2681 
Q 2122 2681 1889 2404 
Q 1656 2128 1656 1613 
L 1656 0 
L 538 0 
L 538 3500 
L 1656 3500 
L 1656 2925 
Q 1872 3269 2151 3426 
Q 2431 3584 2822 3584 
Q 2878 3584 2943 3579 
Q 3009 3575 3134 3559 
L 3138 2547 
z
" transform="scale(0.015625)"/>
       <path id="DejaVuSans-Bold-41" d="M 3419 850 
L 1538 850 
L 1241 0 
L 31 0 
L 1759 4666 
L 3194 4666 
L 4922 0 
L 3713 0 
L 3419 850 
z
M 1838 1716 
L 3116 1716 
L 2478 3572 
L 1838 1716 
z
" transform="scale(0.015625)"/>
       <path id="DejaVuSans-Bold-63" d="M 3366 3391 
L 3366 2478 
Q 3138 2634 2908 2709 
Q 2678 2784 2431 2784 
Q 1963 2784 1702 2511 
Q 1441 2238 1441 1747 
Q 1441 1256 1702 982 
Q 1963 709 2431 709 
Q 2694 709 2930 787 
Q 3166 866 3366 1019 
L 3366 103 
Q 3103 6 2833 -42 
Q 2563 -91 2291 -91 
Q 1344 -91 809 395 
Q 275 881 275 1747 
Q 275 2613 809 3098 
Q 1344 3584 2291 3584 
Q 2566 3584 2833 3536 
Q 3100 3488 3366 3391 
z
" transform="scale(0.015625)"/>
      </defs>
      <use xlink:href="#DejaVuSans-Bold-53"/>
      <use xlink:href="#DejaVuSans-Bold-74" transform="translate(72.021484 0)"/>
      <use xlink:href="#DejaVuSans-Bold-72" transform="translate(119.824219 0)"/>
      <use xlink:href="#DejaVuSans-Bold-41" transform="translate(169.140625 0)"/>
      <use xlink:href="#DejaVuSans-Bold-63" transform="translate(246.533203 0)"/>
      <use xlink:href="#DejaVuSans-Bold-63" transform="translate(305.810547 0)"/>
     </g>
    </g>
   </g>
   <g id="patch_3">
    <path d="M 69.486946 90.836508 
L 204.071795 90.836508 
L 204.071795 78.647442 
L 69.486946 78.647442 
L 69.486946 90.836508 
z
" clip-path="url(#p19db0e32cb)" style="fill: #954871; stroke: #414141; stroke-linejoin: miter"/>
   </g>
   <g id="line2d_7">
    <path d="M 136.77937 90.836508 
L 136.77937 96.931042 
" clip-path="url(#p19db0e32cb)" style="fill: none; stroke: #414141"/>
   </g>
   <g id="line2d_8">
    <path d="M 136.77937 78.647442 
L 136.77937 69.505642 
" clip-path="url(#p19db0e32cb)" style="fill: none; stroke: #414141"/>
   </g>
   <g id="line2d_9">
    <path d="M 103.133158 96.931042 
L 170.425582 96.931042 
" clip-path="url(#p19db0e32cb)" style="fill: none; stroke: #414141; stroke-linecap: round"/>
   </g>
   <g id="line2d_10">
    <path d="M 103.133158 69.505642 
L 170.425582 69.505642 
" clip-path="url(#p19db0e32cb)" style="fill: none; stroke: #414141; stroke-linecap: round"/>
   </g>
   <g id="line2d_11"/>
   <g id="patch_4">
    <path d="M 338.656643 153.305475 
L 473.241491 153.305475 
L 473.241491 124.356442 
L 338.656643 124.356442 
L 338.656643 153.305475 
z
" clip-path="url(#p19db0e32cb)" style="fill: #3e809b; stroke: #414141; stroke-linejoin: miter"/>
   </g>
   <g id="line2d_12">
    <path d="M 405.949067 153.305475 
L 405.949067 170.065442 
" clip-path="url(#p19db0e32cb)" style="fill: none; stroke: #414141"/>
   </g>
   <g id="line2d_13">
    <path d="M 405.949067 124.356442 
L 405.949067 99.978308 
" clip-path="url(#p19db0e32cb)" style="fill: none; stroke: #414141"/>
   </g>
   <g id="line2d_14">
    <path d="M 372.302855 170.065442 
L 439.595279 170.065442 
" clip-path="url(#p19db0e32cb)" style="fill: none; stroke: #414141; stroke-linecap: round"/>
   </g>
   <g id="line2d_15">
    <path d="M 372.302855 99.978308 
L 439.595279 99.978308 
" clip-path="url(#p19db0e32cb)" style="fill: none; stroke: #414141; stroke-linecap: round"/>
   </g>
   <g id="line2d_16"/>
   <g id="line2d_17">
    <path d="M 136.77937 39.032975 
L 136.77937 26.843908 
L 405.949067 26.843908 
L 405.949067 39.032975 
" clip-path="url(#p19db0e32cb)" style="fill: none; stroke: #000000; stroke-width: 1.5; stroke-linecap: round"/>
   </g>
   <g id="line2d_18">
    <path d="M 69.486946 84.741975 
L 204.071795 84.741975 
" clip-path="url(#p19db0e32cb)" style="fill: none; stroke: #414141"/>
   </g>
   <g id="line2d_19">
    <path d="M 338.656643 142.640042 
L 473.241491 142.640042 
" clip-path="url(#p19db0e32cb)" style="fill: none; stroke: #414141"/>
   </g>
   <g id="patch_5">
    <path d="M 49.299219 398.610442 
L 49.299219 32.938442 
" style="fill: none; stroke: #cccccc; stroke-width: 0.8; stroke-linejoin: miter; stroke-linecap: square"/>
   </g>
   <g id="patch_6">
    <path d="M 493.429219 398.610442 
L 493.429219 32.938442 
" style="fill: none; stroke: #cccccc; stroke-width: 0.8; stroke-linejoin: miter; stroke-linecap: square"/>
   </g>
   <g id="patch_7">
    <path d="M 49.299219 398.610442 
L 493.429219 398.610442 
" style="fill: none; stroke: #cccccc; stroke-width: 0.8; stroke-linejoin: miter; stroke-linecap: square"/>
   </g>
   <g id="patch_8">
    <path d="M 49.299219 32.938442 
L 493.429219 32.938442 
" style="fill: none; stroke: #cccccc; stroke-width: 0.8; stroke-linejoin: miter; stroke-linecap: square"/>
   </g>
   <g id="PathCollection_1">
    <defs>
     <path id="mf9b47086c3" d="M 0 2 
C 0.530406 2 1.03916 1.789267 1.414214 1.414214 
C 1.789267 1.03916 2 0.530406 2 0 
C 2 -0.530406 1.789267 -1.03916 1.414214 -1.414214 
C 1.03916 -1.789267 0.530406 -2 0 -2 
C -0.530406 -2 -1.03916 -1.789267 -1.414214 -1.414214 
C -1.789267 -1.03916 -2 -0.530406 -2 0 
C -2 0.530406 -1.789267 1.03916 -1.414214 1.414214 
C -1.03916 1.789267 -0.530406 2 0 2 
z
"/>
    </defs>
    <g clip-path="url(#p19db0e32cb)">
     <use xlink:href="#mf9b47086c3" x="110.555762" y="78.647442" style="fill-opacity: 0.3"/>
     <use xlink:href="#mf9b47086c3" x="135.033617" y="96.931042" style="fill-opacity: 0.3"/>
     <use xlink:href="#mf9b47086c3" x="110.098196" y="87.789242" style="fill-opacity: 0.3"/>
     <use xlink:href="#mf9b47086c3" x="125.426711" y="96.931042" style="fill-opacity: 0.3"/>
     <use xlink:href="#mf9b47086c3" x="149.216473" y="75.600175" style="fill-opacity: 0.3"/>
     <use xlink:href="#mf9b47086c3" x="160.690006" y="93.883775" style="fill-opacity: 0.3"/>
     <use xlink:href="#mf9b47086c3" x="121.601382" y="87.789242" style="fill-opacity: 0.3"/>
     <use xlink:href="#mf9b47086c3" x="144.637647" y="81.694708" style="fill-opacity: 0.3"/>
     <use xlink:href="#mf9b47086c3" x="125.938522" y="84.741975" style="fill-opacity: 0.3"/>
     <use xlink:href="#mf9b47086c3" x="134.16122" y="87.789242" style="fill-opacity: 0.3"/>
     <use xlink:href="#mf9b47086c3" x="154.161445" y="75.600175" style="fill-opacity: 0.3"/>
     <use xlink:href="#mf9b47086c3" x="122.363841" y="75.600175" style="fill-opacity: 0.3"/>
     <use xlink:href="#mf9b47086c3" x="157.787313" y="90.836508" style="fill-opacity: 0.3"/>
     <use xlink:href="#mf9b47086c3" x="135.797583" y="69.505642" style="fill-opacity: 0.3"/>
     <use xlink:href="#mf9b47086c3" x="110.01904" y="93.883775" style="fill-opacity: 0.3"/>
     <use xlink:href="#mf9b47086c3" x="148.02161" y="96.931042" style="fill-opacity: 0.3"/>
     <use xlink:href="#mf9b47086c3" x="142.2224" y="81.694708" style="fill-opacity: 0.3"/>
     <use xlink:href="#mf9b47086c3" x="154.217315" y="90.836508" style="fill-opacity: 0.3"/>
     <use xlink:href="#mf9b47086c3" x="143.70114" y="81.694708" style="fill-opacity: 0.3"/>
     <use xlink:href="#mf9b47086c3" x="152.176982" y="81.694708" style="fill-opacity: 0.3"/>
     <use xlink:href="#mf9b47086c3" x="157.614312" y="81.694708" style="fill-opacity: 0.3"/>
     <use xlink:href="#mf9b47086c3" x="128.697842" y="78.647442" style="fill-opacity: 0.3"/>
     <use xlink:href="#mf9b47086c3" x="145.050283" y="84.741975" style="fill-opacity: 0.3"/>
     <use xlink:href="#mf9b47086c3" x="125.581464" y="93.883775" style="fill-opacity: 0.3"/>
     <use xlink:href="#mf9b47086c3" x="155.522518" y="72.552908" style="fill-opacity: 0.3"/>
    </g>
   </g>
   <g id="PathCollection_2">
    <g clip-path="url(#p19db0e32cb)">
     <use xlink:href="#mf9b47086c3" x="430.741577" y="170.065442" style="fill-opacity: 0.3"/>
     <use xlink:href="#mf9b47086c3" x="407.182586" y="163.970908" style="fill-opacity: 0.3"/>
     <use xlink:href="#mf9b47086c3" x="384.988891" y="103.025575" style="fill-opacity: 0.3"/>
     <use xlink:href="#mf9b47086c3" x="427.993819" y="99.978308" style="fill-opacity: 0.3"/>
     <use xlink:href="#mf9b47086c3" x="380.010138" y="151.781842" style="fill-opacity: 0.3"/>
     <use xlink:href="#mf9b47086c3" x="405.865647" y="163.970908" style="fill-opacity: 0.3"/>
     <use xlink:href="#mf9b47086c3" x="400.244489" y="127.403708" style="fill-opacity: 0.3"/>
     <use xlink:href="#mf9b47086c3" x="390.740912" y="121.309175" style="fill-opacity: 0.3"/>
     <use xlink:href="#mf9b47086c3" x="395.207973" y="142.640042" style="fill-opacity: 0.3"/>
     <use xlink:href="#mf9b47086c3" x="431.760999" y="148.734575" style="fill-opacity: 0.3"/>
     <use xlink:href="#mf9b47086c3" x="382.681499" y="118.261908" style="fill-opacity: 0.3"/>
     <use xlink:href="#mf9b47086c3" x="427.711671" y="154.829108" style="fill-opacity: 0.3"/>
     <use xlink:href="#mf9b47086c3" x="408.883254" y="148.734575" style="fill-opacity: 0.3"/>
     <use xlink:href="#mf9b47086c3" x="426.08914" y="136.545508" style="fill-opacity: 0.3"/>
     <use xlink:href="#mf9b47086c3" x="384.196237" y="133.498242" style="fill-opacity: 0.3"/>
    </g>
   </g>
   <g id="text_10">
    <!-- * -->
    <g style="fill: #262626" transform="translate(267.703438 23.932346) scale(0.14 -0.14)">
     <defs>
      <path id="DejaVuSans-Bold-2a" d="M 3219 3803 
L 2188 3263 
L 3219 2719 
L 2981 2278 
L 1941 2853 
L 1941 1778 
L 1409 1778 
L 1409 2853 
L 366 2278 
L 128 2719 
L 1172 3263 
L 128 3803 
L 366 4244 
L 1409 3675 
L 1409 4750 
L 1941 4750 
L 1941 3675 
L 2981 4244 
L 3219 3803 
z
" transform="scale(0.015625)"/>
     </defs>
     <use xlink:href="#DejaVuSans-Bold-2a"/>
    </g>
   </g>
   <g id="text_11">
    <!-- 21 Time Points -->
    <g style="fill: #262626" transform="translate(212.697656 26.938442) scale(0.14 -0.14)">
     <defs>
      <path id="DejaVuSans-Bold-32" d="M 1844 884 
L 3897 884 
L 3897 0 
L 506 0 
L 506 884 
L 2209 2388 
Q 2438 2594 2547 2791 
Q 2656 2988 2656 3200 
Q 2656 3528 2436 3728 
Q 2216 3928 1850 3928 
Q 1569 3928 1234 3808 
Q 900 3688 519 3450 
L 519 4475 
Q 925 4609 1322 4679 
Q 1719 4750 2100 4750 
Q 2938 4750 3402 4381 
Q 3866 4013 3866 3353 
Q 3866 2972 3669 2642 
Q 3472 2313 2841 1759 
L 1844 884 
z
" transform="scale(0.015625)"/>
      <path id="DejaVuSans-Bold-20" transform="scale(0.015625)"/>
      <path id="DejaVuSans-Bold-54" d="M 31 4666 
L 4331 4666 
L 4331 3756 
L 2784 3756 
L 2784 0 
L 1581 0 
L 1581 3756 
L 31 3756 
L 31 4666 
z
" transform="scale(0.015625)"/>
      <path id="DejaVuSans-Bold-69" d="M 538 3500 
L 1656 3500 
L 1656 0 
L 538 0 
L 538 3500 
z
M 538 4863 
L 1656 4863 
L 1656 3950 
L 538 3950 
L 538 4863 
z
" transform="scale(0.015625)"/>
      <path id="DejaVuSans-Bold-6d" d="M 3781 2919 
Q 3994 3244 4286 3414 
Q 4578 3584 4928 3584 
Q 5531 3584 5847 3212 
Q 6163 2841 6163 2131 
L 6163 0 
L 5038 0 
L 5038 1825 
Q 5041 1866 5042 1909 
Q 5044 1953 5044 2034 
Q 5044 2406 4934 2573 
Q 4825 2741 4581 2741 
Q 4263 2741 4089 2478 
Q 3916 2216 3909 1719 
L 3909 0 
L 2784 0 
L 2784 1825 
Q 2784 2406 2684 2573 
Q 2584 2741 2328 2741 
Q 2006 2741 1831 2477 
Q 1656 2213 1656 1722 
L 1656 0 
L 531 0 
L 531 3500 
L 1656 3500 
L 1656 2988 
Q 1863 3284 2130 3434 
Q 2397 3584 2719 3584 
Q 3081 3584 3359 3409 
Q 3638 3234 3781 2919 
z
" transform="scale(0.015625)"/>
      <path id="DejaVuSans-Bold-50" d="M 588 4666 
L 2584 4666 
Q 3475 4666 3951 4270 
Q 4428 3875 4428 3144 
Q 4428 2409 3951 2014 
Q 3475 1619 2584 1619 
L 1791 1619 
L 1791 0 
L 588 0 
L 588 4666 
z
M 1791 3794 
L 1791 2491 
L 2456 2491 
Q 2806 2491 2997 2661 
Q 3188 2831 3188 3144 
Q 3188 3456 2997 3625 
Q 2806 3794 2456 3794 
L 1791 3794 
z
" transform="scale(0.015625)"/>
      <path id="DejaVuSans-Bold-6e" d="M 4056 2131 
L 4056 0 
L 2931 0 
L 2931 347 
L 2931 1631 
Q 2931 2084 2911 2256 
Q 2891 2428 2841 2509 
Q 2775 2619 2662 2680 
Q 2550 2741 2406 2741 
Q 2056 2741 1856 2470 
Q 1656 2200 1656 1722 
L 1656 0 
L 538 0 
L 538 3500 
L 1656 3500 
L 1656 2988 
Q 1909 3294 2193 3439 
Q 2478 3584 2822 3584 
Q 3428 3584 3742 3212 
Q 4056 2841 4056 2131 
z
" transform="scale(0.015625)"/>
      <path id="DejaVuSans-Bold-73" d="M 3272 3391 
L 3272 2541 
Q 2913 2691 2578 2766 
Q 2244 2841 1947 2841 
Q 1628 2841 1473 2761 
Q 1319 2681 1319 2516 
Q 1319 2381 1436 2309 
Q 1553 2238 1856 2203 
L 2053 2175 
Q 2913 2066 3209 1816 
Q 3506 1566 3506 1031 
Q 3506 472 3093 190 
Q 2681 -91 1863 -91 
Q 1516 -91 1145 -36 
Q 775 19 384 128 
L 384 978 
Q 719 816 1070 734 
Q 1422 653 1784 653 
Q 2113 653 2278 743 
Q 2444 834 2444 1013 
Q 2444 1163 2330 1236 
Q 2216 1309 1875 1350 
L 1678 1375 
Q 931 1469 631 1722 
Q 331 1975 331 2491 
Q 331 3047 712 3315 
Q 1094 3584 1881 3584 
Q 2191 3584 2531 3537 
Q 2872 3491 3272 3391 
z
" transform="scale(0.015625)"/>
     </defs>
     <use xlink:href="#DejaVuSans-Bold-32"/>
     <use xlink:href="#DejaVuSans-Bold-31" transform="translate(69.580078 0)"/>
     <use xlink:href="#DejaVuSans-Bold-20" transform="translate(139.160156 0)"/>
     <use xlink:href="#DejaVuSans-Bold-54" transform="translate(173.974609 0)"/>
     <use xlink:href="#DejaVuSans-Bold-69" transform="translate(242.1875 0)"/>
     <use xlink:href="#DejaVuSans-Bold-6d" transform="translate(276.464844 0)"/>
     <use xlink:href="#DejaVuSans-Bold-65" transform="translate(380.664062 0)"/>
     <use xlink:href="#DejaVuSans-Bold-20" transform="translate(448.486328 0)"/>
     <use xlink:href="#DejaVuSans-Bold-50" transform="translate(483.300781 0)"/>
     <use xlink:href="#DejaVuSans-Bold-6f" transform="translate(556.591797 0)"/>
     <use xlink:href="#DejaVuSans-Bold-69" transform="translate(625.292969 0)"/>
     <use xlink:href="#DejaVuSans-Bold-6e" transform="translate(659.570312 0)"/>
     <use xlink:href="#DejaVuSans-Bold-74" transform="translate(730.761719 0)"/>
     <use xlink:href="#DejaVuSans-Bold-73" transform="translate(778.564453 0)"/>
    </g>
   </g>
  </g>
  <g id="axes_2">
   <g id="patch_9">
    <path d="M 547.359219 398.610442 
L 991.489219 398.610442 
L 991.489219 32.938442 
L 547.359219 32.938442 
z
" style="fill: #ffffff"/>
   </g>
   <g id="matplotlib.axis_3">
    <g id="xtick_3">
     <g id="text_12">
      <!-- BoolNet -->
      <g style="fill: #262626" transform="translate(610.242339 413.968723) scale(0.11 -0.11)">
       <use xlink:href="#DejaVuSans-Bold-42"/>
       <use xlink:href="#DejaVuSans-Bold-6f" transform="translate(76.220703 0)"/>
       <use xlink:href="#DejaVuSans-Bold-6f" transform="translate(144.921875 0)"/>
       <use xlink:href="#DejaVuSans-Bold-6c" transform="translate(213.623047 0)"/>
       <use xlink:href="#DejaVuSans-Bold-4e" transform="translate(247.900391 0)"/>
       <use xlink:href="#DejaVuSans-Bold-65" transform="translate(331.591797 0)"/>
       <use xlink:href="#DejaVuSans-Bold-74" transform="translate(399.414062 0)"/>
      </g>
     </g>
    </g>
    <g id="xtick_4">
     <g id="text_13">
      <!-- BNI3 -->
      <g style="fill: #262626" transform="translate(889.341255 413.968723) scale(0.11 -0.11)">
       <use xlink:href="#DejaVuSans-Bold-42"/>
       <use xlink:href="#DejaVuSans-Bold-4e" transform="translate(76.220703 0)"/>
       <use xlink:href="#DejaVuSans-Bold-49" transform="translate(159.912109 0)"/>
       <use xlink:href="#DejaVuSans-Bold-33" transform="translate(197.119141 0)"/>
      </g>
     </g>
    </g>
   </g>
   <g id="matplotlib.axis_4">
    <g id="ytick_7">
     <g id="line2d_20">
      <path d="M 547.359219 368.137775 
L 991.489219 368.137775 
" clip-path="url(#p3ae724ca90)" style="fill: none; stroke: #cccccc; stroke-width: 0.8; stroke-linecap: round"/>
     </g>
     <g id="text_14">
      <!-- 0.5 -->
      <g style="fill: #262626" transform="translate(520.87375 372.316916) scale(0.11 -0.11)">
       <use xlink:href="#DejaVuSans-Bold-30"/>
       <use xlink:href="#DejaVuSans-Bold-2e" transform="translate(69.580078 0)"/>
       <use xlink:href="#DejaVuSans-Bold-35" transform="translate(107.568359 0)"/>
      </g>
     </g>
    </g>
    <g id="ytick_8">
     <g id="line2d_21">
      <path d="M 547.359219 307.192442 
L 991.489219 307.192442 
" clip-path="url(#p3ae724ca90)" style="fill: none; stroke: #cccccc; stroke-width: 0.8; stroke-linecap: round"/>
     </g>
     <g id="text_15">
      <!-- 0.6 -->
      <g style="fill: #262626" transform="translate(520.87375 311.371582) scale(0.11 -0.11)">
       <use xlink:href="#DejaVuSans-Bold-30"/>
       <use xlink:href="#DejaVuSans-Bold-2e" transform="translate(69.580078 0)"/>
       <use xlink:href="#DejaVuSans-Bold-36" transform="translate(107.568359 0)"/>
      </g>
     </g>
    </g>
    <g id="ytick_9">
     <g id="line2d_22">
      <path d="M 547.359219 246.247108 
L 991.489219 246.247108 
" clip-path="url(#p3ae724ca90)" style="fill: none; stroke: #cccccc; stroke-width: 0.8; stroke-linecap: round"/>
     </g>
     <g id="text_16">
      <!-- 0.7 -->
      <g style="fill: #262626" transform="translate(520.87375 250.426249) scale(0.11 -0.11)">
       <use xlink:href="#DejaVuSans-Bold-30"/>
       <use xlink:href="#DejaVuSans-Bold-2e" transform="translate(69.580078 0)"/>
       <use xlink:href="#DejaVuSans-Bold-37" transform="translate(107.568359 0)"/>
      </g>
     </g>
    </g>
    <g id="ytick_10">
     <g id="line2d_23">
      <path d="M 547.359219 185.301775 
L 991.489219 185.301775 
" clip-path="url(#p3ae724ca90)" style="fill: none; stroke: #cccccc; stroke-width: 0.8; stroke-linecap: round"/>
     </g>
     <g id="text_17">
      <!-- 0.8 -->
      <g style="fill: #262626" transform="translate(520.87375 189.480916) scale(0.11 -0.11)">
       <use xlink:href="#DejaVuSans-Bold-30"/>
       <use xlink:href="#DejaVuSans-Bold-2e" transform="translate(69.580078 0)"/>
       <use xlink:href="#DejaVuSans-Bold-38" transform="translate(107.568359 0)"/>
      </g>
     </g>
    </g>
    <g id="ytick_11">
     <g id="line2d_24">
      <path d="M 547.359219 124.356442 
L 991.489219 124.356442 
" clip-path="url(#p3ae724ca90)" style="fill: none; stroke: #cccccc; stroke-width: 0.8; stroke-linecap: round"/>
     </g>
     <g id="text_18">
      <!-- 0.9 -->
      <g style="fill: #262626" transform="translate(520.87375 128.535582) scale(0.11 -0.11)">
       <use xlink:href="#DejaVuSans-Bold-30"/>
       <use xlink:href="#DejaVuSans-Bold-2e" transform="translate(69.580078 0)"/>
       <use xlink:href="#DejaVuSans-Bold-39" transform="translate(107.568359 0)"/>
      </g>
     </g>
    </g>
    <g id="ytick_12">
     <g id="line2d_25">
      <path d="M 547.359219 63.411108 
L 991.489219 63.411108 
" clip-path="url(#p3ae724ca90)" style="fill: none; stroke: #cccccc; stroke-width: 0.8; stroke-linecap: round"/>
     </g>
     <g id="text_19">
      <!-- 1.0 -->
      <g style="fill: #262626" transform="translate(520.87375 67.590249) scale(0.11 -0.11)">
       <use xlink:href="#DejaVuSans-Bold-31"/>
       <use xlink:href="#DejaVuSans-Bold-2e" transform="translate(69.580078 0)"/>
       <use xlink:href="#DejaVuSans-Bold-30" transform="translate(107.568359 0)"/>
      </g>
     </g>
    </g>
    <g id="text_20">
     <!-- StrAcc -->
     <g style="fill: #262626" transform="translate(514.378125 237.679129) rotate(-90) scale(0.12 -0.12)">
      <use xlink:href="#DejaVuSans-Bold-53"/>
      <use xlink:href="#DejaVuSans-Bold-74" transform="translate(72.021484 0)"/>
      <use xlink:href="#DejaVuSans-Bold-72" transform="translate(119.824219 0)"/>
      <use xlink:href="#DejaVuSans-Bold-41" transform="translate(169.140625 0)"/>
      <use xlink:href="#DejaVuSans-Bold-63" transform="translate(246.533203 0)"/>
      <use xlink:href="#DejaVuSans-Bold-63" transform="translate(305.810547 0)"/>
     </g>
    </g>
   </g>
   <g id="patch_10">
    <path d="M 567.546946 63.411108 
L 702.131795 63.411108 
L 702.131795 63.411108 
L 567.546946 63.411108 
L 567.546946 63.411108 
z
" clip-path="url(#p3ae724ca90)" style="fill: #954871; stroke: #414141; stroke-linejoin: miter"/>
   </g>
   <g id="line2d_26">
    <path d="M 634.83937 63.411108 
L 634.83937 63.411108 
" clip-path="url(#p3ae724ca90)" style="fill: none; stroke: #414141"/>
   </g>
   <g id="line2d_27">
    <path d="M 634.83937 63.411108 
L 634.83937 63.411108 
" clip-path="url(#p3ae724ca90)" style="fill: none; stroke: #414141"/>
   </g>
   <g id="line2d_28">
    <path d="M 601.193158 63.411108 
L 668.485582 63.411108 
" clip-path="url(#p3ae724ca90)" style="fill: none; stroke: #414141; stroke-linecap: round"/>
   </g>
   <g id="line2d_29">
    <path d="M 601.193158 63.411108 
L 668.485582 63.411108 
" clip-path="url(#p3ae724ca90)" style="fill: none; stroke: #414141; stroke-linecap: round"/>
   </g>
   <g id="line2d_30">
    <defs>
     <path id="m12680c1bd2" d="M 0 3 
C 0.795609 3 1.55874 2.683901 2.12132 2.12132 
C 2.683901 1.55874 3 0.795609 3 0 
C 3 -0.795609 2.683901 -1.55874 2.12132 -2.12132 
C 1.55874 -2.683901 0.795609 -3 0 -3 
C -0.795609 -3 -1.55874 -2.683901 -2.12132 -2.12132 
C -2.683901 -1.55874 -3 -0.795609 -3 0 
C -3 0.795609 -2.683901 1.55874 -2.12132 2.12132 
C -1.55874 2.683901 -0.795609 3 0 3 
z
" style="stroke: #414141"/>
    </defs>
    <g clip-path="url(#p3ae724ca90)">
     <use xlink:href="#m12680c1bd2" x="634.83937" y="139.592775" style="fill-opacity: 0; stroke: #414141"/>
    </g>
   </g>
   <g id="patch_11">
    <path d="M 836.716643 63.411108 
L 971.301491 63.411108 
L 971.301491 63.411108 
L 836.716643 63.411108 
L 836.716643 63.411108 
z
" clip-path="url(#p3ae724ca90)" style="fill: #3e809b; stroke: #414141; stroke-linejoin: miter"/>
   </g>
   <g id="line2d_31">
    <path d="M 904.009067 63.411108 
L 904.009067 63.411108 
" clip-path="url(#p3ae724ca90)" style="fill: none; stroke: #414141"/>
   </g>
   <g id="line2d_32">
    <path d="M 904.009067 63.411108 
L 904.009067 63.411108 
" clip-path="url(#p3ae724ca90)" style="fill: none; stroke: #414141"/>
   </g>
   <g id="line2d_33">
    <path d="M 870.362855 63.411108 
L 937.655279 63.411108 
" clip-path="url(#p3ae724ca90)" style="fill: none; stroke: #414141; stroke-linecap: round"/>
   </g>
   <g id="line2d_34">
    <path d="M 870.362855 63.411108 
L 937.655279 63.411108 
" clip-path="url(#p3ae724ca90)" style="fill: none; stroke: #414141; stroke-linecap: round"/>
   </g>
   <g id="line2d_35">
    <g clip-path="url(#p3ae724ca90)">
     <use xlink:href="#m12680c1bd2" x="904.009067" y="139.592775" style="fill-opacity: 0; stroke: #414141"/>
    </g>
   </g>
   <g id="line2d_36">
    <path d="M 634.83937 32.938442 
L 634.83937 20.749375 
L 904.009067 20.749375 
L 904.009067 32.938442 
" clip-path="url(#p3ae724ca90)" style="fill: none; stroke: #000000; stroke-width: 1.5; stroke-linecap: round"/>
   </g>
   <g id="line2d_37">
    <path d="M 567.546946 63.411108 
L 702.131795 63.411108 
" clip-path="url(#p3ae724ca90)" style="fill: none; stroke: #414141"/>
   </g>
   <g id="line2d_38">
    <path d="M 836.716643 63.411108 
L 971.301491 63.411108 
" clip-path="url(#p3ae724ca90)" style="fill: none; stroke: #414141"/>
   </g>
   <g id="patch_12">
    <path d="M 547.359219 398.610442 
L 547.359219 32.938442 
" style="fill: none; stroke: #cccccc; stroke-width: 0.8; stroke-linejoin: miter; stroke-linecap: square"/>
   </g>
   <g id="patch_13">
    <path d="M 991.489219 398.610442 
L 991.489219 32.938442 
" style="fill: none; stroke: #cccccc; stroke-width: 0.8; stroke-linejoin: miter; stroke-linecap: square"/>
   </g>
   <g id="patch_14">
    <path d="M 547.359219 398.610442 
L 991.489219 398.610442 
" style="fill: none; stroke: #cccccc; stroke-width: 0.8; stroke-linejoin: miter; stroke-linecap: square"/>
   </g>
   <g id="patch_15">
    <path d="M 547.359219 32.938442 
L 991.489219 32.938442 
" style="fill: none; stroke: #cccccc; stroke-width: 0.8; stroke-linejoin: miter; stroke-linecap: square"/>
   </g>
   <g id="PathCollection_3">
    <g clip-path="url(#p3ae724ca90)">
     <use xlink:href="#mf9b47086c3" x="627.748314" y="63.411108" style="fill-opacity: 0.3"/>
     <use xlink:href="#mf9b47086c3" x="608.378603" y="63.411108" style="fill-opacity: 0.3"/>
     <use xlink:href="#mf9b47086c3" x="634.628041" y="63.411108" style="fill-opacity: 0.3"/>
     <use xlink:href="#mf9b47086c3" x="617.509059" y="63.411108" style="fill-opacity: 0.3"/>
     <use xlink:href="#mf9b47086c3" x="646.182611" y="63.411108" style="fill-opacity: 0.3"/>
     <use xlink:href="#mf9b47086c3" x="617.870523" y="63.411108" style="fill-opacity: 0.3"/>
     <use xlink:href="#mf9b47086c3" x="631.677335" y="139.592775" style="fill-opacity: 0.3"/>
     <use xlink:href="#mf9b47086c3" x="626.252265" y="63.411108" style="fill-opacity: 0.3"/>
     <use xlink:href="#mf9b47086c3" x="616.931659" y="63.411108" style="fill-opacity: 0.3"/>
     <use xlink:href="#mf9b47086c3" x="624.475968" y="63.411108" style="fill-opacity: 0.3"/>
     <use xlink:href="#mf9b47086c3" x="659.215718" y="63.411108" style="fill-opacity: 0.3"/>
     <use xlink:href="#mf9b47086c3" x="628.085177" y="63.411108" style="fill-opacity: 0.3"/>
     <use xlink:href="#mf9b47086c3" x="625.572855" y="63.411108" style="fill-opacity: 0.3"/>
     <use xlink:href="#mf9b47086c3" x="626.72842" y="63.411108" style="fill-opacity: 0.3"/>
     <use xlink:href="#mf9b47086c3" x="648.441216" y="63.411108" style="fill-opacity: 0.3"/>
     <use xlink:href="#mf9b47086c3" x="625.375803" y="63.411108" style="fill-opacity: 0.3"/>
     <use xlink:href="#mf9b47086c3" x="652.68788" y="63.411108" style="fill-opacity: 0.3"/>
     <use xlink:href="#mf9b47086c3" x="619.771908" y="63.411108" style="fill-opacity: 0.3"/>
     <use xlink:href="#mf9b47086c3" x="625.742722" y="63.411108" style="fill-opacity: 0.3"/>
     <use xlink:href="#mf9b47086c3" x="638.715536" y="63.411108" style="fill-opacity: 0.3"/>
     <use xlink:href="#mf9b47086c3" x="616.335226" y="63.411108" style="fill-opacity: 0.3"/>
     <use xlink:href="#mf9b47086c3" x="615.229894" y="63.411108" style="fill-opacity: 0.3"/>
     <use xlink:href="#mf9b47086c3" x="654.680055" y="63.411108" style="fill-opacity: 0.3"/>
     <use xlink:href="#mf9b47086c3" x="617.878278" y="63.411108" style="fill-opacity: 0.3"/>
     <use xlink:href="#mf9b47086c3" x="627.855465" y="63.411108" style="fill-opacity: 0.3"/>
    </g>
   </g>
   <g id="PathCollection_4">
    <g clip-path="url(#p3ae724ca90)">
     <use xlink:href="#mf9b47086c3" x="909.692387" y="63.411108" style="fill-opacity: 0.3"/>
     <use xlink:href="#mf9b47086c3" x="922.040753" y="63.411108" style="fill-opacity: 0.3"/>
     <use xlink:href="#mf9b47086c3" x="925.692545" y="63.411108" style="fill-opacity: 0.3"/>
     <use xlink:href="#mf9b47086c3" x="877.815939" y="63.411108" style="fill-opacity: 0.3"/>
     <use xlink:href="#mf9b47086c3" x="922.115168" y="63.411108" style="fill-opacity: 0.3"/>
     <use xlink:href="#mf9b47086c3" x="920.042898" y="63.411108" style="fill-opacity: 0.3"/>
     <use xlink:href="#mf9b47086c3" x="921.993684" y="139.592775" style="fill-opacity: 0.3"/>
     <use xlink:href="#mf9b47086c3" x="914.704797" y="63.411108" style="fill-opacity: 0.3"/>
     <use xlink:href="#mf9b47086c3" x="896.650149" y="63.411108" style="fill-opacity: 0.3"/>
     <use xlink:href="#mf9b47086c3" x="891.903345" y="63.411108" style="fill-opacity: 0.3"/>
     <use xlink:href="#mf9b47086c3" x="904.599694" y="63.411108" style="fill-opacity: 0.3"/>
     <use xlink:href="#mf9b47086c3" x="906.925123" y="63.411108" style="fill-opacity: 0.3"/>
     <use xlink:href="#mf9b47086c3" x="894.520033" y="63.411108" style="fill-opacity: 0.3"/>
     <use xlink:href="#mf9b47086c3" x="906.486437" y="63.411108" style="fill-opacity: 0.3"/>
     <use xlink:href="#mf9b47086c3" x="904.700678" y="63.411108" style="fill-opacity: 0.3"/>
     <use xlink:href="#mf9b47086c3" x="918.114125" y="63.411108" style="fill-opacity: 0.3"/>
     <use xlink:href="#mf9b47086c3" x="899.48455" y="63.411108" style="fill-opacity: 0.3"/>
     <use xlink:href="#mf9b47086c3" x="897.024694" y="63.411108" style="fill-opacity: 0.3"/>
     <use xlink:href="#mf9b47086c3" x="920.632118" y="63.411108" style="fill-opacity: 0.3"/>
     <use xlink:href="#mf9b47086c3" x="908.809362" y="63.411108" style="fill-opacity: 0.3"/>
     <use xlink:href="#mf9b47086c3" x="890.082742" y="63.411108" style="fill-opacity: 0.3"/>
     <use xlink:href="#mf9b47086c3" x="903.961525" y="63.411108" style="fill-opacity: 0.3"/>
     <use xlink:href="#mf9b47086c3" x="887.096246" y="63.411108" style="fill-opacity: 0.3"/>
     <use xlink:href="#mf9b47086c3" x="927.321021" y="63.411108" style="fill-opacity: 0.3"/>
     <use xlink:href="#mf9b47086c3" x="884.63471" y="63.411108" style="fill-opacity: 0.3"/>
    </g>
   </g>
   <g id="text_21">
    <!-- ns -->
    <g style="fill: #262626" transform="translate(760.275 17.837812) scale(0.14 -0.14)">
     <use xlink:href="#DejaVuSans-Bold-6e"/>
     <use xlink:href="#DejaVuSans-Bold-73" transform="translate(71.191406 0)"/>
    </g>
   </g>
   <g id="text_22">
    <!-- 5 Time Points -->
    <g style="fill: #262626" transform="translate(715.628125 26.938442) scale(0.14 -0.14)">
     <use xlink:href="#DejaVuSans-Bold-35"/>
     <use xlink:href="#DejaVuSans-Bold-20" transform="translate(69.580078 0)"/>
     <use xlink:href="#DejaVuSans-Bold-54" transform="translate(104.394531 0)"/>
     <use xlink:href="#DejaVuSans-Bold-69" transform="translate(172.607422 0)"/>
     <use xlink:href="#DejaVuSans-Bold-6d" transform="translate(206.884766 0)"/>
     <use xlink:href="#DejaVuSans-Bold-65" transform="translate(311.083984 0)"/>
     <use xlink:href="#DejaVuSans-Bold-20" transform="translate(378.90625 0)"/>
     <use xlink:href="#DejaVuSans-Bold-50" transform="translate(413.720703 0)"/>
     <use xlink:href="#DejaVuSans-Bold-6f" transform="translate(487.011719 0)"/>
     <use xlink:href="#DejaVuSans-Bold-69" transform="translate(555.712891 0)"/>
     <use xlink:href="#DejaVuSans-Bold-6e" transform="translate(589.990234 0)"/>
     <use xlink:href="#DejaVuSans-Bold-74" transform="translate(661.181641 0)"/>
     <use xlink:href="#DejaVuSans-Bold-73" transform="translate(708.984375 0)"/>
    </g>
   </g>
  </g>
 </g>
 <defs>
  <clipPath id="p19db0e32cb">
   <rect x="49.299219" y="32.938442" width="444.13" height="365.672"/>
  </clipPath>
  <clipPath id="p3ae724ca90">
   <rect x="547.359219" y="32.938442" width="444.13" height="365.672"/>
  </clipPath>
 </defs>
</svg>
