<?xml version="1.0" encoding="utf-8" standalone="no"?>
<!DOCTYPE svg PUBLIC "-//W3C//DTD SVG 1.1//EN"
  "http://www.w3.org/Graphics/SVG/1.1/DTD/svg11.dtd">
<svg xmlns:xlink="http://www.w3.org/1999/xlink" width="422.311719pt" height="349.966641pt" viewBox="0 0 422.311719 349.966641" xmlns="http://www.w3.org/2000/svg" version="1.1">
 <metadata>
  <rdf:RDF xmlns:dc="http://purl.org/dc/elements/1.1/" xmlns:cc="http://creativecommons.org/ns#" xmlns:rdf="http://www.w3.org/1999/02/22-rdf-syntax-ns#">
   <cc:Work>
    <dc:type rdf:resource="http://purl.org/dc/dcmitype/StillImage"/>
    <dc:date>2026-01-12T12:15:28.768576</dc:date>
    <dc:format>image/svg+xml</dc:format>
    <dc:creator>
     <cc:Agent>
      <dc:title>Matplotlib v3.10.1, https://matplotlib.org/</dc:title>
     </cc:Agent>
    </dc:creator>
   </cc:Work>
  </rdf:RDF>
 </metadata>
 <defs>
  <style type="text/css">*{stroke-linejoin: round; stroke-linecap: butt}</style>
 </defs>
 <g id="figure_1">
  <g id="patch_1">
   <path d="M 0 349.966641 
L 422.311719 349.966641 
L 422.311719 0 
L 0 0 
z
" style="fill: #ffffff"/>
  </g>
  <g id="axes_1">
   <g id="patch_2">
    <path d="M 48.275 308.539141 
L 406.365 308.539141 
L 406.365 11.379141 
L 48.275 11.379141 
z
" style="fill: #ffffff"/>
   </g>
   <g id="matplotlib.axis_1">
    <g id="xtick_1">
     <g id="line2d_1">
      <path d="M 48.275 308.539141 
L 48.275 11.379141 
" clip-path="url(#p60892376e3)" style="fill: none; stroke: #cccccc; stroke-opacity: 0.3; stroke-width: 0.8; stroke-linecap: round"/>
     </g>
     <g id="text_1">
      <!-- 0.0 -->
      <g style="fill: #262626" transform="translate(39.528281 323.897422) scale(0.11 -0.11)">
       <defs>
        <path id="DejaVuSans-30" d="M 2034 4250 
Q 1547 4250 1301 3770 
Q 1056 3291 1056 2328 
Q 1056 1369 1301 889 
Q 1547 409 2034 409 
Q 2525 409 2770 889 
Q 3016 1369 3016 2328 
Q 3016 3291 2770 3770 
Q 2525 4250 2034 4250 
z
M 2034 4750 
Q 2819 4750 3233 4129 
Q 3647 3509 3647 2328 
Q 3647 1150 3233 529 
Q 2819 -91 2034 -91 
Q 1250 -91 836 529 
Q 422 1150 422 2328 
Q 422 3509 836 4129 
Q 1250 4750 2034 4750 
z
" transform="scale(0.015625)"/>
        <path id="DejaVuSans-2e" d="M 684 794 
L 1344 794 
L 1344 0 
L 684 0 
L 684 794 
z
" transform="scale(0.015625)"/>
       </defs>
       <use xlink:href="#DejaVuSans-30"/>
       <use xlink:href="#DejaVuSans-2e" transform="translate(63.623047 0)"/>
       <use xlink:href="#DejaVuSans-30" transform="translate(95.410156 0)"/>
      </g>
     </g>
    </g>
    <g id="xtick_2">
     <g id="line2d_2">
      <path d="M 107.956667 308.539141 
L 107.956667 11.379141 
" clip-path="url(#p60892376e3)" style="fill: none; stroke: #cccccc; stroke-opacity: 0.3; stroke-width: 0.8; stroke-linecap: round"/>
     </g>
     <g id="text_2">
      <!-- 0.1 -->
      <g style="fill: #262626" transform="translate(99.209948 323.897422) scale(0.11 -0.11)">
       <defs>
        <path id="DejaVuSans-31" d="M 794 531 
L 1825 531 
L 1825 4091 
L 703 3866 
L 703 4441 
L 1819 4666 
L 2450 4666 
L 2450 531 
L 3481 531 
L 3481 0 
L 794 0 
L 794 531 
z
" transform="scale(0.015625)"/>
       </defs>
       <use xlink:href="#DejaVuSans-30"/>
       <use xlink:href="#DejaVuSans-2e" transform="translate(63.623047 0)"/>
       <use xlink:href="#DejaVuSans-31" transform="translate(95.410156 0)"/>
      </g>
     </g>
    </g>
    <g id="xtick_3">
     <g id="line2d_3">
      <path d="M 167.638333 308.539141 
L 167.638333 11.379141 
" clip-path="url(#p60892376e3)" style="fill: none; stroke: #cccccc; stroke-opacity: 0.3; stroke-width: 0.8; stroke-linecap: round"/>
     </g>
     <g id="text_3">
      <!-- 0.2 -->
      <g style="fill: #262626" transform="translate(158.891615 323.897422) scale(0.11 -0.11)">
       <defs>
        <path id="DejaVuSans-32" d="M 1228 531 
L 3431 531 
L 3431 0 
L 469 0 
L 469 531 
Q 828 903 1448 1529 
Q 2069 2156 2228 2338 
Q 2531 2678 2651 2914 
Q 2772 3150 2772 3378 
Q 2772 3750 2511 3984 
Q 2250 4219 1831 4219 
Q 1534 4219 1204 4116 
Q 875 4013 500 3803 
L 500 4441 
Q 881 4594 1212 4672 
Q 1544 4750 1819 4750 
Q 2544 4750 2975 4387 
Q 3406 4025 3406 3419 
Q 3406 3131 3298 2873 
Q 3191 2616 2906 2266 
Q 2828 2175 2409 1742 
Q 1991 1309 1228 531 
z
" transform="scale(0.015625)"/>
       </defs>
       <use xlink:href="#DejaVuSans-30"/>
       <use xlink:href="#DejaVuSans-2e" transform="translate(63.623047 0)"/>
       <use xlink:href="#DejaVuSans-32" transform="translate(95.410156 0)"/>
      </g>
     </g>
    </g>
    <g id="xtick_4">
     <g id="line2d_4">
      <path d="M 227.32 308.539141 
L 227.32 11.379141 
" clip-path="url(#p60892376e3)" style="fill: none; stroke: #cccccc; stroke-opacity: 0.3; stroke-width: 0.8; stroke-linecap: round"/>
     </g>
     <g id="text_4">
      <!-- 0.3 -->
      <g style="fill: #262626" transform="translate(218.573281 323.897422) scale(0.11 -0.11)">
       <defs>
        <path id="DejaVuSans-33" d="M 2597 2516 
Q 3050 2419 3304 2112 
Q 3559 1806 3559 1356 
Q 3559 666 3084 287 
Q 2609 -91 1734 -91 
Q 1441 -91 1130 -33 
Q 819 25 488 141 
L 488 750 
Q 750 597 1062 519 
Q 1375 441 1716 441 
Q 2309 441 2620 675 
Q 2931 909 2931 1356 
Q 2931 1769 2642 2001 
Q 2353 2234 1838 2234 
L 1294 2234 
L 1294 2753 
L 1863 2753 
Q 2328 2753 2575 2939 
Q 2822 3125 2822 3475 
Q 2822 3834 2567 4026 
Q 2313 4219 1838 4219 
Q 1578 4219 1281 4162 
Q 984 4106 628 3988 
L 628 4550 
Q 988 4650 1302 4700 
Q 1616 4750 1894 4750 
Q 2613 4750 3031 4423 
Q 3450 4097 3450 3541 
Q 3450 3153 3228 2886 
Q 3006 2619 2597 2516 
z
" transform="scale(0.015625)"/>
       </defs>
       <use xlink:href="#DejaVuSans-30"/>
       <use xlink:href="#DejaVuSans-2e" transform="translate(63.623047 0)"/>
       <use xlink:href="#DejaVuSans-33" transform="translate(95.410156 0)"/>
      </g>
     </g>
    </g>
    <g id="xtick_5">
     <g id="line2d_5">
      <path d="M 287.001667 308.539141 
L 287.001667 11.379141 
" clip-path="url(#p60892376e3)" style="fill: none; stroke: #cccccc; stroke-opacity: 0.3; stroke-width: 0.8; stroke-linecap: round"/>
     </g>
     <g id="text_5">
      <!-- 0.4 -->
      <g style="fill: #262626" transform="translate(278.254948 323.897422) scale(0.11 -0.11)">
       <defs>
        <path id="DejaVuSans-34" d="M 2419 4116 
L 825 1625 
L 2419 1625 
L 2419 4116 
z
M 2253 4666 
L 3047 4666 
L 3047 1625 
L 3713 1625 
L 3713 1100 
L 3047 1100 
L 3047 0 
L 2419 0 
L 2419 1100 
L 313 1100 
L 313 1709 
L 2253 4666 
z
" transform="scale(0.015625)"/>
       </defs>
       <use xlink:href="#DejaVuSans-30"/>
       <use xlink:href="#DejaVuSans-2e" transform="translate(63.623047 0)"/>
       <use xlink:href="#DejaVuSans-34" transform="translate(95.410156 0)"/>
      </g>
     </g>
    </g>
    <g id="xtick_6">
     <g id="line2d_6">
      <path d="M 346.683333 308.539141 
L 346.683333 11.379141 
" clip-path="url(#p60892376e3)" style="fill: none; stroke: #cccccc; stroke-opacity: 0.3; stroke-width: 0.8; stroke-linecap: round"/>
     </g>
     <g id="text_6">
      <!-- 0.5 -->
      <g style="fill: #262626" transform="translate(337.936615 323.897422) scale(0.11 -0.11)">
       <defs>
        <path id="DejaVuSans-35" d="M 691 4666 
L 3169 4666 
L 3169 4134 
L 1269 4134 
L 1269 2991 
Q 1406 3038 1543 3061 
Q 1681 3084 1819 3084 
Q 2600 3084 3056 2656 
Q 3513 2228 3513 1497 
Q 3513 744 3044 326 
Q 2575 -91 1722 -91 
Q 1428 -91 1123 -41 
Q 819 9 494 109 
L 494 744 
Q 775 591 1075 516 
Q 1375 441 1709 441 
Q 2250 441 2565 725 
Q 2881 1009 2881 1497 
Q 2881 1984 2565 2268 
Q 2250 2553 1709 2553 
Q 1456 2553 1204 2497 
Q 953 2441 691 2322 
L 691 4666 
z
" transform="scale(0.015625)"/>
       </defs>
       <use xlink:href="#DejaVuSans-30"/>
       <use xlink:href="#DejaVuSans-2e" transform="translate(63.623047 0)"/>
       <use xlink:href="#DejaVuSans-35" transform="translate(95.410156 0)"/>
      </g>
     </g>
    </g>
    <g id="xtick_7">
     <g id="line2d_7">
      <path d="M 406.365 308.539141 
L 406.365 11.379141 
" clip-path="url(#p60892376e3)" style="fill: none; stroke: #cccccc; stroke-opacity: 0.3; stroke-width: 0.8; stroke-linecap: round"/>
     </g>
     <g id="text_7">
      <!-- 0.6 -->
      <g style="fill: #262626" transform="translate(397.618281 323.897422) scale(0.11 -0.11)">
       <defs>
        <path id="DejaVuSans-36" d="M 2113 2584 
Q 1688 2584 1439 2293 
Q 1191 2003 1191 1497 
Q 1191 994 1439 701 
Q 1688 409 2113 409 
Q 2538 409 2786 701 
Q 3034 994 3034 1497 
Q 3034 2003 2786 2293 
Q 2538 2584 2113 2584 
z
M 3366 4563 
L 3366 3988 
Q 3128 4100 2886 4159 
Q 2644 4219 2406 4219 
Q 1781 4219 1451 3797 
Q 1122 3375 1075 2522 
Q 1259 2794 1537 2939 
Q 1816 3084 2150 3084 
Q 2853 3084 3261 2657 
Q 3669 2231 3669 1497 
Q 3669 778 3244 343 
Q 2819 -91 2113 -91 
Q 1303 -91 875 529 
Q 447 1150 447 2328 
Q 447 3434 972 4092 
Q 1497 4750 2381 4750 
Q 2619 4750 2861 4703 
Q 3103 4656 3366 4563 
z
" transform="scale(0.015625)"/>
       </defs>
       <use xlink:href="#DejaVuSans-30"/>
       <use xlink:href="#DejaVuSans-2e" transform="translate(63.623047 0)"/>
       <use xlink:href="#DejaVuSans-36" transform="translate(95.410156 0)"/>
      </g>
     </g>
    </g>
    <g id="text_8">
     <!-- Precision -->
     <g style="fill: #262626" transform="translate(193.670312 340.063047) scale(0.13 -0.13)">
      <defs>
       <path id="DejaVuSans-Bold-50" d="M 588 4666 
L 2584 4666 
Q 3475 4666 3951 4270 
Q 4428 3875 4428 3144 
Q 4428 2409 3951 2014 
Q 3475 1619 2584 1619 
L 1791 1619 
L 1791 0 
L 588 0 
L 588 4666 
z
M 1791 3794 
L 1791 2491 
L 2456 2491 
Q 2806 2491 2997 2661 
Q 3188 2831 3188 3144 
Q 3188 3456 2997 3625 
Q 2806 3794 2456 3794 
L 1791 3794 
z
" transform="scale(0.015625)"/>
       <path id="DejaVuSans-Bold-72" d="M 3138 2547 
Q 2991 2616 2845 2648 
Q 2700 2681 2553 2681 
Q 2122 2681 1889 2404 
Q 1656 2128 1656 1613 
L 1656 0 
L 538 0 
L 538 3500 
L 1656 3500 
L 1656 2925 
Q 1872 3269 2151 3426 
Q 2431 3584 2822 3584 
Q 2878 3584 2943 3579 
Q 3009 3575 3134 3559 
L 3138 2547 
z
" transform="scale(0.015625)"/>
       <path id="DejaVuSans-Bold-65" d="M 4031 1759 
L 4031 1441 
L 1416 1441 
Q 1456 1047 1700 850 
Q 1944 653 2381 653 
Q 2734 653 3104 758 
Q 3475 863 3866 1075 
L 3866 213 
Q 3469 63 3072 -14 
Q 2675 -91 2278 -91 
Q 1328 -91 801 392 
Q 275 875 275 1747 
Q 275 2603 792 3093 
Q 1309 3584 2216 3584 
Q 3041 3584 3536 3087 
Q 4031 2591 4031 1759 
z
M 2881 2131 
Q 2881 2450 2695 2645 
Q 2509 2841 2209 2841 
Q 1884 2841 1681 2658 
Q 1478 2475 1428 2131 
L 2881 2131 
z
" transform="scale(0.015625)"/>
       <path id="DejaVuSans-Bold-63" d="M 3366 3391 
L 3366 2478 
Q 3138 2634 2908 2709 
Q 2678 2784 2431 2784 
Q 1963 2784 1702 2511 
Q 1441 2238 1441 1747 
Q 1441 1256 1702 982 
Q 1963 709 2431 709 
Q 2694 709 2930 787 
Q 3166 866 3366 1019 
L 3366 103 
Q 3103 6 2833 -42 
Q 2563 -91 2291 -91 
Q 1344 -91 809 395 
Q 275 881 275 1747 
Q 275 2613 809 3098 
Q 1344 3584 2291 3584 
Q 2566 3584 2833 3536 
Q 3100 3488 3366 3391 
z
" transform="scale(0.015625)"/>
       <path id="DejaVuSans-Bold-69" d="M 538 3500 
L 1656 3500 
L 1656 0 
L 538 0 
L 538 3500 
z
M 538 4863 
L 1656 4863 
L 1656 3950 
L 538 3950 
L 538 4863 
z
" transform="scale(0.015625)"/>
       <path id="DejaVuSans-Bold-73" d="M 3272 3391 
L 3272 2541 
Q 2913 2691 2578 2766 
Q 2244 2841 1947 2841 
Q 1628 2841 1473 2761 
Q 1319 2681 1319 2516 
Q 1319 2381 1436 2309 
Q 1553 2238 1856 2203 
L 2053 2175 
Q 2913 2066 3209 1816 
Q 3506 1566 3506 1031 
Q 3506 472 3093 190 
Q 2681 -91 1863 -91 
Q 1516 -91 1145 -36 
Q 775 19 384 128 
L 384 978 
Q 719 816 1070 734 
Q 1422 653 1784 653 
Q 2113 653 2278 743 
Q 2444 834 2444 1013 
Q 2444 1163 2330 1236 
Q 2216 1309 1875 1350 
L 1678 1375 
Q 931 1469 631 1722 
Q 331 1975 331 2491 
Q 331 3047 712 3315 
Q 1094 3584 1881 3584 
Q 2191 3584 2531 3537 
Q 2872 3491 3272 3391 
z
" transform="scale(0.015625)"/>
       <path id="DejaVuSans-Bold-6f" d="M 2203 2784 
Q 1831 2784 1636 2517 
Q 1441 2250 1441 1747 
Q 1441 1244 1636 976 
Q 1831 709 2203 709 
Q 2569 709 2762 976 
Q 2956 1244 2956 1747 
Q 2956 2250 2762 2517 
Q 2569 2784 2203 2784 
z
M 2203 3584 
Q 3106 3584 3614 3096 
Q 4122 2609 4122 1747 
Q 4122 884 3614 396 
Q 3106 -91 2203 -91 
Q 1297 -91 786 396 
Q 275 884 275 1747 
Q 275 2609 786 3096 
Q 1297 3584 2203 3584 
z
" transform="scale(0.015625)"/>
       <path id="DejaVuSans-Bold-6e" d="M 4056 2131 
L 4056 0 
L 2931 0 
L 2931 347 
L 2931 1631 
Q 2931 2084 2911 2256 
Q 2891 2428 2841 2509 
Q 2775 2619 2662 2680 
Q 2550 2741 2406 2741 
Q 2056 2741 1856 2470 
Q 1656 2200 1656 1722 
L 1656 0 
L 538 0 
L 538 3500 
L 1656 3500 
L 1656 2988 
Q 1909 3294 2193 3439 
Q 2478 3584 2822 3584 
Q 3428 3584 3742 3212 
Q 4056 2841 4056 2131 
z
" transform="scale(0.015625)"/>
      </defs>
      <use xlink:href="#DejaVuSans-Bold-50"/>
      <use xlink:href="#DejaVuSans-Bold-72" transform="translate(73.291016 0)"/>
      <use xlink:href="#DejaVuSans-Bold-65" transform="translate(122.607422 0)"/>
      <use xlink:href="#DejaVuSans-Bold-63" transform="translate(190.429688 0)"/>
      <use xlink:href="#DejaVuSans-Bold-69" transform="translate(249.707031 0)"/>
      <use xlink:href="#DejaVuSans-Bold-73" transform="translate(283.984375 0)"/>
      <use xlink:href="#DejaVuSans-Bold-69" transform="translate(343.505859 0)"/>
      <use xlink:href="#DejaVuSans-Bold-6f" transform="translate(377.783203 0)"/>
      <use xlink:href="#DejaVuSans-Bold-6e" transform="translate(446.484375 0)"/>
     </g>
    </g>
   </g>
   <g id="matplotlib.axis_2">
    <g id="ytick_1">
     <g id="line2d_8">
      <path d="M 48.275 308.539141 
L 406.365 308.539141 
" clip-path="url(#p60892376e3)" style="fill: none; stroke: #cccccc; stroke-opacity: 0.3; stroke-width: 0.8; stroke-linecap: round"/>
     </g>
     <g id="text_9">
      <!-- 0.0 -->
      <g style="fill: #262626" transform="translate(23.781562 312.718281) scale(0.11 -0.11)">
       <use xlink:href="#DejaVuSans-30"/>
       <use xlink:href="#DejaVuSans-2e" transform="translate(63.623047 0)"/>
       <use xlink:href="#DejaVuSans-30" transform="translate(95.410156 0)"/>
      </g>
     </g>
    </g>
    <g id="ytick_2">
     <g id="line2d_9">
      <path d="M 48.275 266.087712 
L 406.365 266.087712 
" clip-path="url(#p60892376e3)" style="fill: none; stroke: #cccccc; stroke-opacity: 0.3; stroke-width: 0.8; stroke-linecap: round"/>
     </g>
     <g id="text_10">
      <!-- 0.1 -->
      <g style="fill: #262626" transform="translate(23.781562 270.266853) scale(0.11 -0.11)">
       <use xlink:href="#DejaVuSans-30"/>
       <use xlink:href="#DejaVuSans-2e" transform="translate(63.623047 0)"/>
       <use xlink:href="#DejaVuSans-31" transform="translate(95.410156 0)"/>
      </g>
     </g>
    </g>
    <g id="ytick_3">
     <g id="line2d_10">
      <path d="M 48.275 223.636283 
L 406.365 223.636283 
" clip-path="url(#p60892376e3)" style="fill: none; stroke: #cccccc; stroke-opacity: 0.3; stroke-width: 0.8; stroke-linecap: round"/>
     </g>
     <g id="text_11">
      <!-- 0.2 -->
      <g style="fill: #262626" transform="translate(23.781562 227.815424) scale(0.11 -0.11)">
       <use xlink:href="#DejaVuSans-30"/>
       <use xlink:href="#DejaVuSans-2e" transform="translate(63.623047 0)"/>
       <use xlink:href="#DejaVuSans-32" transform="translate(95.410156 0)"/>
      </g>
     </g>
    </g>
    <g id="ytick_4">
     <g id="line2d_11">
      <path d="M 48.275 181.184855 
L 406.365 181.184855 
" clip-path="url(#p60892376e3)" style="fill: none; stroke: #cccccc; stroke-opacity: 0.3; stroke-width: 0.8; stroke-linecap: round"/>
     </g>
     <g id="text_12">
      <!-- 0.3 -->
      <g style="fill: #262626" transform="translate(23.781562 185.363996) scale(0.11 -0.11)">
       <use xlink:href="#DejaVuSans-30"/>
       <use xlink:href="#DejaVuSans-2e" transform="translate(63.623047 0)"/>
       <use xlink:href="#DejaVuSans-33" transform="translate(95.410156 0)"/>
      </g>
     </g>
    </g>
    <g id="ytick_5">
     <g id="line2d_12">
      <path d="M 48.275 138.733426 
L 406.365 138.733426 
" clip-path="url(#p60892376e3)" style="fill: none; stroke: #cccccc; stroke-opacity: 0.3; stroke-width: 0.8; stroke-linecap: round"/>
     </g>
     <g id="text_13">
      <!-- 0.4 -->
      <g style="fill: #262626" transform="translate(23.781562 142.912567) scale(0.11 -0.11)">
       <use xlink:href="#DejaVuSans-30"/>
       <use xlink:href="#DejaVuSans-2e" transform="translate(63.623047 0)"/>
       <use xlink:href="#DejaVuSans-34" transform="translate(95.410156 0)"/>
      </g>
     </g>
    </g>
    <g id="ytick_6">
     <g id="line2d_13">
      <path d="M 48.275 96.281998 
L 406.365 96.281998 
" clip-path="url(#p60892376e3)" style="fill: none; stroke: #cccccc; stroke-opacity: 0.3; stroke-width: 0.8; stroke-linecap: round"/>
     </g>
     <g id="text_14">
      <!-- 0.5 -->
      <g style="fill: #262626" transform="translate(23.781562 100.461138) scale(0.11 -0.11)">
       <use xlink:href="#DejaVuSans-30"/>
       <use xlink:href="#DejaVuSans-2e" transform="translate(63.623047 0)"/>
       <use xlink:href="#DejaVuSans-35" transform="translate(95.410156 0)"/>
      </g>
     </g>
    </g>
    <g id="ytick_7">
     <g id="line2d_14">
      <path d="M 48.275 53.830569 
L 406.365 53.830569 
" clip-path="url(#p60892376e3)" style="fill: none; stroke: #cccccc; stroke-opacity: 0.3; stroke-width: 0.8; stroke-linecap: round"/>
     </g>
     <g id="text_15">
      <!-- 0.6 -->
      <g style="fill: #262626" transform="translate(23.781562 58.00971) scale(0.11 -0.11)">
       <use xlink:href="#DejaVuSans-30"/>
       <use xlink:href="#DejaVuSans-2e" transform="translate(63.623047 0)"/>
       <use xlink:href="#DejaVuSans-36" transform="translate(95.410156 0)"/>
      </g>
     </g>
    </g>
    <g id="ytick_8">
     <g id="line2d_15">
      <path d="M 48.275 11.379141 
L 406.365 11.379141 
" clip-path="url(#p60892376e3)" style="fill: none; stroke: #cccccc; stroke-opacity: 0.3; stroke-width: 0.8; stroke-linecap: round"/>
     </g>
     <g id="text_16">
      <!-- 0.7 -->
      <g style="fill: #262626" transform="translate(23.781562 15.558281) scale(0.11 -0.11)">
       <defs>
        <path id="DejaVuSans-37" d="M 525 4666 
L 3525 4666 
L 3525 4397 
L 1831 0 
L 1172 0 
L 2766 4134 
L 525 4134 
L 525 4666 
z
" transform="scale(0.015625)"/>
       </defs>
       <use xlink:href="#DejaVuSans-30"/>
       <use xlink:href="#DejaVuSans-2e" transform="translate(63.623047 0)"/>
       <use xlink:href="#DejaVuSans-37" transform="translate(95.410156 0)"/>
      </g>
     </g>
    </g>
    <g id="text_17">
     <!-- Recall -->
     <g style="fill: #262626" transform="translate(17.077969 182.069297) rotate(-90) scale(0.13 -0.13)">
      <defs>
       <path id="DejaVuSans-Bold-52" d="M 2297 2597 
Q 2675 2597 2839 2737 
Q 3003 2878 3003 3200 
Q 3003 3519 2839 3656 
Q 2675 3794 2297 3794 
L 1791 3794 
L 1791 2597 
L 2297 2597 
z
M 1791 1766 
L 1791 0 
L 588 0 
L 588 4666 
L 2425 4666 
Q 3347 4666 3776 4356 
Q 4206 4047 4206 3378 
Q 4206 2916 3982 2619 
Q 3759 2322 3309 2181 
Q 3556 2125 3751 1926 
Q 3947 1728 4147 1325 
L 4800 0 
L 3519 0 
L 2950 1159 
Q 2778 1509 2601 1637 
Q 2425 1766 2131 1766 
L 1791 1766 
z
" transform="scale(0.015625)"/>
       <path id="DejaVuSans-Bold-61" d="M 2106 1575 
Q 1756 1575 1579 1456 
Q 1403 1338 1403 1106 
Q 1403 894 1545 773 
Q 1688 653 1941 653 
Q 2256 653 2472 879 
Q 2688 1106 2688 1447 
L 2688 1575 
L 2106 1575 
z
M 3816 1997 
L 3816 0 
L 2688 0 
L 2688 519 
Q 2463 200 2181 54 
Q 1900 -91 1497 -91 
Q 953 -91 614 226 
Q 275 544 275 1050 
Q 275 1666 698 1953 
Q 1122 2241 2028 2241 
L 2688 2241 
L 2688 2328 
Q 2688 2594 2478 2717 
Q 2269 2841 1825 2841 
Q 1466 2841 1156 2769 
Q 847 2697 581 2553 
L 581 3406 
Q 941 3494 1303 3539 
Q 1666 3584 2028 3584 
Q 2975 3584 3395 3211 
Q 3816 2838 3816 1997 
z
" transform="scale(0.015625)"/>
       <path id="DejaVuSans-Bold-6c" d="M 538 4863 
L 1656 4863 
L 1656 0 
L 538 0 
L 538 4863 
z
" transform="scale(0.015625)"/>
      </defs>
      <use xlink:href="#DejaVuSans-Bold-52"/>
      <use xlink:href="#DejaVuSans-Bold-65" transform="translate(77.001953 0)"/>
      <use xlink:href="#DejaVuSans-Bold-63" transform="translate(144.824219 0)"/>
      <use xlink:href="#DejaVuSans-Bold-61" transform="translate(204.101562 0)"/>
      <use xlink:href="#DejaVuSans-Bold-6c" transform="translate(271.582031 0)"/>
      <use xlink:href="#DejaVuSans-Bold-6c" transform="translate(305.859375 0)"/>
     </g>
    </g>
   </g>
   <g id="line2d_16">
    <path d="M 81.371197 92.744379 
L 84.982239 195.068224 
L 88.593281 226.860443 
L 92.204324 242.355238 
L 95.815366 251.527566 
L 99.426408 257.591422 
L 103.037451 261.898021 
L 106.648493 265.114549 
L 110.259535 267.608384 
L 113.870577 269.59849 
L 117.48162 271.22349 
L 121.092662 272.575415 
L 124.703704 273.717763 
L 128.314746 274.695763 
L 131.925789 275.5425 
L 135.536831 276.28274 
L 139.147873 276.935385 
L 142.758915 277.515116 
L 146.369958 278.033504 
L 149.981 278.499796 
L 153.592042 278.921471 
L 157.203084 279.304639 
L 160.814127 279.654344 
L 164.425169 279.974788 
L 168.036211 280.269495 
L 171.647253 280.541445 
L 175.258296 280.793178 
L 178.869338 281.026866 
L 182.48038 281.244383 
L 186.091422 281.44735 
L 189.702465 281.637182 
L 193.313507 281.815112 
L 196.924549 281.982227 
L 200.535591 282.139482 
L 204.146634 282.287726 
L 207.757676 282.427712 
L 211.368718 282.560111 
L 214.97976 282.685523 
L 218.590803 282.804488 
L 222.201845 282.91749 
L 225.812887 283.024966 
L 229.423929 283.127312 
L 233.034972 283.224887 
L 236.646014 283.318017 
L 240.257056 283.406998 
L 243.868098 283.492103 
L 247.479141 283.573578 
L 251.090183 283.651652 
L 254.701225 283.726533 
L 258.312268 283.798412 
L 261.92331 283.867467 
L 265.534352 283.933862 
L 269.145394 283.997746 
L 272.756437 284.059259 
L 276.367479 284.118532 
L 279.978521 284.175684 
L 283.589563 284.230828 
L 287.200606 284.284067 
L 290.811648 284.335497 
L 294.42269 284.385211 
L 298.033732 284.433292 
L 301.644775 284.47982 
L 305.255817 284.524868 
L 308.866859 284.568507 
L 312.477901 284.6108 
L 316.088944 284.65181 
L 319.699986 284.691595 
L 323.311028 284.730207 
L 326.92207 284.767698 
L 330.533113 284.804117 
L 334.144155 284.839509 
L 337.755197 284.873916 
L 341.366239 284.907379 
L 344.977282 284.939936 
L 348.588324 284.971624 
L 352.199366 285.002478 
L 355.810408 285.032528 
L 359.421451 285.061808 
L 363.032493 285.090345 
L 366.643535 285.118167 
L 370.254577 285.145302 
L 373.86562 285.171775 
L 377.476662 285.197608 
L 381.087704 285.222826 
L 384.698746 285.24745 
L 388.309789 285.271501 
L 391.920831 285.294998 
L 395.531873 285.31796 
L 399.142915 285.340406 
L 402.753958 285.362352 
L 406.365 285.383816 
" clip-path="url(#p60892376e3)" style="fill: none; stroke-dasharray: 4.44,1.92; stroke-dashoffset: 0; stroke: #808080; stroke-opacity: 0.3; stroke-width: 1.2"/>
   </g>
   <g id="line2d_17">
    <path d="M 117.48162 0.094584 
L 121.092662 73.215228 
L 124.703704 114.802923 
L 128.314746 141.63727 
L 131.925789 160.386217 
L 135.536831 174.225604 
L 139.147873 184.860587 
L 142.758915 193.288623 
L 146.369958 200.132103 
L 149.981 205.799498 
L 153.592042 210.569992 
L 157.203084 214.640883 
L 160.814127 218.155556 
L 164.425169 221.220717 
L 168.036211 223.917419 
L 171.647253 226.308333 
L 175.258296 228.44268 
L 178.869338 230.359654 
L 182.48038 232.090855 
L 186.091422 233.662039 
L 189.702465 235.094412 
L 193.313507 236.405592 
L 196.924549 237.610334 
L 200.535591 238.721095 
L 204.146634 239.748458 
L 207.757676 240.701476 
L 211.368718 241.587937 
L 214.97976 242.414578 
L 218.590803 243.187257 
L 222.201845 243.911091 
L 225.812887 244.590569 
L 229.423929 245.229647 
L 233.034972 245.831825 
L 236.646014 246.400208 
L 240.257056 246.937564 
L 243.868098 247.446366 
L 247.479141 247.928831 
L 251.090183 248.386952 
L 254.701225 248.822527 
L 258.312268 249.237179 
L 261.92331 249.632381 
L 265.534352 250.009471 
L 269.145394 250.369665 
L 272.756437 250.714074 
L 276.367479 251.043714 
L 279.978521 251.359514 
L 283.589563 251.662328 
L 287.200606 251.952941 
L 290.811648 252.232076 
L 294.42269 252.5004 
L 298.033732 252.758529 
L 301.644775 253.007033 
L 305.255817 253.24644 
L 308.866859 253.477242 
L 312.477901 253.699893 
L 316.088944 253.914819 
L 319.699986 254.122414 
L 323.311028 254.323047 
L 326.92207 254.517062 
L 330.533113 254.704782 
L 334.144155 254.886509 
L 337.755197 255.062524 
L 341.366239 255.233093 
L 344.977282 255.398465 
L 348.588324 255.558873 
L 352.199366 255.714538 
L 355.810408 255.865667 
L 359.421451 256.012456 
L 363.032493 256.155089 
L 366.643535 256.29374 
L 370.254577 256.428573 
L 373.86562 256.559744 
L 377.476662 256.6874 
L 381.087704 256.811681 
L 384.698746 256.932718 
L 388.309789 257.050638 
L 391.920831 257.165558 
L 395.531873 257.277592 
L 399.142915 257.386848 
L 402.753958 257.493427 
L 406.365 257.597426 
" clip-path="url(#p60892376e3)" style="fill: none; stroke-dasharray: 4.44,1.92; stroke-dashoffset: 0; stroke: #808080; stroke-opacity: 0.3; stroke-width: 1.2"/>
   </g>
   <g id="line2d_18">
    <path d="M 161.008552 -1 
L 164.425169 30.77878 
L 168.036211 56.344141 
L 171.647253 76.45495 
L 175.258296 92.688587 
L 178.869338 106.067697 
L 182.48038 117.284344 
L 186.091422 126.823604 
L 189.702465 135.035567 
L 193.313507 142.179234 
L 196.924549 148.450337 
L 200.535591 153.999543 
L 204.146634 158.944719 
L 207.757676 163.379398 
L 211.368718 167.378749 
L 214.97976 171.003873 
L 218.590803 174.304949 
L 222.201845 177.323567 
L 225.812887 180.094493 
L 229.423929 182.647012 
L 233.034972 185.005967 
L 236.646014 187.192572 
L 240.257056 189.22505 
L 243.868098 191.119141 
L 247.479141 192.888514 
L 251.090183 194.545094 
L 254.701225 196.099334 
L 258.312268 197.560433 
L 261.92331 198.936521 
L 265.534352 200.234806 
L 269.145394 201.461705 
L 272.756437 202.62295 
L 276.367479 203.723671 
L 279.978521 204.768482 
L 283.589563 205.761536 
L 287.200606 206.706586 
L 290.811648 207.607031 
L 294.42269 208.465956 
L 298.033732 209.286167 
L 301.644775 210.070226 
L 305.255817 210.82047 
L 308.866859 211.53904 
L 312.477901 212.227902 
L 316.088944 212.888859 
L 319.699986 213.523575 
L 323.311028 214.133581 
L 326.92207 214.720293 
L 330.533113 215.28502 
L 334.144155 215.828974 
L 337.755197 216.353283 
L 341.366239 216.85899 
L 344.977282 217.347069 
L 348.588324 217.818425 
L 352.199366 218.273904 
L 355.810408 218.714294 
L 359.421451 219.140333 
L 363.032493 219.552711 
L 366.643535 219.952075 
L 370.254577 220.339032 
L 373.86562 220.71415 
L 377.476662 221.077965 
L 381.087704 221.43098 
L 384.698746 221.77367 
L 388.309789 222.106479 
L 391.920831 222.429831 
L 395.531873 222.744121 
L 399.142915 223.049727 
L 402.753958 223.347002 
L 406.365 223.636283 
" clip-path="url(#p60892376e3)" style="fill: none; stroke-dasharray: 4.44,1.92; stroke-dashoffset: 0; stroke: #808080; stroke-opacity: 0.3; stroke-width: 1.2"/>
   </g>
   <g id="line2d_19">
    <path d="M 212.820859 -1 
L 214.97976 9.568211 
L 218.590803 24.739387 
L 222.201845 37.902489 
L 225.812887 49.431457 
L 229.423929 59.612811 
L 233.034972 68.669785 
L 236.646014 76.778891 
L 240.257056 84.081529 
L 243.868098 90.692308 
L 247.479141 96.705102 
L 251.090183 102.197537 
L 254.701225 107.234361 
L 258.312268 111.870007 
L 261.92331 116.150569 
L 265.534352 120.115342 
L 269.145394 123.798026 
L 272.756437 127.227694 
L 276.367479 130.429554 
L 279.978521 133.425574 
L 283.589563 136.234985 
L 287.200606 138.874696 
L 290.811648 141.359631 
L 294.42269 143.703015 
L 298.033732 145.916608 
L 301.644775 148.010904 
L 305.255817 149.995291 
L 308.866859 151.878202 
L 312.477901 153.667226 
L 316.088944 155.369215 
L 319.699986 156.990368 
L 323.311028 158.536312 
L 326.92207 160.012161 
L 330.533113 161.422577 
L 334.144155 162.771817 
L 337.755197 164.063777 
L 341.366239 165.302028 
L 344.977282 166.489852 
L 348.588324 167.630268 
L 352.199366 168.726057 
L 355.810408 169.779791 
L 359.421451 170.793843 
L 363.032493 171.770414 
L 366.643535 172.711544 
L 370.254577 173.619129 
L 373.86562 174.49493 
L 377.476662 175.340588 
L 381.087704 176.157633 
L 384.698746 176.947494 
L 388.309789 177.711503 
L 391.920831 178.450912 
L 395.531873 179.166888 
L 399.142915 179.860528 
L 402.753958 180.532861 
L 406.365 181.184855 
" clip-path="url(#p60892376e3)" style="fill: none; stroke-dasharray: 4.44,1.92; stroke-dashoffset: 0; stroke: #808080; stroke-opacity: 0.3; stroke-width: 1.2"/>
   </g>
   <g id="patch_3">
    <path d="M 48.275 308.539141 
L 48.275 11.379141 
" style="fill: none; stroke: #cccccc; stroke-width: 1.2; stroke-linejoin: miter; stroke-linecap: square"/>
   </g>
   <g id="patch_4">
    <path d="M 406.365 308.539141 
L 406.365 11.379141 
" style="fill: none; stroke: #cccccc; stroke-width: 1.2; stroke-linejoin: miter; stroke-linecap: square"/>
   </g>
   <g id="patch_5">
    <path d="M 48.275 308.539141 
L 406.365 308.539141 
" style="fill: none; stroke: #cccccc; stroke-width: 1.2; stroke-linejoin: miter; stroke-linecap: square"/>
   </g>
   <g id="patch_6">
    <path d="M 48.275 11.379141 
L 406.365 11.379141 
" style="fill: none; stroke: #cccccc; stroke-width: 1.2; stroke-linejoin: miter; stroke-linecap: square"/>
   </g>
   <g id="PathCollection_1">
    <defs>
     <path id="me9be10c2cb" d="M 0 4.472136 
C 1.186024 4.472136 2.323632 4.000923 3.162278 3.162278 
C 4.000923 2.323632 4.472136 1.186024 4.472136 0 
C 4.472136 -1.186024 4.000923 -2.323632 3.162278 -3.162278 
C 2.323632 -4.000923 1.186024 -4.472136 0 -4.472136 
C -1.186024 -4.472136 -2.323632 -4.000923 -3.162278 -3.162278 
C -4.000923 -2.323632 -4.472136 -1.186024 -4.472136 0 
C -4.472136 1.186024 -4.000923 2.323632 -3.162278 3.162278 
C -2.323632 4.000923 -1.186024 4.472136 0 4.472136 
z
" style="stroke: #000000; stroke-opacity: 0.6; stroke-width: 0.8"/>
    </defs>
    <g clip-path="url(#p60892376e3)">
     <use xlink:href="#me9be10c2cb" x="179.283537" y="53.830569" style="fill: #a23b72; fill-opacity: 0.6; stroke: #000000; stroke-opacity: 0.6; stroke-width: 0.8"/>
     <use xlink:href="#me9be10c2cb" x="138.701768" y="167.034379" style="fill: #a23b72; fill-opacity: 0.6; stroke: #000000; stroke-opacity: 0.6; stroke-width: 0.8"/>
     <use xlink:href="#me9be10c2cb" x="130.59454" y="195.335331" style="fill: #a23b72; fill-opacity: 0.6; stroke: #000000; stroke-opacity: 0.6; stroke-width: 0.8"/>
     <use xlink:href="#me9be10c2cb" x="136.692284" y="195.335331" style="fill: #a23b72; fill-opacity: 0.6; stroke: #000000; stroke-opacity: 0.6; stroke-width: 0.8"/>
     <use xlink:href="#me9be10c2cb" x="180.900926" y="82.131522" style="fill: #a23b72; fill-opacity: 0.6; stroke: #000000; stroke-opacity: 0.6; stroke-width: 0.8"/>
     <use xlink:href="#me9be10c2cb" x="147.744444" y="149.346283" style="fill: #a23b72; fill-opacity: 0.6; stroke: #000000; stroke-opacity: 0.6; stroke-width: 0.8"/>
     <use xlink:href="#me9be10c2cb" x="197.479167" y="96.281998" style="fill: #a23b72; fill-opacity: 0.6; stroke: #000000; stroke-opacity: 0.6; stroke-width: 0.8"/>
     <use xlink:href="#me9be10c2cb" x="104.226562" y="228.942712" style="fill: #a23b72; fill-opacity: 0.6; stroke: #000000; stroke-opacity: 0.6; stroke-width: 0.8"/>
     <use xlink:href="#me9be10c2cb" x="156.787121" y="149.346283" style="fill: #a23b72; fill-opacity: 0.6; stroke: #000000; stroke-opacity: 0.6; stroke-width: 0.8"/>
     <use xlink:href="#me9be10c2cb" x="174.872475" y="122.814141" style="fill: #a23b72; fill-opacity: 0.6; stroke: #000000; stroke-opacity: 0.6; stroke-width: 0.8"/>
     <use xlink:href="#me9be10c2cb" x="233.493966" y="53.830569" style="fill: #a23b72; fill-opacity: 0.6; stroke: #000000; stroke-opacity: 0.6; stroke-width: 0.8"/>
     <use xlink:href="#me9be10c2cb" x="137.7975" y="138.733426" style="fill: #a23b72; fill-opacity: 0.6; stroke: #000000; stroke-opacity: 0.6; stroke-width: 0.8"/>
     <use xlink:href="#me9be10c2cb" x="156.787121" y="138.733426" style="fill: #a23b72; fill-opacity: 0.6; stroke: #000000; stroke-opacity: 0.6; stroke-width: 0.8"/>
     <use xlink:href="#me9be10c2cb" x="150.586429" y="138.733426" style="fill: #a23b72; fill-opacity: 0.6; stroke: #000000; stroke-opacity: 0.6; stroke-width: 0.8"/>
     <use xlink:href="#me9be10c2cb" x="152.069203" y="195.335331" style="fill: #a23b72; fill-opacity: 0.6; stroke: #000000; stroke-opacity: 0.6; stroke-width: 0.8"/>
     <use xlink:href="#me9be10c2cb" x="147.744444" y="145.264415" style="fill: #a23b72; fill-opacity: 0.6; stroke: #000000; stroke-opacity: 0.6; stroke-width: 0.8"/>
     <use xlink:href="#me9be10c2cb" x="128.925901" y="145.264415" style="fill: #a23b72; fill-opacity: 0.6; stroke: #000000; stroke-opacity: 0.6; stroke-width: 0.8"/>
     <use xlink:href="#me9be10c2cb" x="117.138462" y="210.574305" style="fill: #a23b72; fill-opacity: 0.6; stroke: #000000; stroke-opacity: 0.6; stroke-width: 0.8"/>
     <use xlink:href="#me9be10c2cb" x="178.828646" y="79.954525" style="fill: #a23b72; fill-opacity: 0.6; stroke: #000000; stroke-opacity: 0.6; stroke-width: 0.8"/>
     <use xlink:href="#me9be10c2cb" x="95.392105" y="210.574305" style="fill: #a23b72; fill-opacity: 0.6; stroke: #000000; stroke-opacity: 0.6; stroke-width: 0.8"/>
     <use xlink:href="#me9be10c2cb" x="74.223551" y="273.16295" style="fill: #a23b72; fill-opacity: 0.6; stroke: #000000; stroke-opacity: 0.6; stroke-width: 0.8"/>
     <use xlink:href="#me9be10c2cb" x="280.37037" y="60.905807" style="fill: #a23b72; fill-opacity: 0.6; stroke: #000000; stroke-opacity: 0.6; stroke-width: 0.8"/>
     <use xlink:href="#me9be10c2cb" x="161.954365" y="167.034379" style="fill: #a23b72; fill-opacity: 0.6; stroke: #000000; stroke-opacity: 0.6; stroke-width: 0.8"/>
     <use xlink:href="#me9be10c2cb" x="180.900926" y="167.034379" style="fill: #a23b72; fill-opacity: 0.6; stroke: #000000; stroke-opacity: 0.6; stroke-width: 0.8"/>
     <use xlink:href="#me9be10c2cb" x="150.586429" y="96.281998" style="fill: #a23b72; fill-opacity: 0.6; stroke: #000000; stroke-opacity: 0.6; stroke-width: 0.8"/>
    </g>
   </g>
   <g id="PathCollection_2">
    <defs>
     <path id="mc693052a7e" d="M 0 -5 
L -5 5 
L 5 5 
z
" style="stroke: #000000; stroke-opacity: 0.75; stroke-width: 0.8"/>
    </defs>
    <g clip-path="url(#p60892376e3)">
     <use xlink:href="#mc693052a7e" x="218.794048" y="195.335331" style="fill: #a23b72; fill-opacity: 0.75; stroke: #000000; stroke-opacity: 0.75; stroke-width: 0.8"/>
     <use xlink:href="#mc693052a7e" x="48.275" y="308.539141" style="fill: #a23b72; fill-opacity: 0.75; stroke: #000000; stroke-opacity: 0.75; stroke-width: 0.8"/>
     <use xlink:href="#mc693052a7e" x="218.794048" y="251.937236" style="fill: #a23b72; fill-opacity: 0.75; stroke: #000000; stroke-opacity: 0.75; stroke-width: 0.8"/>
     <use xlink:href="#mc693052a7e" x="48.275" y="308.539141" style="fill: #a23b72; fill-opacity: 0.75; stroke: #000000; stroke-opacity: 0.75; stroke-width: 0.8"/>
     <use xlink:href="#mc693052a7e" x="180.900926" y="251.937236" style="fill: #a23b72; fill-opacity: 0.75; stroke: #000000; stroke-opacity: 0.75; stroke-width: 0.8"/>
     <use xlink:href="#mc693052a7e" x="211.043182" y="228.942712" style="fill: #a23b72; fill-opacity: 0.75; stroke: #000000; stroke-opacity: 0.75; stroke-width: 0.8"/>
     <use xlink:href="#mc693052a7e" x="48.275" y="308.539141" style="fill: #a23b72; fill-opacity: 0.75; stroke: #000000; stroke-opacity: 0.75; stroke-width: 0.8"/>
     <use xlink:href="#mc693052a7e" x="167.638333" y="282.006998" style="fill: #a23b72; fill-opacity: 0.75; stroke: #000000; stroke-opacity: 0.75; stroke-width: 0.8"/>
     <use xlink:href="#mc693052a7e" x="48.275" y="308.539141" style="fill: #a23b72; fill-opacity: 0.75; stroke: #000000; stroke-opacity: 0.75; stroke-width: 0.8"/>
     <use xlink:href="#mc693052a7e" x="114.587963" y="282.006998" style="fill: #a23b72; fill-opacity: 0.75; stroke: #000000; stroke-opacity: 0.75; stroke-width: 0.8"/>
     <use xlink:href="#mc693052a7e" x="272.08125" y="223.636283" style="fill: #a23b72; fill-opacity: 0.75; stroke: #000000; stroke-opacity: 0.75; stroke-width: 0.8"/>
     <use xlink:href="#mc693052a7e" x="133.534524" y="251.937236" style="fill: #a23b72; fill-opacity: 0.75; stroke: #000000; stroke-opacity: 0.75; stroke-width: 0.8"/>
     <use xlink:href="#mc693052a7e" x="140.092949" y="251.937236" style="fill: #a23b72; fill-opacity: 0.75; stroke: #000000; stroke-opacity: 0.75; stroke-width: 0.8"/>
     <use xlink:href="#mc693052a7e" x="186.001923" y="223.636283" style="fill: #a23b72; fill-opacity: 0.75; stroke: #000000; stroke-opacity: 0.75; stroke-width: 0.8"/>
     <use xlink:href="#mc693052a7e" x="147.744444" y="251.937236" style="fill: #a23b72; fill-opacity: 0.75; stroke: #000000; stroke-opacity: 0.75; stroke-width: 0.8"/>
     <use xlink:href="#mc693052a7e" x="102.531061" y="275.884196" style="fill: #a23b72; fill-opacity: 0.75; stroke: #000000; stroke-opacity: 0.75; stroke-width: 0.8"/>
     <use xlink:href="#mc693052a7e" x="197.479167" y="243.229251" style="fill: #a23b72; fill-opacity: 0.75; stroke: #000000; stroke-opacity: 0.75; stroke-width: 0.8"/>
     <use xlink:href="#mc693052a7e" x="147.744444" y="275.884196" style="fill: #a23b72; fill-opacity: 0.75; stroke: #000000; stroke-opacity: 0.75; stroke-width: 0.8"/>
     <use xlink:href="#mc693052a7e" x="180.900926" y="243.229251" style="fill: #a23b72; fill-opacity: 0.75; stroke: #000000; stroke-opacity: 0.75; stroke-width: 0.8"/>
     <use xlink:href="#mc693052a7e" x="107.956667" y="275.884196" style="fill: #a23b72; fill-opacity: 0.75; stroke: #000000; stroke-opacity: 0.75; stroke-width: 0.8"/>
     <use xlink:href="#mc693052a7e" x="218.794048" y="237.78676" style="fill: #a23b72; fill-opacity: 0.75; stroke: #000000; stroke-opacity: 0.75; stroke-width: 0.8"/>
     <use xlink:href="#mc693052a7e" x="247.213889" y="202.410569" style="fill: #a23b72; fill-opacity: 0.75; stroke: #000000; stroke-opacity: 0.75; stroke-width: 0.8"/>
     <use xlink:href="#mc693052a7e" x="180.900926" y="237.78676" style="fill: #a23b72; fill-opacity: 0.75; stroke: #000000; stroke-opacity: 0.75; stroke-width: 0.8"/>
     <use xlink:href="#mc693052a7e" x="122.877083" y="273.16295" style="fill: #a23b72; fill-opacity: 0.75; stroke: #000000; stroke-opacity: 0.75; stroke-width: 0.8"/>
     <use xlink:href="#mc693052a7e" x="48.275" y="308.539141" style="fill: #a23b72; fill-opacity: 0.75; stroke: #000000; stroke-opacity: 0.75; stroke-width: 0.8"/>
    </g>
   </g>
   <g id="PathCollection_3">
    <defs>
     <path id="m9699eb61fb" d="M 0 4.472136 
C 1.186024 4.472136 2.323632 4.000923 3.162278 3.162278 
C 4.000923 2.323632 4.472136 1.186024 4.472136 0 
C 4.472136 -1.186024 4.000923 -2.323632 3.162278 -3.162278 
C 2.323632 -4.000923 1.186024 -4.472136 0 -4.472136 
C -1.186024 -4.472136 -2.323632 -4.000923 -3.162278 -3.162278 
C -4.000923 -2.323632 -4.472136 -1.186024 -4.472136 0 
C -4.472136 1.186024 -4.000923 2.323632 -3.162278 3.162278 
C -2.323632 4.000923 -1.186024 4.472136 0 4.472136 
z
" style="stroke: #000000; stroke-opacity: 0.6; stroke-width: 0.8"/>
    </defs>
    <g clip-path="url(#p60892376e3)">
     <use xlink:href="#m9699eb61fb" x="208.95641" y="110.432474" style="fill: #2e86ab; fill-opacity: 0.6; stroke: #000000; stroke-opacity: 0.6; stroke-width: 0.8"/>
     <use xlink:href="#m9699eb61fb" x="147.744444" y="195.335331" style="fill: #2e86ab; fill-opacity: 0.6; stroke: #000000; stroke-opacity: 0.6; stroke-width: 0.8"/>
     <use xlink:href="#m9699eb61fb" x="126.120652" y="223.636283" style="fill: #2e86ab; fill-opacity: 0.6; stroke: #000000; stroke-opacity: 0.6; stroke-width: 0.8"/>
     <use xlink:href="#m9699eb61fb" x="117.138462" y="223.636283" style="fill: #2e86ab; fill-opacity: 0.6; stroke: #000000; stroke-opacity: 0.6; stroke-width: 0.8"/>
     <use xlink:href="#m9699eb61fb" x="136.692284" y="195.335331" style="fill: #2e86ab; fill-opacity: 0.6; stroke: #000000; stroke-opacity: 0.6; stroke-width: 0.8"/>
     <use xlink:href="#m9699eb61fb" x="239.256333" y="96.281998" style="fill: #2e86ab; fill-opacity: 0.6; stroke: #000000; stroke-opacity: 0.6; stroke-width: 0.8"/>
     <use xlink:href="#m9699eb61fb" x="203.966304" y="149.346283" style="fill: #2e86ab; fill-opacity: 0.6; stroke: #000000; stroke-opacity: 0.6; stroke-width: 0.8"/>
     <use xlink:href="#m9699eb61fb" x="96.020333" y="255.474855" style="fill: #2e86ab; fill-opacity: 0.6; stroke: #000000; stroke-opacity: 0.6; stroke-width: 0.8"/>
     <use xlink:href="#m9699eb61fb" x="143.765667" y="202.410569" style="fill: #2e86ab; fill-opacity: 0.6; stroke: #000000; stroke-opacity: 0.6; stroke-width: 0.8"/>
     <use xlink:href="#m9699eb61fb" x="190.374206" y="175.878426" style="fill: #2e86ab; fill-opacity: 0.6; stroke: #000000; stroke-opacity: 0.6; stroke-width: 0.8"/>
     <use xlink:href="#m9699eb61fb" x="222.346528" y="110.432474" style="fill: #2e86ab; fill-opacity: 0.6; stroke: #000000; stroke-opacity: 0.6; stroke-width: 0.8"/>
     <use xlink:href="#m9699eb61fb" x="176.164286" y="138.733426" style="fill: #2e86ab; fill-opacity: 0.6; stroke: #000000; stroke-opacity: 0.6; stroke-width: 0.8"/>
     <use xlink:href="#m9699eb61fb" x="140.092949" y="195.335331" style="fill: #2e86ab; fill-opacity: 0.6; stroke: #000000; stroke-opacity: 0.6; stroke-width: 0.8"/>
     <use xlink:href="#m9699eb61fb" x="222.346528" y="110.432474" style="fill: #2e86ab; fill-opacity: 0.6; stroke: #000000; stroke-opacity: 0.6; stroke-width: 0.8"/>
     <use xlink:href="#m9699eb61fb" x="197.479167" y="138.733426" style="fill: #2e86ab; fill-opacity: 0.6; stroke: #000000; stroke-opacity: 0.6; stroke-width: 0.8"/>
     <use xlink:href="#m9699eb61fb" x="191.511" y="112.60947" style="fill: #2e86ab; fill-opacity: 0.6; stroke: #000000; stroke-opacity: 0.6; stroke-width: 0.8"/>
     <use xlink:href="#m9699eb61fb" x="176.164286" y="112.60947" style="fill: #2e86ab; fill-opacity: 0.6; stroke: #000000; stroke-opacity: 0.6; stroke-width: 0.8"/>
     <use xlink:href="#m9699eb61fb" x="96.020333" y="243.229251" style="fill: #2e86ab; fill-opacity: 0.6; stroke: #000000; stroke-opacity: 0.6; stroke-width: 0.8"/>
     <use xlink:href="#m9699eb61fb" x="163.047436" y="145.264415" style="fill: #2e86ab; fill-opacity: 0.6; stroke: #000000; stroke-opacity: 0.6; stroke-width: 0.8"/>
     <use xlink:href="#m9699eb61fb" x="172.611806" y="145.264415" style="fill: #2e86ab; fill-opacity: 0.6; stroke: #000000; stroke-opacity: 0.6; stroke-width: 0.8"/>
     <use xlink:href="#m9699eb61fb" x="72.147667" y="273.16295" style="fill: #2e86ab; fill-opacity: 0.6; stroke: #000000; stroke-opacity: 0.6; stroke-width: 0.8"/>
     <use xlink:href="#m9699eb61fb" x="186.001923" y="96.281998" style="fill: #2e86ab; fill-opacity: 0.6; stroke: #000000; stroke-opacity: 0.6; stroke-width: 0.8"/>
     <use xlink:href="#m9699eb61fb" x="114.587963" y="202.410569" style="fill: #2e86ab; fill-opacity: 0.6; stroke: #000000; stroke-opacity: 0.6; stroke-width: 0.8"/>
     <use xlink:href="#m9699eb61fb" x="163.047436" y="131.658188" style="fill: #2e86ab; fill-opacity: 0.6; stroke: #000000; stroke-opacity: 0.6; stroke-width: 0.8"/>
     <use xlink:href="#m9699eb61fb" x="178.017754" y="131.658188" style="fill: #2e86ab; fill-opacity: 0.6; stroke: #000000; stroke-opacity: 0.6; stroke-width: 0.8"/>
    </g>
   </g>
   <g id="PathCollection_4">
    <defs>
     <path id="mc5180a55af" d="M 0 -5 
L -5 5 
L 5 5 
z
" style="stroke: #000000; stroke-opacity: 0.75; stroke-width: 0.8"/>
    </defs>
    <g clip-path="url(#p60892376e3)">
     <use xlink:href="#mc5180a55af" x="105.114683" y="251.937236" style="fill: #2e86ab; fill-opacity: 0.75; stroke: #000000; stroke-opacity: 0.75; stroke-width: 0.8"/>
     <use xlink:href="#mc5180a55af" x="222.346528" y="110.432474" style="fill: #2e86ab; fill-opacity: 0.75; stroke: #000000; stroke-opacity: 0.75; stroke-width: 0.8"/>
     <use xlink:href="#mc5180a55af" x="143.765667" y="195.335331" style="fill: #2e86ab; fill-opacity: 0.75; stroke: #000000; stroke-opacity: 0.75; stroke-width: 0.8"/>
     <use xlink:href="#mc5180a55af" x="167.638333" y="167.034379" style="fill: #2e86ab; fill-opacity: 0.75; stroke: #000000; stroke-opacity: 0.75; stroke-width: 0.8"/>
     <use xlink:href="#mc5180a55af" x="126.120652" y="223.636283" style="fill: #2e86ab; fill-opacity: 0.75; stroke: #000000; stroke-opacity: 0.75; stroke-width: 0.8"/>
     <use xlink:href="#mc5180a55af" x="247.213889" y="96.281998" style="fill: #2e86ab; fill-opacity: 0.75; stroke: #000000; stroke-opacity: 0.75; stroke-width: 0.8"/>
     <use xlink:href="#mc5180a55af" x="119.893" y="228.942712" style="fill: #2e86ab; fill-opacity: 0.75; stroke: #000000; stroke-opacity: 0.75; stroke-width: 0.8"/>
     <use xlink:href="#mc5180a55af" x="163.047436" y="175.878426" style="fill: #2e86ab; fill-opacity: 0.75; stroke: #000000; stroke-opacity: 0.75; stroke-width: 0.8"/>
     <use xlink:href="#mc5180a55af" x="117.138462" y="228.942712" style="fill: #2e86ab; fill-opacity: 0.75; stroke: #000000; stroke-opacity: 0.75; stroke-width: 0.8"/>
     <use xlink:href="#mc5180a55af" x="197.479167" y="149.346283" style="fill: #2e86ab; fill-opacity: 0.75; stroke: #000000; stroke-opacity: 0.75; stroke-width: 0.8"/>
     <use xlink:href="#mc5180a55af" x="105.114683" y="251.937236" style="fill: #2e86ab; fill-opacity: 0.75; stroke: #000000; stroke-opacity: 0.75; stroke-width: 0.8"/>
     <use xlink:href="#mc5180a55af" x="122.877083" y="223.636283" style="fill: #2e86ab; fill-opacity: 0.75; stroke: #000000; stroke-opacity: 0.75; stroke-width: 0.8"/>
     <use xlink:href="#mc5180a55af" x="180.900926" y="195.335331" style="fill: #2e86ab; fill-opacity: 0.75; stroke: #000000; stroke-opacity: 0.75; stroke-width: 0.8"/>
     <use xlink:href="#mc5180a55af" x="197.479167" y="138.733426" style="fill: #2e86ab; fill-opacity: 0.75; stroke: #000000; stroke-opacity: 0.75; stroke-width: 0.8"/>
     <use xlink:href="#mc5180a55af" x="117.138462" y="223.636283" style="fill: #2e86ab; fill-opacity: 0.75; stroke: #000000; stroke-opacity: 0.75; stroke-width: 0.8"/>
     <use xlink:href="#mc5180a55af" x="114.587963" y="210.574305" style="fill: #2e86ab; fill-opacity: 0.75; stroke: #000000; stroke-opacity: 0.75; stroke-width: 0.8"/>
     <use xlink:href="#mc5180a55af" x="122.877083" y="210.574305" style="fill: #2e86ab; fill-opacity: 0.75; stroke: #000000; stroke-opacity: 0.75; stroke-width: 0.8"/>
     <use xlink:href="#mc5180a55af" x="163.047436" y="145.264415" style="fill: #2e86ab; fill-opacity: 0.75; stroke: #000000; stroke-opacity: 0.75; stroke-width: 0.8"/>
     <use xlink:href="#mc5180a55af" x="122.877083" y="210.574305" style="fill: #2e86ab; fill-opacity: 0.75; stroke: #000000; stroke-opacity: 0.75; stroke-width: 0.8"/>
     <use xlink:href="#mc5180a55af" x="122.877083" y="210.574305" style="fill: #2e86ab; fill-opacity: 0.75; stroke: #000000; stroke-opacity: 0.75; stroke-width: 0.8"/>
     <use xlink:href="#mc5180a55af" x="98.009722" y="237.78676" style="fill: #2e86ab; fill-opacity: 0.75; stroke: #000000; stroke-opacity: 0.75; stroke-width: 0.8"/>
     <use xlink:href="#mc5180a55af" x="197.479167" y="96.281998" style="fill: #2e86ab; fill-opacity: 0.75; stroke: #000000; stroke-opacity: 0.75; stroke-width: 0.8"/>
     <use xlink:href="#mc5180a55af" x="74.223551" y="273.16295" style="fill: #2e86ab; fill-opacity: 0.75; stroke: #000000; stroke-opacity: 0.75; stroke-width: 0.8"/>
     <use xlink:href="#mc5180a55af" x="72.147667" y="273.16295" style="fill: #2e86ab; fill-opacity: 0.75; stroke: #000000; stroke-opacity: 0.75; stroke-width: 0.8"/>
     <use xlink:href="#mc5180a55af" x="126.120652" y="202.410569" style="fill: #2e86ab; fill-opacity: 0.75; stroke: #000000; stroke-opacity: 0.75; stroke-width: 0.8"/>
    </g>
   </g>
   <g id="text_18">
    <!-- $F1=0.1$ -->
    <g style="fill: #262626; opacity: 0.5" transform="translate(360.524657 287.730999) scale(0.1 -0.1)">
     <defs>
      <path id="DejaVuSans-Oblique-46" d="M 1081 4666 
L 3756 4666 
L 3653 4134 
L 1606 4134 
L 1338 2759 
L 3188 2759 
L 3084 2228 
L 1234 2228 
L 800 0 
L 172 0 
L 1081 4666 
z
" transform="scale(0.015625)"/>
      <path id="DejaVuSans-3d" d="M 678 2906 
L 4684 2906 
L 4684 2381 
L 678 2381 
L 678 2906 
z
M 678 1631 
L 4684 1631 
L 4684 1100 
L 678 1100 
L 678 1631 
z
" transform="scale(0.015625)"/>
     </defs>
     <use xlink:href="#DejaVuSans-Oblique-46" transform="translate(0 0.78125)"/>
     <use xlink:href="#DejaVuSans-31" transform="translate(57.519531 0.78125)"/>
     <use xlink:href="#DejaVuSans-3d" transform="translate(140.625 0.78125)"/>
     <use xlink:href="#DejaVuSans-30" transform="translate(243.896484 0.78125)"/>
     <use xlink:href="#DejaVuSans-2e" transform="translate(307.519531 0.78125)"/>
     <use xlink:href="#DejaVuSans-31" transform="translate(339.306641 0.78125)"/>
    </g>
   </g>
   <g id="text_19">
    <!-- $F1=0.2$ -->
    <g style="fill: #262626; opacity: 0.5" transform="translate(356.913615 258.15784) scale(0.1 -0.1)">
     <use xlink:href="#DejaVuSans-Oblique-46" transform="translate(0 0.78125)"/>
     <use xlink:href="#DejaVuSans-31" transform="translate(57.519531 0.78125)"/>
     <use xlink:href="#DejaVuSans-3d" transform="translate(140.625 0.78125)"/>
     <use xlink:href="#DejaVuSans-30" transform="translate(243.896484 0.78125)"/>
     <use xlink:href="#DejaVuSans-2e" transform="translate(307.519531 0.78125)"/>
     <use xlink:href="#DejaVuSans-32" transform="translate(333.806641 0.78125)"/>
    </g>
   </g>
   <g id="text_20">
    <!-- $F1=0.3$ -->
    <g style="fill: #262626; opacity: 0.5" transform="translate(356.913615 220.106444) scale(0.1 -0.1)">
     <use xlink:href="#DejaVuSans-Oblique-46" transform="translate(0 0.78125)"/>
     <use xlink:href="#DejaVuSans-31" transform="translate(57.519531 0.78125)"/>
     <use xlink:href="#DejaVuSans-3d" transform="translate(140.625 0.78125)"/>
     <use xlink:href="#DejaVuSans-30" transform="translate(243.896484 0.78125)"/>
     <use xlink:href="#DejaVuSans-2e" transform="translate(307.519531 0.78125)"/>
     <use xlink:href="#DejaVuSans-33" transform="translate(339.306641 0.78125)"/>
    </g>
   </g>
   <g id="text_21">
    <!-- $F1=0.4$ -->
    <g style="fill: #262626; opacity: 0.5" transform="translate(360.524657 170.389643) scale(0.1 -0.1)">
     <use xlink:href="#DejaVuSans-Oblique-46" transform="translate(0 0.78125)"/>
     <use xlink:href="#DejaVuSans-31" transform="translate(57.519531 0.78125)"/>
     <use xlink:href="#DejaVuSans-3d" transform="translate(140.625 0.78125)"/>
     <use xlink:href="#DejaVuSans-30" transform="translate(243.896484 0.78125)"/>
     <use xlink:href="#DejaVuSans-2e" transform="translate(307.519531 0.78125)"/>
     <use xlink:href="#DejaVuSans-34" transform="translate(339.306641 0.78125)"/>
    </g>
   </g>
   <g id="legend_1">
    <g id="patch_7">
     <path d="M 53.275 78.091641 
L 151.878125 78.091641 
L 151.878125 16.379141 
L 53.275 16.379141 
z
" style="fill: #ffffff; opacity: 0.95; stroke: #808080; stroke-linejoin: miter"/>
    </g>
    <g id="PathCollection_5">
     <g>
      <use xlink:href="#me9be10c2cb" x="67.275" y="25.352578" style="fill: #a23b72; fill-opacity: 0.6; stroke: #000000; stroke-opacity: 0.6; stroke-width: 0.8"/>
     </g>
    </g>
    <g id="text_22">
     <!-- BoolNet 21tp -->
     <g style="fill: #262626" transform="translate(82.275 27.977578) scale(0.1 -0.1)">
      <defs>
       <path id="DejaVuSans-42" d="M 1259 2228 
L 1259 519 
L 2272 519 
Q 2781 519 3026 730 
Q 3272 941 3272 1375 
Q 3272 1813 3026 2020 
Q 2781 2228 2272 2228 
L 1259 2228 
z
M 1259 4147 
L 1259 2741 
L 2194 2741 
Q 2656 2741 2882 2914 
Q 3109 3088 3109 3444 
Q 3109 3797 2882 3972 
Q 2656 4147 2194 4147 
L 1259 4147 
z
M 628 4666 
L 2241 4666 
Q 2963 4666 3353 4366 
Q 3744 4066 3744 3513 
Q 3744 3084 3544 2831 
Q 3344 2578 2956 2516 
Q 3422 2416 3680 2098 
Q 3938 1781 3938 1306 
Q 3938 681 3513 340 
Q 3088 0 2303 0 
L 628 0 
L 628 4666 
z
" transform="scale(0.015625)"/>
       <path id="DejaVuSans-6f" d="M 1959 3097 
Q 1497 3097 1228 2736 
Q 959 2375 959 1747 
Q 959 1119 1226 758 
Q 1494 397 1959 397 
Q 2419 397 2687 759 
Q 2956 1122 2956 1747 
Q 2956 2369 2687 2733 
Q 2419 3097 1959 3097 
z
M 1959 3584 
Q 2709 3584 3137 3096 
Q 3566 2609 3566 1747 
Q 3566 888 3137 398 
Q 2709 -91 1959 -91 
Q 1206 -91 779 398 
Q 353 888 353 1747 
Q 353 2609 779 3096 
Q 1206 3584 1959 3584 
z
" transform="scale(0.015625)"/>
       <path id="DejaVuSans-6c" d="M 603 4863 
L 1178 4863 
L 1178 0 
L 603 0 
L 603 4863 
z
" transform="scale(0.015625)"/>
       <path id="DejaVuSans-4e" d="M 628 4666 
L 1478 4666 
L 3547 763 
L 3547 4666 
L 4159 4666 
L 4159 0 
L 3309 0 
L 1241 3903 
L 1241 0 
L 628 0 
L 628 4666 
z
" transform="scale(0.015625)"/>
       <path id="DejaVuSans-65" d="M 3597 1894 
L 3597 1613 
L 953 1613 
Q 991 1019 1311 708 
Q 1631 397 2203 397 
Q 2534 397 2845 478 
Q 3156 559 3463 722 
L 3463 178 
Q 3153 47 2828 -22 
Q 2503 -91 2169 -91 
Q 1331 -91 842 396 
Q 353 884 353 1716 
Q 353 2575 817 3079 
Q 1281 3584 2069 3584 
Q 2775 3584 3186 3129 
Q 3597 2675 3597 1894 
z
M 3022 2063 
Q 3016 2534 2758 2815 
Q 2500 3097 2075 3097 
Q 1594 3097 1305 2825 
Q 1016 2553 972 2059 
L 3022 2063 
z
" transform="scale(0.015625)"/>
       <path id="DejaVuSans-74" d="M 1172 4494 
L 1172 3500 
L 2356 3500 
L 2356 3053 
L 1172 3053 
L 1172 1153 
Q 1172 725 1289 603 
Q 1406 481 1766 481 
L 2356 481 
L 2356 0 
L 1766 0 
Q 1100 0 847 248 
Q 594 497 594 1153 
L 594 3053 
L 172 3053 
L 172 3500 
L 594 3500 
L 594 4494 
L 1172 4494 
z
" transform="scale(0.015625)"/>
       <path id="DejaVuSans-20" transform="scale(0.015625)"/>
       <path id="DejaVuSans-70" d="M 1159 525 
L 1159 -1331 
L 581 -1331 
L 581 3500 
L 1159 3500 
L 1159 2969 
Q 1341 3281 1617 3432 
Q 1894 3584 2278 3584 
Q 2916 3584 3314 3078 
Q 3713 2572 3713 1747 
Q 3713 922 3314 415 
Q 2916 -91 2278 -91 
Q 1894 -91 1617 61 
Q 1341 213 1159 525 
z
M 3116 1747 
Q 3116 2381 2855 2742 
Q 2594 3103 2138 3103 
Q 1681 3103 1420 2742 
Q 1159 2381 1159 1747 
Q 1159 1113 1420 752 
Q 1681 391 2138 391 
Q 2594 391 2855 752 
Q 3116 1113 3116 1747 
z
" transform="scale(0.015625)"/>
      </defs>
      <use xlink:href="#DejaVuSans-42"/>
      <use xlink:href="#DejaVuSans-6f" transform="translate(68.603516 0)"/>
      <use xlink:href="#DejaVuSans-6f" transform="translate(129.785156 0)"/>
      <use xlink:href="#DejaVuSans-6c" transform="translate(190.966797 0)"/>
      <use xlink:href="#DejaVuSans-4e" transform="translate(218.75 0)"/>
      <use xlink:href="#DejaVuSans-65" transform="translate(293.554688 0)"/>
      <use xlink:href="#DejaVuSans-74" transform="translate(355.078125 0)"/>
      <use xlink:href="#DejaVuSans-20" transform="translate(394.287109 0)"/>
      <use xlink:href="#DejaVuSans-32" transform="translate(426.074219 0)"/>
      <use xlink:href="#DejaVuSans-31" transform="translate(489.697266 0)"/>
      <use xlink:href="#DejaVuSans-74" transform="translate(553.320312 0)"/>
      <use xlink:href="#DejaVuSans-70" transform="translate(592.529297 0)"/>
     </g>
    </g>
    <g id="PathCollection_6">
     <g>
      <use xlink:href="#mc693052a7e" x="67.275" y="40.030703" style="fill: #a23b72; fill-opacity: 0.75; stroke: #000000; stroke-opacity: 0.75; stroke-width: 0.8"/>
     </g>
    </g>
    <g id="text_23">
     <!-- BoolNet 5tp -->
     <g style="fill: #262626" transform="translate(82.275 42.655703) scale(0.1 -0.1)">
      <use xlink:href="#DejaVuSans-42"/>
      <use xlink:href="#DejaVuSans-6f" transform="translate(68.603516 0)"/>
      <use xlink:href="#DejaVuSans-6f" transform="translate(129.785156 0)"/>
      <use xlink:href="#DejaVuSans-6c" transform="translate(190.966797 0)"/>
      <use xlink:href="#DejaVuSans-4e" transform="translate(218.75 0)"/>
      <use xlink:href="#DejaVuSans-65" transform="translate(293.554688 0)"/>
      <use xlink:href="#DejaVuSans-74" transform="translate(355.078125 0)"/>
      <use xlink:href="#DejaVuSans-20" transform="translate(394.287109 0)"/>
      <use xlink:href="#DejaVuSans-35" transform="translate(426.074219 0)"/>
      <use xlink:href="#DejaVuSans-74" transform="translate(489.697266 0)"/>
      <use xlink:href="#DejaVuSans-70" transform="translate(528.90625 0)"/>
     </g>
    </g>
    <g id="PathCollection_7">
     <g>
      <use xlink:href="#m9699eb61fb" x="67.275" y="54.708828" style="fill: #2e86ab; fill-opacity: 0.6; stroke: #000000; stroke-opacity: 0.6; stroke-width: 0.8"/>
     </g>
    </g>
    <g id="text_24">
     <!-- BNI3 21tp -->
     <g style="fill: #262626" transform="translate(82.275 57.333828) scale(0.1 -0.1)">
      <defs>
       <path id="DejaVuSans-49" d="M 628 4666 
L 1259 4666 
L 1259 0 
L 628 0 
L 628 4666 
z
" transform="scale(0.015625)"/>
      </defs>
      <use xlink:href="#DejaVuSans-42"/>
      <use xlink:href="#DejaVuSans-4e" transform="translate(68.603516 0)"/>
      <use xlink:href="#DejaVuSans-49" transform="translate(143.408203 0)"/>
      <use xlink:href="#DejaVuSans-33" transform="translate(172.900391 0)"/>
      <use xlink:href="#DejaVuSans-20" transform="translate(236.523438 0)"/>
      <use xlink:href="#DejaVuSans-32" transform="translate(268.310547 0)"/>
      <use xlink:href="#DejaVuSans-31" transform="translate(331.933594 0)"/>
      <use xlink:href="#DejaVuSans-74" transform="translate(395.556641 0)"/>
      <use xlink:href="#DejaVuSans-70" transform="translate(434.765625 0)"/>
     </g>
    </g>
    <g id="PathCollection_8">
     <g>
      <use xlink:href="#mc5180a55af" x="67.275" y="69.386953" style="fill: #2e86ab; fill-opacity: 0.75; stroke: #000000; stroke-opacity: 0.75; stroke-width: 0.8"/>
     </g>
    </g>
    <g id="text_25">
     <!-- BNI3 5tp -->
     <g style="fill: #262626" transform="translate(82.275 72.011953) scale(0.1 -0.1)">
      <use xlink:href="#DejaVuSans-42"/>
      <use xlink:href="#DejaVuSans-4e" transform="translate(68.603516 0)"/>
      <use xlink:href="#DejaVuSans-49" transform="translate(143.408203 0)"/>
      <use xlink:href="#DejaVuSans-33" transform="translate(172.900391 0)"/>
      <use xlink:href="#DejaVuSans-20" transform="translate(236.523438 0)"/>
      <use xlink:href="#DejaVuSans-35" transform="translate(268.310547 0)"/>
      <use xlink:href="#DejaVuSans-74" transform="translate(331.933594 0)"/>
      <use xlink:href="#DejaVuSans-70" transform="translate(371.142578 0)"/>
     </g>
    </g>
   </g>
  </g>
 </g>
 <defs>
  <clipPath id="p60892376e3">
   <rect x="48.275" y="11.379141" width="358.09" height="297.16"/>
  </clipPath>
 </defs>
</svg>
